
<svg width="61px" height="91px" viewBox="0 0 61 91" version="1.1" xmlns="http://www.w3.org/2000/svg" xmlns:xlink="http://www.w3.org/1999/xlink">
    <!-- Generator: Sketch 43.1 (39012) - http://www.bohemiancoding.com/sketch -->
    <desc>Created with Sketch.</desc>
    <defs></defs>
    <g id="Page-1" stroke="none" stroke-width="1" fill="none" fill-rule="evenodd">
        <g id="HD-Platform-Copy" transform="translate(-498.000000, -733.000000)" fill="#12ACF5">
            <g id="Perk" transform="translate(313.000000, 656.000000)">
                <g id="Perk-1" transform="translate(0.000000, 77.000000)">
                    <g id="Hovered-icon" transform="translate(185.000000, 0.000000)">
                        <g id="Group-7">
                            <path d="M58.3773214,30.2884542 C57.1921429,30.2884542 56.2308929,31.2429786 56.2308929,32.4206569 L56.2308929,45.7431988 C56.2308929,59.8370234 44.6882143,71.3030234 30.5001786,71.3030234 C16.3121429,71.3030234 4.76964286,59.8366686 4.76964286,45.7430214 L4.76964286,32.4204795 C4.76964286,31.2428012 3.80839286,30.2882768 2.62321429,30.2882768 C1.43767857,30.2882768 0.476785714,31.2428012 0.476785714,32.4204795 L0.476785714,45.7430214 C0.476785714,61.4712982 12.7969643,74.3932982 28.35375,75.4902651 L28.35375,86.558384 L17.25125,86.558384 C16.0660714,86.558384 15.1048214,87.5129084 15.1048214,88.6905867 C15.1048214,89.8682651 16.0658929,90.8227895 17.25125,90.8227895 L43.74875,90.8227895 C44.9339286,90.8227895 45.8951786,89.8682651 45.8951786,88.6905867 C45.8951786,87.5129084 44.9341071,86.558384 43.74875,86.558384 L32.6464286,86.558384 L32.6464286,75.4902651 C48.2033929,74.3932982 60.5233929,61.4711209 60.5233929,45.7430214 L60.5233929,32.4204795 C60.52375,31.2429786 59.5625,30.2884542 58.3773214,30.2884542 L58.3773214,30.2884542 Z" id="Shape"></path>
                            <path d="M31.9305357,0 L29.0698214,0 C19.2575,0 11.2746429,7.92994932 11.2746429,17.6772378 L11.2746429,47.1638986 C11.2746429,56.9111871 19.2575,64.8411365 29.0698214,64.8411365 L31.9305357,64.8411365 C41.7428571,64.8411365 49.7257143,56.9111871 49.7257143,47.1638986 L49.7257143,17.6772378 C49.7257143,7.92994932 41.7428571,0 31.9305357,0 L31.9305357,0 Z M45.4330357,23.2117407 L37.6523214,23.2117407 C36.4667857,23.2117407 35.5058929,24.1662651 35.5058929,25.3439435 C35.5058929,26.5216218 36.4667857,27.4761462 37.6523214,27.4761462 L45.4330357,27.4761462 L45.4330357,33.411191 L37.6523214,33.411191 C36.4667857,33.411191 35.5058929,34.3657154 35.5058929,35.5433938 C35.5058929,36.7210721 36.4667857,37.6755965 37.6523214,37.6755965 L45.4330357,37.6755965 L45.4330357,43.6109961 L37.6523214,43.6109961 C36.4667857,43.6109961 35.5058929,44.5655205 35.5058929,45.7431988 C35.5058929,46.9208772 36.4667857,47.8754016 37.6523214,47.8754016 L45.41375,47.8754016 C45.0403571,54.9418265 39.1357143,60.5769084 31.9307143,60.5769084 L29.07,60.5769084 C21.865,60.5769084 15.9603571,54.9418265 15.5869643,47.8754016 L23.3483929,47.8754016 C24.5339286,47.8754016 25.4948214,46.9208772 25.4948214,45.7431988 C25.4948214,44.5655205 24.5339286,43.6109961 23.3483929,43.6109961 L15.5676786,43.6109961 L15.5676786,37.6755965 L23.3483929,37.6755965 C24.5339286,37.6755965 25.4948214,36.7210721 25.4948214,35.5433938 C25.4948214,34.3657154 24.5339286,33.411191 23.3483929,33.411191 L15.5676786,33.411191 L15.5676786,27.4761462 L23.3483929,27.4761462 C24.5339286,27.4761462 25.4948214,26.5216218 25.4948214,25.3439435 C25.4948214,24.1662651 24.5339286,23.2117407 23.3483929,23.2117407 L15.5676786,23.2117407 L15.5676786,17.6772378 C15.5676786,12.3619864 18.69625,7.75876998 23.2201786,5.58949318 L23.2201786,11.6176667 C23.2201786,12.795345 24.18125,13.7498694 25.3666071,13.7498694 C26.5519643,13.7498694 27.5130357,12.795345 27.5130357,11.6176667 L27.5130357,4.3562924 C28.0242857,4.297577 32.9764286,4.297577 33.4876786,4.3562924 L33.4876786,11.6176667 C33.4876786,12.795345 34.4485714,13.7498694 35.6341071,13.7498694 C36.8192857,13.7498694 37.7805357,12.795345 37.7805357,11.6176667 L37.7805357,5.58949318 C42.3044643,7.75876998 45.4330357,12.3616316 45.4330357,17.6770604 L45.4330357,23.2117407 L45.4330357,23.2117407 Z" id="Shape"></path>
                        </g>
                    </g>
                </g>
            </g>
        </g>
    </g>
</svg>