
<svg width="107px" height="110px" viewBox="0 0 107 110" version="1.1" xmlns="http://www.w3.org/2000/svg" xmlns:xlink="http://www.w3.org/1999/xlink">
    <!-- Generator: Sketch 43.1 (39012) - http://www.bohemiancoding.com/sketch -->
    <desc>Created with Sketch.</desc>
    <defs>
        <linearGradient x1="-2.09322245%" y1="74.4029881%" x2="91.7460291%" y2="41.2343832%" id="linearGradient-1">
            <stop stop-color="#0171F9" offset="0%"></stop>
            <stop stop-color="#00E3EF" offset="100%"></stop>
        </linearGradient>
    </defs>
    <g id="Page-1" stroke="none" stroke-width="1" fill="none" fill-rule="evenodd">
        <g id="HD-Platform-Copy" transform="translate(-903.000000, -656.000000)" fill="url(#linearGradient-1)">
            <g id="Perk" transform="translate(313.000000, 656.000000)">
                <g id="perk-2" transform="translate(429.000000, 0.000000)">
                    <g id="user" transform="translate(161.000000, 0.000000)">
                        <g id="Layer_1">
                            <path d="M40.0251037,57.4173387 C42.0674274,57.4173387 43.7545643,59.0806452 43.7545643,61.1431452 L47.7504149,61.1431452 C47.7504149,56.8850806 44.2873444,53.4254032 40.0251037,53.4254032 C35.7628631,53.4254032 32.2997925,56.8850806 32.2997925,61.1431452 L36.2956432,61.1431452 C36.2956432,59.1028226 37.9605809,57.4173387 40.0251037,57.4173387 L40.0251037,57.4173387 Z M99.2746888,67.1532258 L99.2746888,59.7681452 L92.1487552,59.7681452 C90.173029,40.8729839 74.1452282,26.0806452 54.7209544,26.0806452 L53.9439834,26.0806452 L53.9439834,12.108871 C56.3636929,11.2883065 58.0952282,8.98185484 58.0952282,6.2983871 C58.0952282,2.90524194 55.3425311,0.155241935 51.9460581,0.155241935 C48.5495851,0.155241935 45.796888,2.90524194 45.796888,6.2983871 C45.796888,8.98185484 47.5284232,11.2883065 49.9481328,12.108871 L49.9481328,26.125 C31.6338174,27.078629 16.7603734,41.1834677 14.5848548,59.1471774 L7.7253112,59.1471774 L7.7253112,66.5322581 L0.110995851,69.0383065 L0.110995851,87.9778226 L7.7253112,90.483871 L7.7253112,97.8689516 L14.3184647,97.8689516 L14.3184647,110 L18.3143154,110 L18.3143154,63.671371 C18.3143154,45.1310484 33.409751,30.0725806 51.9460581,30.0725806 L54.7209544,30.0725806 C73.2794606,30.0725806 88.3526971,45.1532258 88.3526971,63.671371 L88.3526971,110 L92.3485477,110 L92.3485477,98.5120968 L99.2746888,98.5120968 L99.2746888,91.1270161 L106.889004,88.6209677 L106.889004,69.6814516 L99.2746888,67.1532258 L99.2746888,67.1532258 Z M7.7253112,86.3145161 L4.10684647,85.1169355 L4.10684647,71.9435484 L7.7253112,70.7459677 L7.7253112,86.3145161 L7.7253112,86.3145161 Z M14.2962656,63.671371 L14.2962656,93.921371 L11.7211618,93.921371 L11.7211618,63.1391129 L14.3184647,63.1391129 C14.3184647,63.3165323 14.2962656,63.4939516 14.2962656,63.671371 L14.2962656,63.671371 Z M51.9460581,8.44959677 C50.7473029,8.44959677 49.7927386,7.47379032 49.7927386,6.2983871 C49.7927386,5.10080645 50.7695021,4.14717742 51.9460581,4.14717742 C53.1226141,4.14717742 54.0993776,5.12298387 54.0993776,6.2983871 C54.0993776,7.47379032 53.1226141,8.44959677 51.9460581,8.44959677 L51.9460581,8.44959677 Z M95.2788382,94.5201613 L92.3485477,94.5201613 L92.3485477,63.7600806 L95.2788382,63.7600806 L95.2788382,94.5201613 L95.2788382,94.5201613 Z M102.893154,85.7379032 L99.2746888,86.9354839 L99.2746888,71.3669355 L102.893154,72.5645161 L102.893154,85.7379032 L102.893154,85.7379032 Z M66.9304979,53.4254032 C62.6682573,53.4254032 59.2051867,56.8850806 59.2051867,61.1431452 L63.2010373,61.1431452 C63.2010373,59.1028226 64.8659751,57.4173387 66.9304979,57.4173387 C68.9950207,57.4173387 70.6599585,59.0806452 70.6599585,61.1431452 L74.6558091,61.1431452 C74.6558091,56.8850806 71.1927386,53.4254032 66.9304979,53.4254032 L66.9304979,53.4254032 Z M32.0112033,90.328629 L40.7354772,97.9133065 L65.9315353,97.9133065 L74.6558091,90.328629 L74.6558091,81.6572581 L32.0112033,81.6572581 L32.0112033,90.328629 L32.0112033,90.328629 Z M66.1979253,85.6491935 L70.6377593,85.6491935 L70.6377593,88.5100806 L66.1979253,92.3689516 L66.1979253,85.6491935 L66.1979253,85.6491935 Z M58.9609959,85.6491935 L62.2242739,85.6491935 L62.2242739,93.921371 L58.9609959,93.921371 L58.9609959,85.6491935 L58.9609959,85.6491935 Z M51.7018672,85.6491935 L54.9651452,85.6491935 L54.9651452,93.921371 L51.7018672,93.921371 L51.7018672,85.6491935 L51.7018672,85.6491935 Z M44.4427386,85.6491935 L47.7060166,85.6491935 L47.7060166,93.921371 L44.4427386,93.921371 L44.4427386,85.6491935 L44.4427386,85.6491935 Z M36.0070539,85.6491935 L40.446888,85.6491935 L40.446888,92.3689516 L36.0070539,88.5100806 L36.0070539,85.6491935 L36.0070539,85.6491935 Z" id="Shape"></path>
                        </g>
                    </g>
                </g>
            </g>
        </g>
    </g>
</svg>