
<svg width="116px" height="91px" viewBox="0 0 116 91" version="1.1" xmlns="http://www.w3.org/2000/svg" xmlns:xlink="http://www.w3.org/1999/xlink">
    <!-- Generator: Sketch 43.1 (39012) - http://www.bohemiancoding.com/sketch -->
    <desc>Created with Sketch.</desc>
    <defs></defs>
    <g id="Page-1" stroke="none" stroke-width="1" fill="none" fill-rule="evenodd">
        <g id="HD-Platform-Copy" transform="translate(-1327.000000, -733.000000)" fill="#12DFF1">
            <g id="Perk" transform="translate(313.000000, 656.000000)">
                <g id="Perk-3" transform="translate(857.000000, 77.000000)">
                    <g id="Hovered-icon" transform="translate(157.000000, 0.000000)">
                        <path d="M79.3,59 C79.2,59 68.7,59.3 67.1,48.1 C68.8,46.9 70.4,45.3 71.9,43.4 C74.6,39.7 76.4,35.1 77,30.1 C77.2,29.9 77.4,29.7 77.5,29.4 C78.6,26.7 79.2,23.8 79.2,20.8 C79.3,9.3 70.6,0 59.9,0 C57.1,0 54.4,0.6 51.8,1.9 C50.8,2 49.9,2.1 48.9,2.4 C44.5,3.7 40.9,6.9 38.8,11.5 C36.8,16 36.4,21.3 37.7,26.3 C38,27.4 38.3,28.4 38.7,29.4 C38.8,29.7 39,29.9 39.2,30.1 C40.2,37.9 44,44.4 49.1,47.9 C47.6,59.3 37.1,59 37,59 C29.5,59.2 23.4,65.4 23.4,73 L23.4,88.8 C23.4,89.9 24.3,90.8 25.5,90.8 L43.6,90.8 L72.9,90.8 L91,90.8 C92.1,90.8 93.1,89.9 93.1,88.8 L93.1,73 C93,65.4 86.9,59.2 79.3,59 L79.3,59 L79.3,59 Z M50.1,6.3 C50.9,6.1 51.7,6 52.5,6 C52.8,6 53.1,5.9 53.4,5.8 C55.5,4.7 57.7,4.2 60,4.2 C68.4,4.2 75.3,11.7 75.3,20.9 L75.3,21.7 C73.7,20.1 71.4,19 68.9,19 L54.9,19 C54.1,19 53.3,18.7 52.6,18.2 C52,17.8 51.6,17.2 51.3,16.6 C50.9,15.6 49.9,15 48.8,15 C47.7,15.1 46.8,15.8 46.5,16.9 C45.7,20 44.1,22.9 41.8,25.2 C39.7,16.7 43.4,8.3 50.1,6.3 L50.1,6.3 L50.1,6.3 Z M48.3,41.7 C45.6,38.4 43.9,34.1 43.3,29.3 C45.9,27 48,24.1 49.3,21 C49.5,21.2 49.7,21.4 49.9,21.5 C51.3,22.5 52.9,23.1 54.7,23.1 L68.7,23.1 C70.7,23.1 72.4,24.3 73.2,26 L73.2,26 C73.2,37.5 66.5,46.9 58.2,46.9 C54.6,46.9 51.1,45 48.3,41.7 L48.3,41.7 L48.3,41.7 Z M53.1,50.1 C54.7,50.7 56.4,51 58.2,51 C60,51 61.7,50.7 63.3,50.1 C64.1,54 66.2,57.4 69.3,59.7 L58.5,75 C58.4,75.1 58.3,75.2 58.2,75.2 C58.1,75.2 58,75.1 57.9,75 L47.1,59.7 C50.1,57.4 52.3,54 53.1,50.1 L53.1,50.1 L53.1,50.1 Z M88.9,86.7 L72.9,86.7 L43.5,86.7 L27.5,86.7 L27.5,73 C27.5,67.5 32,63.1 37.5,63.1 C37.6,63.1 40.9,63 43.5,61.8 L54.5,77.4 C55.3,78.6 56.7,79.3 58.2,79.3 L58.2,79.3 C59.7,79.3 61,78.6 61.9,77.4 L72.9,61.8 C75.9,63.1 78.8,63.1 78.9,63.1 C84.4,63.1 88.9,67.6 88.9,73 L88.9,86.7 L88.9,86.7 L88.9,86.7 Z" id="Shape"></path>
                        <path d="M24.7,87.2 L19.2,87.2 L4.5,87.2 L4.5,74.6 C4.5,69.6 8.6,65.5 13.7,65.5 C13.8,65.5 16.8,65.4 19.2,64.3 L22.5,62.4 C25.3,60.3 27.3,57.1 28,53.6 C29.5,54.1 31.1,54.4 32.7,54.4 C34.3,54.4 35.9,54.1 37.4,53.6 C37.8,55.8 38.7,57.8 40,59.5 L43.9,58.3 C42.5,56.8 41.4,54.7 41,51.7 C42.6,50.6 44.1,49.2 45.3,47.4 C46.3,46.1 47.1,44.7 47.8,43.2 L45,40 C42.6,46.4 38,50.7 32.6,50.7 C29.3,50.7 26.1,49 23.6,46 C21.1,43 19.5,39 19,34.6 C21.4,32.5 23.3,29.9 24.5,27 C24.7,27.2 24.9,27.3 25.1,27.5 C26.4,28.4 27.9,28.9 29.4,28.9 L39.8,28.9 L38.9,25.2 L29.4,25.2 C28.6,25.2 27.9,25 27.3,24.5 C26.8,24.1 26.4,23.6 26.1,23 C25.7,22.1 24.8,21.5 23.8,21.6 C22.8,21.7 22,22.4 21.7,23.3 C21,26.1 19.5,28.8 17.4,30.9 C15.5,23.2 18.9,15.5 25.1,13.7 C25.8,13.5 26.5,13.4 27.3,13.4 C27.6,13.4 27.8,13.3 28.1,13.2 C30,12.2 32,11.7 34.1,11.7 C36.2,11.7 38.2,12.2 40,13.1 L40.4,10.7 L41.4,9.5 C39.2,8.4 36.7,7.8 34.2,7.8 C31.6,7.8 29.2,8.4 26.8,9.5 C25.9,9.6 25,9.8 24.2,10 C20.2,11.2 16.9,14.1 15,18.3 C13.1,22.4 12.8,27.2 14,31.9 C14.3,32.9 14.6,33.9 15,34.8 C15.1,35.1 15.3,35.3 15.4,35.4 C16.3,42.6 19.8,48.5 24.4,51.7 C23,62 13.3,61.7 13.3,61.7 C6.4,61.9 0.8,67.6 0.8,74.5 L0.8,89 C0.8,90 1.6,90.9 2.7,90.9 L19.2,90.9 L24.5,90.9 L24.7,87.2 L24.7,87.2 Z" id="Shape"></path>
                        <path d="M103.1,61.8 C103,61.8 93.4,62.1 92,51.8 C93.6,50.7 95.1,49.3 96.4,47.5 C98.9,44.1 100.5,39.9 101.1,35.3 C101.3,35.1 101.5,34.9 101.6,34.6 C102.6,32.1 103.2,29.5 103.2,26.8 C103.2,16.3 95.2,7.8 85.4,7.8 C82.8,7.8 80.4,8.4 78,9.5 C77,9.6 76.1,9.8 75.3,10 C74.8,10.1 74.3,10.3 73.8,10.5 L75.3,13.9 C75.6,13.8 76,13.6 76.3,13.5 C77,13.3 77.7,13.2 78.5,13.2 C78.8,13.2 79,13.1 79.3,13 C81.2,12 83.2,11.5 85.3,11.5 C93,11.5 99.3,18.4 99.3,26.8 L99.3,27.6 C97.8,26.1 95.7,25.2 93.4,25.2 L80.6,25.2 C79.8,25.2 79.1,25 78.5,24.5 C78,24.1 77.6,23.6 77.3,23 C77.1,22.5 76.8,22.1 76.3,21.9 L75.7,27.2 C75.8,27.3 76,27.4 76.1,27.6 C77.4,28.5 78.9,29 80.5,29 L93.3,29 C95.1,29 96.7,30.1 97.4,31.6 L97.4,31.6 C97.4,42.2 91.2,50.8 83.6,50.8 C80.3,50.8 77.1,49.1 74.6,46.1 C73.1,44.2 71.9,41.9 71,39.4 L68.6,43.5 C70.2,47 72.6,50 75.4,51.9 C75,54.9 73.8,57 72.5,58.5 L76.2,59.8 C77.5,58 78.5,56 78.9,53.7 C80.4,54.2 82,54.5 83.6,54.5 C85.2,54.5 86.8,54.2 88.3,53.7 C89,57.3 91,60.4 93.8,62.5 L97.1,64.4 C99.8,65.6 102.5,65.6 102.6,65.6 C107.7,65.6 111.8,69.7 111.8,74.7 L111.8,87.3 L97.2,87.3 L91.1,87.3 L90.9,90.9 L89.5,91 L97.2,91 L113.8,91 C114.8,91 115.7,90.2 115.7,89.1 L115.7,74.7 C115.6,67.7 110,62.1 103.1,61.8 L103.1,61.8 Z" id="Shape"></path>
                    </g>
                </g>
            </g>
        </g>
    </g>
</svg>