
<svg width="95px" height="86px" viewBox="0 0 95 86" version="1.1" xmlns="http://www.w3.org/2000/svg" xmlns:xlink="http://www.w3.org/1999/xlink">
    <!-- Generator: Sketch 48.2 (47327) - http://www.bohemiancoding.com/sketch -->
    <desc>Created with Sketch.</desc>
    <defs>
        <linearGradient x1="0%" y1="81.3364253%" x2="78.829137%" y2="9.24919454%" id="linearGradient-1">
            <stop stop-color="#006DF9" offset="0%"></stop>
            <stop stop-color="#00E3EF" offset="100%"></stop>
        </linearGradient>
    </defs>
    <g id="Page-1" stroke="none" stroke-width="1" fill="none" fill-rule="evenodd">
        <g id="HD" transform="translate(-437.000000, -3250.000000)">
            <g id="Omni-Digital-section-Copy" transform="translate(254.534969, 3040.573595)">
                <g id="Help-me" transform="translate(0.000000, 156.332148)">
                    <g id="Group-11" transform="translate(89.929886, 52.993948)">
                        <g id="Group-8" transform="translate(92.614360, 0.000000)">
                            <path d="M11.8514245,22.0924038 C9.29771735,22.0924038 7.21954937,24.0660789 7.21954937,26.4913824 C7.21954937,28.916686 9.29771735,30.8903611 11.8514245,30.8903611 C14.4051317,30.8903611 16.4832996,28.916686 16.4832996,26.4913824 C16.4832996,24.0660789 14.4051317,22.0924038 11.8514245,22.0924038 L11.8514245,22.0924038 Z M11.8514245,27.9577086 C11.0007034,27.9577086 10.3074661,27.2993282 10.3074661,26.4913824 C10.3074661,25.6834367 11.0007034,25.0250562 11.8514245,25.0250562 C12.7021456,25.0250562 13.3953829,25.6834367 13.3953829,26.4913824 C13.3953829,27.2993282 12.7021456,27.9577086 11.8514245,27.9577086 L11.8514245,27.9577086 Z" id="Shape" fill="#606B77"></path>
                            <path d="M94.7727971,34.8597061 L92.5896399,32.7863209 L70.4955955,53.7694489 C70.4122218,53.680003 70.3458316,53.5788265 70.256282,53.4923132 L57.2654162,41.1546445 L59.2617544,39.2586847 L57.0785972,37.1852995 L52.4945848,41.538822 C50.038147,43.8702807 46.2353776,44.1928724 43.4053019,42.505131 L54.6252474,31.932919 C54.6267913,31.9314527 54.6267913,31.9299863 54.6283353,31.92852 L83.9635445,4.06832206 L81.7803873,1.99493681 L53.5383007,28.8169758 L51.5419625,26.921016 C51.2532423,26.6453467 50.8595329,26.4913824 50.4503839,26.4913824 L44.9137492,26.4913824 L42.2782122,23.9883636 L20.662795,3.45979669 L18.4796378,5.53318195 L32.827643,19.1597514 L13.0804154,37.9140636 L2.08743173,28.3433524 L0,30.5061836 L18.027258,46.1988067 L18.027258,49.9526018 C18.027258,50.3411782 18.1893736,50.7150914 18.4796378,50.9892944 L25.1572578,57.3311552 C24.5473942,58.1127071 24.2030915,59.0482232 24.2030915,60.0394598 C24.2030915,62.5087531 26.2750837,64.513221 28.8519502,64.5997343 C28.9414998,66.9927786 30.9640853,68.913666 33.4838253,68.9987129 C33.5733749,71.3917573 35.5959604,73.3126446 38.1157005,73.3976915 C38.206794,75.84499 40.3189291,77.8127997 42.917411,77.8127997 C43.5735933,77.8127997 44.2097042,77.6852293 44.7964084,77.4491508 L44.9137492,77.5605916 C46.0794378,78.6691342 47.6311159,79.2791259 49.2816074,79.2791259 C50.9320989,79.2791259 52.4822332,78.6691342 53.6479217,77.5605916 L70.256282,61.7873206 C71.4235145,60.678778 72.0658012,59.2065865 72.0658012,57.6405501 C72.0658012,57.2651706 72.0241143,56.8956564 71.9515483,56.5334738 L94.7727971,34.8597061 L94.7727971,34.8597061 Z M15.3592979,39.898003 L35.0108002,21.2331367 L39.0034765,25.0250562 L19.5248976,43.5242277 L15.3592979,39.898003 L15.3592979,39.898003 Z M30.2461446,61.2022564 C29.9188254,61.5116513 29.4849731,61.6832114 29.0217856,61.6832114 C28.0676193,61.6832114 27.2910083,60.9456494 27.2910083,60.0394598 C27.2910083,59.5995619 27.4716514,59.1875242 27.7974266,58.8766631 L35.1435806,51.899883 C35.4708998,51.5904881 35.9047521,51.418928 36.3679396,51.418928 C37.3221058,51.418928 38.0987169,52.1564901 38.0987169,53.0626797 C38.0987169,53.5025775 37.9180738,53.9146152 37.5922986,54.2254763 L30.2461446,61.2022564 L30.2461446,61.2022564 Z M34.8780197,65.6012351 C34.5507006,65.9106299 34.1168483,66.0821901 33.6536607,66.0821901 C32.6994945,66.0821901 31.9228834,65.344628 31.9228834,64.4384384 C31.9228834,63.9985405 32.1035265,63.5865029 32.4293018,63.2756417 L39.7754557,56.2988616 C40.1027749,55.9894668 40.5366272,55.8179066 40.9998147,55.8179066 C41.953981,55.8179066 42.730592,56.5554687 42.730592,57.4616583 C42.730592,57.9015561 42.5499489,58.3135938 42.2241737,58.624455 L34.8780197,65.6012351 L34.8780197,65.6012351 Z M39.5098949,70.0002137 C39.1825757,70.3096085 38.7487234,70.4811687 38.2855359,70.4811687 C37.3313696,70.4811687 36.5547585,69.7436066 36.5547585,68.837417 C36.5547585,68.3975191 36.7354017,67.9854815 37.0611769,67.6746203 L44.4073308,60.6978402 C44.73465,60.3884454 45.1685023,60.2168852 45.6316898,60.2168852 C46.5858561,60.2168852 47.3624672,60.9544473 47.3624672,61.8606369 C47.3624672,62.3005348 47.181824,62.7125724 46.8560488,63.0234336 L39.5098949,70.0002137 L39.5098949,70.0002137 Z M44.14177,74.3991923 C43.8144508,74.7085871 43.3805985,74.8801473 42.917411,74.8801473 C41.9632447,74.8801473 41.1866337,74.1425852 41.1866337,73.2363956 C41.1866337,72.7964978 41.3672768,72.3844601 41.693052,72.0735989 L49.039206,65.0968188 C49.3665251,64.787424 49.8003775,64.6158639 50.263565,64.6158639 C51.2177312,64.6158639 51.9943423,65.3534259 51.9943423,66.2596155 C51.9943423,66.6995134 51.8136992,67.1115511 51.487924,67.4224122 L44.14177,74.3991923 L44.14177,74.3991923 Z M68.0731248,59.7139353 L51.4647646,75.4872064 C50.3423068,76.5532255 48.4277985,76.582552 47.2451263,75.6001135 L53.6726251,69.4957975 C54.5804726,68.6321313 55.0822591,67.4825316 55.0822591,66.2596155 C55.0822591,63.7903222 53.0102669,61.7858543 50.4334004,61.699341 C50.3438508,59.3062967 48.3212653,57.3854093 45.8015253,57.3003624 C45.7119757,54.907318 43.6893902,52.9864307 41.1696501,52.9013838 C41.0785566,50.4540853 38.9664215,48.4862756 36.3679396,48.4862756 C35.0802783,48.4862756 33.8698149,48.9628316 32.9604234,49.8264977 L27.2910083,55.2108476 L21.1151748,49.3455427 L21.1151748,46.1606822 L41.1866337,27.0984415 L43.1829718,28.9944013 C43.4716921,29.2700706 43.8654015,29.4240349 44.2745504,29.4240349 L49.8111852,29.4240349 L51.3505117,30.8859621 L40.0024176,41.5798791 C39.7106095,41.8555484 39.5454059,42.2323943 39.5469499,42.6239034 C39.5484938,43.0154125 39.7136974,43.390792 40.0070495,43.664995 C44.066116,47.4627799 50.6495546,47.4393186 54.677742,43.6107409 L55.0822591,43.2280298 L68.0731248,55.5656985 C68.6567411,56.1199698 68.9778845,56.8560656 68.9778845,57.6405501 C68.9778845,58.4250346 68.6567411,59.159664 68.0731248,59.7139353 L68.0731248,59.7139353 Z" id="Shape" fill="#606B77"></path>
                            <path d="M10.7660218,61.5937655 L8.05637481,63.0014387 C8.56433712,63.8827007 9.1139863,64.7610301 9.68988277,65.610033 L12.2868208,64.0234681 C11.7495232,63.2316519 11.238473,62.4149082 10.7660218,61.5937655 L10.7660218,61.5937655 Z" id="Shape" fill="url(#linearGradient-1)"></path>
                            <path d="M32.7967638,79.7278218 L31.714449,82.4742507 C32.7041263,82.826169 33.7246828,83.1487608 34.7498712,83.4332281 L35.6175758,80.6193481 C34.6649535,80.353943 33.716963,80.0548125 32.7967638,79.7278218 L32.7967638,79.7278218 Z" id="Shape" fill="url(#linearGradient-1)"></path>
                            <path d="M22.3781327,74.3156117 L20.5238387,76.6617337 C21.3730158,77.2673264 22.257704,77.8509242 23.1501119,78.3963976 L24.8206749,75.9300369 C23.9900253,75.4212217 23.1670954,74.878681 22.3781327,74.3156117 L22.3781327,74.3156117 Z" id="Shape" fill="url(#linearGradient-1)"></path>
                            <path d="M27.3821018,77.3773008 L25.8999018,79.949237 C26.8293647,80.4316583 27.7912508,80.8906184 28.7593127,81.3114541 L30.04543,78.645673 C29.1437583,78.2526976 28.2482625,77.8259967 27.3821018,77.3773008 L27.3821018,77.3773008 Z" id="Shape" fill="url(#linearGradient-1)"></path>
                            <path d="M17.880582,70.6116717 L15.6958809,72.6835906 C16.4462446,73.3976915 17.2336634,74.0941965 18.0349778,74.7540433 L20.0591072,72.5384244 C19.3118314,71.9240337 18.5799951,71.2744512 17.880582,70.6116717 L17.880582,70.6116717 Z" id="Shape" fill="url(#linearGradient-1)"></path>
                            <path d="M13.9820871,66.3417298 L11.5117537,68.1013212 C12.1509524,68.9107333 12.8256622,69.7054821 13.5173556,70.4635728 L15.8502767,68.5412191 C15.20799,67.8359162 14.579599,67.0954215 13.9820871,66.3417298 L13.9820871,66.3417298 Z" id="Shape" fill="url(#linearGradient-1)"></path>
                            <path d="M5.78058016,45.4524466 L2.7003832,45.660665 C2.7744932,46.6650984 2.88874612,47.6797961 3.03851009,48.6783643 L6.09554767,48.2648603 C5.95659142,47.3337432 5.85005829,46.3879628 5.78058016,45.4524466 L5.78058016,45.4524466 Z" id="Shape" fill="url(#linearGradient-1)"></path>
                            <path d="M2.7003832,39.5915408 C2.62472924,40.5886426 2.58767424,41.6077393 2.58767424,42.6209707 L2.58767424,42.6253697 L5.67559099,42.6209707 C5.67559099,41.6766567 5.71110204,40.7264773 5.78058016,39.7997591 L2.7003832,39.5915408 L2.7003832,39.5915408 Z" id="Shape" fill="url(#linearGradient-1)"></path>
                            <path d="M6.62049352,51.0435485 L3.60359885,51.6667371 C3.82901678,52.6535746 4.09457762,53.6433448 4.39256158,54.6081875 L7.35541771,53.7841122 C7.07904916,52.8852542 6.83201582,51.962935 6.62049352,51.0435485 L6.62049352,51.0435485 Z" id="Shape" fill="url(#linearGradient-1)"></path>
                            <path d="M8.2941444,56.4630901 L5.4007664,57.4895185 C5.77131641,58.4308999 6.18200934,59.3737477 6.62358144,60.2902015 L9.43204173,59.0716845 C9.0213488,58.2168163 8.63844712,57.3399532 8.2941444,56.4630901 L8.2941444,56.4630901 Z" id="Shape" fill="url(#linearGradient-1)"></path>
                            <path d="M85.2928926,59.0702181 C84.8791118,59.9265526 84.4298199,60.7770218 83.9558247,61.5996308 L86.6654716,63.007304 C87.1734339,62.1245756 87.6566929,61.2110544 88.099809,60.2916679 L85.2928926,59.0702181 L85.2928926,59.0702181 Z" id="Shape" fill="url(#linearGradient-1)"></path>
                            <path d="M82.4350257,64.0307997 C81.8977282,64.8226158 81.3249196,65.6027014 80.7335835,66.3519941 L83.2039169,68.1130519 C83.8400278,67.3095051 84.4545232,66.4693002 85.0319637,65.618831 L82.4350257,64.0307997 L82.4350257,64.0307997 Z" id="Shape" fill="url(#linearGradient-1)"></path>
                            <path d="M78.862306,68.5514834 C78.2153874,69.2611853 77.5329578,69.9576902 76.8335447,70.6204697 L79.0151579,72.6953213 C79.7670656,71.9826867 80.5004458,71.2348604 81.1952271,70.4738371 L78.862306,68.5514834 L78.862306,68.5514834 Z" id="Shape" fill="url(#linearGradient-1)"></path>
                            <path d="M87.3726046,53.7767805 C87.0931481,54.6785711 86.7781806,55.5803618 86.4338779,56.4572248 L89.3257119,57.4836532 C89.6978059,56.5408054 90.0359328,55.5700975 90.3354607,54.6008558 L87.3726046,53.7767805 L87.3726046,53.7767805 Z" id="Shape" fill="url(#linearGradient-1)"></path>
                            <path d="M88.6309306,48.2575287 C88.4904304,49.1901121 88.3128752,50.1256283 88.1044408,51.0391495 L91.1228795,51.6594055 C91.3467534,50.6784332 91.5366603,49.6739998 91.6864243,48.6710327 L88.6309306,48.2575287 L88.6309306,48.2575287 Z" id="Shape" fill="url(#linearGradient-1)"></path>
                            <path d="M74.6534754,72.5486886 C73.9092875,73.161613 73.1295885,73.7584078 72.3359939,74.3244097 L74.188744,76.6705316 C75.039465,76.0649389 75.8762905,75.4241543 76.6760609,74.7657739 L74.6534754,72.5486886 L74.6534754,72.5486886 Z" id="Shape" fill="url(#linearGradient-1)"></path>
                            <path d="M38.50169,81.3173194 L37.8485957,84.1825208 C38.8815038,84.3951381 39.9391153,84.5754962 40.9951828,84.7177298 L41.4305791,81.8158703 C40.4486216,81.6824346 39.4635761,81.5138071 38.50169,81.3173194 L38.50169,81.3173194 Z" id="Shape" fill="url(#linearGradient-1)"></path>
                            <path d="M89.0493434,42.6209707 C89.0493434,43.5638185 89.0153763,44.5154642 88.9458981,45.4465813 L92.0260951,45.6533333 C92.1002051,44.6518325 92.1372601,43.6312695 92.1372601,42.6209707 L89.0493434,42.6209707 L89.0493434,42.6209707 Z" id="Shape" fill="url(#linearGradient-1)"></path>
                            <path d="M53.3020751,81.8129376 C52.3232054,81.944907 51.3273523,82.0460835 50.3407629,82.1120682 L50.560005,85.037389 C51.6176165,84.9670053 52.6860357,84.8584972 53.7374713,84.7162635 L53.3020751,81.8129376 L53.3020751,81.8129376 Z" id="Shape" fill="url(#linearGradient-1)"></path>
                            <path d="M47.3624672,82.2117783 C46.3697019,82.2117783 45.3707609,82.1795192 44.3903473,82.1135345 L44.1726492,85.0388553 C45.2256288,85.1092389 46.3002238,85.1444308 47.3640111,85.1444308 L47.3624672,82.2117783 L47.3624672,82.2117783 Z" id="Shape" fill="url(#linearGradient-1)"></path>
                            <path d="M69.8949957,75.9359022 C69.067434,76.4417847 68.2074492,76.9271387 67.3382007,77.3787672 L68.8204007,79.9521697 C69.7529516,79.4668157 70.6762387,78.9462699 71.5655587,78.4022629 L69.8949957,75.9359022 L69.8949957,75.9359022 Z" id="Shape" fill="url(#linearGradient-1)"></path>
                            <path d="M64.6810483,78.6442067 C63.7809206,79.0342495 62.8576334,79.3993647 61.9358903,79.7248891 L63.0151172,82.4727844 C64.0063385,82.1208661 64.9991037,81.7308234 65.9640777,81.3114541 L64.6810483,78.6442067 L64.6810483,78.6442067 Z" id="Shape" fill="url(#linearGradient-1)"></path>
                            <path d="M59.1135344,80.6178818 C58.1670879,80.8803542 57.197482,81.1149663 56.2278762,81.315853 L56.8840585,84.1810544 C57.9231425,83.9669708 58.9653144,83.7147627 59.981239,83.4317618 L59.1135344,80.6178818 L59.1135344,80.6178818 Z" id="Shape" fill="url(#linearGradient-1)"></path>
                            <path d="M65.3727416,3.81611396 L64.0125143,6.44963583 C64.8694112,6.84847656 65.7510114,7.2986387 66.6326117,7.78692533 L68.1889217,5.25311364 C67.2424752,4.72963518 66.2944848,4.24574754 65.3727416,3.81611396 L65.3727416,3.81611396 Z" id="Shape" fill="url(#linearGradient-1)"></path>
                            <path d="M47.3624672,0.0975106928 L46.7170926,0.101909671 L46.7618674,3.03456209 L47.3624672,3.03016311 C48.1776772,3.03016311 48.9743597,3.04775902 49.7525147,3.08295085 L49.8976468,0.153231089 C49.0716291,0.116572934 48.2286278,0.0975106928 47.3624672,0.0975106928 L47.3624672,0.0975106928 Z" id="Shape" fill="url(#linearGradient-1)"></path>
                            <path d="M59.3806392,1.5975624 L58.5144785,4.41290872 C59.4485734,4.67244846 60.3873,4.97597799 61.3044113,5.31616567 L62.429957,2.58586627 C61.427928,2.21341941 60.4027396,1.88202969 59.3806392,1.5975624 L59.3806392,1.5975624 Z" id="Shape" fill="url(#linearGradient-1)"></path>
                            <path d="M53.079745,0.398107566 L52.7215467,3.31023141 C53.7189438,3.42167221 54.7039893,3.56830483 55.6488918,3.74719662 L56.2510356,0.870264605 C55.2273911,0.676709545 54.1605159,0.518346315 53.079745,0.398107566 L53.079745,0.398107566 Z" id="Shape" fill="url(#linearGradient-1)"></path>
                            <path d="M31.1061294,2.98617332 C30.1164521,3.35275487 29.1298627,3.75746091 28.1726085,4.19002714 L29.4957808,6.8396786 C30.3881888,6.43790522 31.308388,6.05959306 32.2301311,5.71793905 L31.1061294,2.98617332 L31.1061294,2.98617332 Z" id="Shape" fill="url(#linearGradient-1)"></path>
                            <path d="M37.2124848,1.19578902 C36.1764887,1.42453591 35.1374047,1.68994095 34.126112,1.98760518 L35.0385914,4.78975456 C35.9788621,4.51261891 36.94538,4.26480978 37.910354,4.05219248 L37.2124848,1.19578902 L37.2124848,1.19578902 Z" id="Shape" fill="url(#linearGradient-1)"></path>
                            <path d="M43.5257306,0.251474945 C42.4650312,0.337988191 41.396612,0.459693266 40.3513522,0.616590171 L40.8330672,3.51405076 C41.804217,3.36741814 42.7985262,3.25304469 43.7866596,3.17386308 L43.5257306,0.251474945 L43.5257306,0.251474945 Z" id="Shape" fill="url(#linearGradient-1)"></path>
                        </g>
                    </g>
                </g>
            </g>
        </g>
    </g>
</svg>
