
<svg width="85px" height="84px" viewBox="0 0 85 84" version="1.1" xmlns="http://www.w3.org/2000/svg" xmlns:xlink="http://www.w3.org/1999/xlink">
    <!-- Generator: Sketch 48.2 (47327) - http://www.bohemiancoding.com/sketch -->
    <desc>Created with Sketch.</desc>
    <defs>
        <linearGradient x1="0%" y1="81.3364253%" x2="78.829137%" y2="9.24919454%" id="linearGradient-1">
            <stop stop-color="#006DF9" offset="0%"></stop>
            <stop stop-color="#00E3EF" offset="100%"></stop>
        </linearGradient>
    </defs>
    <g id="Page-1" stroke="none" stroke-width="1" fill="none" fill-rule="evenodd">
        <g id="HD" transform="translate(-1384.000000, -3617.000000)">
            <g id="Omni-Digital-section-Copy" transform="translate(254.534969, 3040.573595)">
                <g id="Monitor" transform="translate(934.197020, 523.315240)">
                    <g id="Group-13" transform="translate(91.272123, 52.993948)">
                        <g id="Group-7" transform="translate(103.352257, 0.000000)">
                            <path d="M82.2793494,36.7692776 L82.2793494,81.2546303 L76.6765208,81.2546303 L76.6765208,42.3299467 L73.8751065,42.3299467 L73.8751065,81.2546303 L68.2722779,81.2546303 L68.2722779,47.8906158 L65.4708635,47.8906158 L65.4708635,81.2546303 L59.8680349,81.2546303 L59.8680349,47.8906158 L57.0666206,47.8906158 L57.0666206,81.2546303 L51.463792,81.2546303 L51.463792,47.8906158 L48.6623777,47.8906158 L48.6623777,81.2546303 L43.059549,81.2546303 L43.059549,47.8906158 L40.2581347,47.8906158 L40.2581347,81.2546303 L34.6553061,81.2546303 L34.6553061,56.2316194 L31.8538918,56.2316194 L31.8538918,81.2546303 L26.2510632,81.2546303 L26.2510632,59.0119539 L23.4496489,59.0119539 L23.4496489,81.2546303 L17.8468202,81.2546303 L17.8468202,64.572623 L15.0454059,64.572623 L15.0454059,81.2546303 L9.4425773,81.2546303 L9.4425773,68.7431248 L6.64116298,68.7431248 L6.64116298,81.2546303 L3.83974867,81.2546303 L3.83974867,0.624928636 L1.03833436,0.624928636 L1.03833436,82.6447975 C1.03833436,83.41356 1.66585116,84.0349648 2.43904151,84.0349648 L8.04187014,84.0349648 L16.4461131,84.0349648 L24.850356,84.0349648 L33.254599,84.0349648 L41.6588419,84.0349648 L50.0630848,84.0349648 L58.4673278,84.0349648 L66.8715707,84.0349648 L75.2758136,84.0349648 L83.6800566,84.0349648 C84.4532469,84.0349648 85.0807637,83.41356 85.0807637,82.6447975 L85.0807637,36.7692776 L82.2793494,36.7692776 L82.2793494,36.7692776 Z" id="Shape" fill="#606B77"></path>
                            <path d="M82.6505368,20.5349043 L66.258061,38.1594449 L41.6588419,38.1594449 C41.2610411,38.1594449 40.8828501,38.326265 40.6181165,38.6195903 L28.9138075,51.5259032 L21.5446871,45.4314099 C21.2575422,45.1936913 20.8863548,45.0838681 20.5151674,45.1158419 C20.14398,45.1505961 19.8008067,45.3313178 19.5640872,45.6190825 L6.9577228,60.9109224 L9.12601748,62.6708742 L20.83733,48.4647549 L28.1560249,54.5175432 C28.7331163,54.9957607 29.590349,54.9332032 30.0932029,54.3785264 L42.2821566,40.9397794 L66.8715707,40.9397794 C67.262368,40.9397794 67.6349561,40.77852 67.9010905,40.4935358 L84.7095763,22.4213613 L82.6505368,20.5349043 L82.6505368,20.5349043 Z" id="Shape" fill="url(#linearGradient-1)"></path>
                            <rect id="Rectangle-path" fill="#606B77" x="45.8609634" y="0.624928636" width="5.60282862" height="2.78033454"></rect>
                            <rect id="Rectangle-path" fill="#606B77" x="57.0666206" y="0.624928636" width="23.8120217" height="2.78033454"></rect>
                            <rect id="Rectangle-path" fill="#606B77" x="45.8609634" y="7.57576498" width="5.60282862" height="2.78033454"></rect>
                            <rect id="Rectangle-path" fill="#606B77" x="57.0666206" y="7.57576498" width="23.8120217" height="2.78033454"></rect>
                            <rect id="Rectangle-path" fill="#606B77" x="45.8609634" y="14.5266013" width="5.60282862" height="2.78033454"></rect>
                            <rect id="Rectangle-path" fill="#606B77" x="57.0666206" y="14.5266013" width="23.8120217" height="2.78033454"></rect>
                            <path d="M25.6907803,17.5849693 L15.0972321,9.69994057 C15.4151926,7.71200137 17.1548709,6.18559771 19.2475274,6.18559771 C21.564297,6.18559771 23.4496489,8.05676286 23.4496489,10.3560995 L26.2510632,10.3560995 C26.2510632,7.00023573 23.8404462,4.19209785 20.6482345,3.54567007 L20.6482345,0.624928636 L17.8468202,0.624928636 L17.8468202,3.54567007 C14.6546086,4.19209785 12.2439916,7.00023573 12.2439916,10.3560995 C12.2439916,10.792612 12.4512963,11.2054917 12.8042745,11.4682333 L23.3978227,19.3532621 C23.0798622,21.3412013 21.3401839,22.8676049 19.2475274,22.8676049 C16.9307578,22.8676049 15.0454059,20.9964398 15.0454059,18.6971031 L12.2439916,18.6971031 C12.2439916,22.0529669 14.6546086,24.8611048 17.8468202,25.5075326 L17.8468202,28.428274 L20.6482345,28.428274 L20.6482345,25.5075326 C23.8404462,24.8611048 26.2510632,22.0543571 26.2510632,18.6971031 C26.2510632,18.2605906 26.0437585,17.8477109 25.6907803,17.5849693 L25.6907803,17.5849693 Z" id="Shape" fill="url(#linearGradient-1)"></path>
                        </g>
                    </g>
                </g>
            </g>
        </g>
    </g>
</svg>
