
<svg width="85px" height="84px" viewBox="0 0 85 84" version="1.1" xmlns="http://www.w3.org/2000/svg" xmlns:xlink="http://www.w3.org/1999/xlink">
    <!-- Generator: Sketch 48.2 (47327) - http://www.bohemiancoding.com/sketch -->
    <desc>Created with Sketch.</desc>
    <defs>
        <linearGradient x1="0%" y1="81.3364253%" x2="78.829137%" y2="9.24919454%" id="linearGradient-1">
            <stop stop-color="#006DF9" offset="0%"></stop>
            <stop stop-color="#00E3EF" offset="100%"></stop>
        </linearGradient>
    </defs>
    <g id="Page-1" stroke="none" stroke-width="1" fill="none" fill-rule="evenodd">
        <g id="HD" transform="translate(-906.000000, -3617.000000)">
            <g id="Omni-Digital-section-Copy" transform="translate(254.534969, 3040.573595)">
                <g id="Real-time-A" transform="translate(467.098510, 523.315240)">
                    <g id="Group-16" transform="translate(89.929886, 52.993948)">
                        <g id="Group-5" transform="translate(93.956597, 0.000000)">
                            <path d="M81.7475196,81.2546303 L81.7475196,21.4774377 C81.7475196,20.7100653 81.1214035,20.0872704 80.3468125,20.0872704 L69.1411552,20.0872704 C68.3665642,20.0872704 67.7404481,20.7100653 67.7404481,21.4774377 L67.7404481,81.2546303 L60.7369123,81.2546303 L60.7369123,29.8184413 C60.7369123,29.051069 60.1107962,28.428274 59.3362051,28.428274 L48.1305479,28.428274 C47.3559568,28.428274 46.7298407,29.051069 46.7298407,29.8184413 L46.7298407,81.2546303 L38.3255978,81.2546303 L38.3255978,38.1594449 C38.3255978,37.3920726 37.6994817,36.7692776 36.9248906,36.7692776 L25.7192334,36.7692776 C24.9446423,36.7692776 24.3185262,37.3920726 24.3185262,38.1594449 L24.3185262,81.2546303 L17.3149904,81.2546303 L17.3149904,46.5004485 C17.3149904,45.7330762 16.6888743,45.1102813 15.9142833,45.1102813 L4.70862603,45.1102813 C3.93403498,45.1102813 3.30791888,45.7330762 3.30791888,46.5004485 L3.30791888,81.2546303 L0.506504565,81.2546303 L0.506504565,84.0349648 L4.70862603,84.0349648 L15.9142833,84.0349648 L25.7192334,84.0349648 L36.9248906,84.0349648 L48.1305479,84.0349648 L59.3362051,84.0349648 L69.1411552,84.0349648 L80.3468125,84.0349648 L84.5489339,84.0349648 L84.5489339,81.2546303 L81.7475196,81.2546303 L81.7475196,81.2546303 Z M14.5135761,81.2546303 L6.10933319,81.2546303 L6.10933319,47.8906158 L14.5135761,47.8906158 L14.5135761,81.2546303 L14.5135761,81.2546303 Z M35.5241835,81.2546303 L27.1199405,81.2546303 L27.1199405,39.5496122 L35.5241835,39.5496122 L35.5241835,81.2546303 L35.5241835,81.2546303 Z M57.935498,81.2546303 L49.531255,81.2546303 L49.531255,31.2086086 L57.935498,31.2086086 L57.935498,81.2546303 L57.935498,81.2546303 Z M78.9461053,81.2546303 L70.5418624,81.2546303 L70.5418624,22.8676049 L78.9461053,22.8676049 L78.9461053,81.2546303 L78.9461053,81.2546303 Z" id="Shape" fill="#606B77"></path>
                            <path d="M74.7439838,0.624928636 C72.4272142,0.624928636 70.5418624,2.49609378 70.5418624,4.79543044 C70.5418624,4.85103713 70.5558694,4.90386349 70.5586709,4.95947018 L56.8737619,10.3922439 C56.1019723,9.52477949 54.9870094,8.96593225 53.7333765,8.96593225 C51.4166069,8.96593225 49.531255,10.8370974 49.531255,13.1364341 C49.531255,13.3797133 49.5634713,13.6146516 49.6040918,13.8468095 L34.0702494,22.518673 C33.3320768,21.879196 32.3767945,21.4774377 31.322062,21.4774377 C29.0052924,21.4774377 27.1199405,23.3486028 27.1199405,25.6479395 C27.1199405,25.8592449 27.1521568,26.0608192 27.1829724,26.2637836 L13.1338796,33.6997883 C12.385902,33.0227768 11.4012048,32.5987758 10.3114547,32.5987758 C7.99468502,32.5987758 6.10933319,34.469941 6.10933319,36.7692776 C6.10933319,39.0686143 7.99468502,40.9397794 10.3114547,40.9397794 C12.6282243,40.9397794 14.5135761,39.0686143 14.5135761,36.7692776 C14.5135761,36.5579722 14.4813599,36.356398 14.4505443,36.1534335 L28.4996371,28.7174288 C29.2476147,29.3944403 30.2323118,29.8184413 31.322062,29.8184413 C33.6388316,29.8184413 35.5241835,27.9472761 35.5241835,25.6479395 C35.5241835,25.4046602 35.4919672,25.1697219 35.4513467,24.937564 L50.9851891,16.2657006 C51.7233617,16.9051775 52.678644,17.3069359 53.7333765,17.3069359 C55.653746,17.3069359 57.2603571,16.0140803 57.7590089,14.2652499 L57.7660124,14.26664 C57.7730159,14.241617 57.7758174,14.2179842 57.7828209,14.1929612 C57.8178386,14.0636756 57.8472534,13.9343901 57.868264,13.7995438 C57.9088845,13.5729466 57.935498,13.3505198 57.935498,13.1364341 C57.935498,13.0794372 57.9340973,13.0238305 57.9312958,12.9668337 L71.6035984,7.53962063 C72.375388,8.40708501 73.4903509,8.96593225 74.7439838,8.96593225 C77.0607535,8.96593225 78.9461053,7.09476711 78.9461053,4.79543044 C78.9461053,2.49609378 77.0607535,0.624928636 74.7439838,0.624928636 L74.7439838,0.624928636 Z M10.3114547,38.1594449 C9.53826431,38.1594449 8.9107475,37.5352598 8.9107475,36.7692776 C8.9107475,36.0032955 9.53826431,35.3791104 10.3114547,35.3791104 C11.084645,35.3791104 11.7121618,36.0032955 11.7121618,36.7692776 C11.7121618,37.5352598 11.084645,38.1594449 10.3114547,38.1594449 L10.3114547,38.1594449 Z M31.322062,27.0381068 C30.5488717,27.0381068 29.9213548,26.4139216 29.9213548,25.6479395 C29.9213548,24.8819573 30.5488717,24.2577722 31.322062,24.2577722 C31.8613343,24.2577722 32.3165641,24.57195 32.5504822,25.0154134 C32.589702,25.0877021 32.613514,25.1572104 32.637326,25.2239385 C32.6807479,25.3601749 32.7227692,25.4978014 32.7227692,25.6479395 C32.7227692,26.4139216 32.0952524,27.0381068 31.322062,27.0381068 L31.322062,27.0381068 Z M53.7333765,14.5266013 C52.9601862,14.5266013 52.3326693,13.9024162 52.3326693,13.1364341 C52.3326693,12.3704519 52.9601862,11.7462668 53.7333765,11.7462668 C54.5065669,11.7462668 55.1340837,12.3704519 55.1340837,13.1364341 C55.1340837,13.9024162 54.5065669,14.5266013 53.7333765,14.5266013 L53.7333765,14.5266013 Z M74.7439838,6.18559771 C73.9707935,6.18559771 73.3432767,5.56141261 73.3432767,4.79543044 C73.3432767,4.02944828 73.9707935,3.40526317 74.7439838,3.40526317 C75.5171742,3.40526317 76.144691,4.02944828 76.144691,4.79543044 C76.144691,5.56141261 75.5171742,6.18559771 74.7439838,6.18559771 L74.7439838,6.18559771 Z" id="Shape" fill="url(#linearGradient-1)"></path>
                        </g>
                    </g>
                </g>
            </g>
        </g>
    </g>
</svg>
