
<svg width="96px" height="96px" viewBox="0 0 96 96" version="1.1" xmlns="http://www.w3.org/2000/svg" xmlns:xlink="http://www.w3.org/1999/xlink">
    <!-- Generator: Sketch 48.2 (47327) - http://www.bohemiancoding.com/sketch -->
    <desc>Created with Sketch.</desc>
    <defs>
        <linearGradient x1="0%" y1="81.3364253%" x2="78.829137%" y2="9.24919454%" id="linearGradient-1">
            <stop stop-color="#006DF9" offset="0%"></stop>
            <stop stop-color="#00E3EF" offset="100%"></stop>
        </linearGradient>
    </defs>
    <g id="Page-1" stroke="none" stroke-width="1" fill="none" fill-rule="evenodd">
        <g id="HD" transform="translate(-438.000000, -3612.000000)">
            <g id="Omni-Digital-section-Copy" transform="translate(254.534969, 3040.573595)">
                <g id="Scaleable" transform="translate(0.000000, 523.315240)">
                    <g id="Group-10" transform="translate(64.427381, 49.019402)">
                        <g id="Group-9" transform="translate(119.459102, 0.000000)">
                            <path d="M17.4081307,23.5597363 L31.6511467,23.5597363 L31.6511467,20.4184381 L17.4081307,20.4184381 C13.0450201,20.4184381 9.49534402,23.941404 9.49534402,28.2716835 L9.49534402,52.7518201 L4.28398271,47.5796727 L2.04624664,49.8005705 L9.95903332,57.6538159 C10.267632,57.9600925 10.6727667,58.1140161 11.0779014,58.1140161 C11.483036,58.1140161 11.8881707,57.9600925 12.1967694,57.6538159 L20.1095561,49.8005705 L17.87182,47.5796727 L12.6604587,52.7518201 L12.6604587,28.2716835 C12.6604587,25.6738299 14.7905809,23.5597363 17.4081307,23.5597363 L17.4081307,23.5597363 Z" id="Shape" fill="url(#linearGradient-1)"></path>
                            <path d="M82.2929815,31.4129817 L82.2929815,76.9618051 C82.2929815,79.5596587 80.1628593,81.6737523 77.5453095,81.6737523 L68.7051442,81.6737523 L73.9165055,76.5016049 L71.6787694,74.2807071 L63.7659828,82.1339525 C63.1472028,82.7480763 63.1472028,83.7407265 63.7659828,84.3548503 L71.6787694,92.2080957 L73.9165055,89.9871979 L68.7051442,84.8150505 L77.5453095,84.8150505 C81.9084201,84.8150505 85.4580962,81.2920846 85.4580962,76.9618051 L85.4580962,31.4129817 L82.2929815,31.4129817 L82.2929815,31.4129817 Z" id="Shape" fill="url(#linearGradient-1)"></path>
                            <path d="M89.7468266,13.069371 C91.0017945,11.6777759 91.7883255,9.86210559 91.7883255,7.85324542 C91.7883255,3.52296589 88.2386494,0 83.8755388,0 C79.5124283,0 75.9627522,3.52296589 75.9627522,7.85324542 C75.9627522,9.86210559 76.7492831,11.6777759 78.0042511,13.069371 C75.4088571,14.0149018 73.4496511,16.2499354 72.9416502,19.0064246 C72.2864715,18.489681 71.5569125,18.073459 70.7561385,17.7813183 C72.0111065,16.3897232 72.7976375,14.5740528 72.7976375,12.5651927 C72.7976375,8.23491314 69.2479614,4.71194725 64.8848508,4.71194725 C60.5217402,4.71194725 56.9720641,8.23491314 56.9720641,12.5651927 C56.9720641,14.5740528 57.7585951,16.3897232 59.0135631,17.7813183 C58.2127891,18.0718884 57.4832301,18.489681 56.8280514,19.0064246 C56.3200505,16.2499354 54.3608445,14.0149018 51.7654505,13.069371 C53.0204184,11.6777759 53.8069494,9.86210559 53.8069494,7.85324542 C53.8069494,3.52296589 50.2572733,0 45.8941628,0 C41.5310522,0 37.9813761,3.52296589 37.9813761,7.85324542 C37.9813761,9.86210559 38.7679071,11.6777759 40.022875,13.069371 C36.9954429,14.1719667 34.8162614,17.03526 34.8162614,20.4184381 L34.8162614,26.7010344 C34.8162614,27.5696034 35.5236645,28.2716835 36.3988187,28.2716835 L53.8069494,28.2716835 L53.8069494,31.4129817 C53.8069494,32.2815506 54.5143526,32.9836308 55.3895068,32.9836308 L74.3801948,32.9836308 C75.255349,32.9836308 75.9627522,32.2815506 75.9627522,31.4129817 L75.9627522,28.2716835 L93.3708829,28.2716835 C94.2460371,28.2716835 94.9534402,27.5696034 94.9534402,26.7010344 L94.9534402,20.4184381 C94.9534402,17.03526 92.7742587,14.1719667 89.7468266,13.069371 L89.7468266,13.069371 Z M45.8941628,3.14129817 C48.5117126,3.14129817 50.6418348,5.25539183 50.6418348,7.85324542 C50.6418348,10.451099 48.5117126,12.5651927 45.8941628,12.5651927 C43.2766129,12.5651927 41.1464907,10.451099 41.1464907,7.85324542 C41.1464907,5.25539183 43.2766129,3.14129817 45.8941628,3.14129817 L45.8941628,3.14129817 Z M53.8069494,25.1303853 L37.9813761,25.1303853 L37.9813761,20.4184381 C37.9813761,17.8205845 40.1114983,15.7064908 42.7290481,15.7064908 L49.0592774,15.7064908 C51.6768273,15.7064908 53.8069494,17.8205845 53.8069494,20.4184381 L53.8069494,25.1303853 L53.8069494,25.1303853 Z M64.8848508,7.85324542 C67.5024006,7.85324542 69.6325228,9.96733908 69.6325228,12.5651927 C69.6325228,15.1630463 67.5024006,17.2771399 64.8848508,17.2771399 C62.267301,17.2771399 60.1371788,15.1630463 60.1371788,12.5651927 C60.1371788,9.96733908 62.267301,7.85324542 64.8848508,7.85324542 L64.8848508,7.85324542 Z M72.7976375,26.7010344 L72.7976375,29.8423326 L56.9720641,29.8423326 L56.9720641,26.7010344 L56.9720641,25.1303853 C56.9720641,22.5325317 59.1021863,20.4184381 61.7197361,20.4184381 L68.0499655,20.4184381 C70.6675153,20.4184381 72.7976375,22.5325317 72.7976375,25.1303853 L72.7976375,26.7010344 L72.7976375,26.7010344 Z M83.8755388,3.14129817 C86.4930887,3.14129817 88.6232108,5.25539183 88.6232108,7.85324542 C88.6232108,10.451099 86.4930887,12.5651927 83.8755388,12.5651927 C81.257989,12.5651927 79.1278668,10.451099 79.1278668,7.85324542 C79.1278668,5.25539183 81.257989,3.14129817 83.8755388,3.14129817 L83.8755388,3.14129817 Z M91.7883255,25.1303853 L75.9627522,25.1303853 L75.9627522,20.4184381 C75.9627522,17.8205845 78.0928743,15.7064908 80.7104242,15.7064908 L87.0406535,15.7064908 C89.6582033,15.7064908 91.7883255,17.8205845 91.7883255,20.4184381 L91.7883255,25.1303853 L91.7883255,25.1303853 Z" id="Shape" fill="#606B77"></path>
                            <path d="M54.9305652,74.3246853 C56.1855331,72.9330902 56.9720641,71.1174198 56.9720641,69.1085597 C56.9720641,64.7782801 53.422388,61.2553143 49.0592774,61.2553143 C44.6961669,61.2553143 41.1464907,64.7782801 41.1464907,69.1085597 C41.1464907,71.1174198 41.9330217,72.9330902 43.1879897,74.3246853 C40.5925957,75.270216 38.6333897,77.5052497 38.1253888,80.2617388 C37.4702101,79.7449953 36.7406511,79.3287733 35.9398771,79.0366325 C37.1948451,77.6450374 37.9813761,75.8293671 37.9813761,73.8205069 C37.9813761,69.4902274 34.4317,65.9672615 30.0685894,65.9672615 C25.7054788,65.9672615 22.1558027,69.4902274 22.1558027,73.8205069 C22.1558027,75.8293671 22.9423337,77.6450374 24.1973017,79.0366325 C23.3965277,79.3272026 22.6669687,79.7449953 22.01179,80.2617388 C21.5037891,77.5052497 19.5445831,75.270216 16.9491891,74.3246853 C18.204157,72.9330902 18.990688,71.1174198 18.990688,69.1085597 C18.990688,64.7782801 15.4410119,61.2553143 11.0779014,61.2553143 C6.71479078,61.2553143 3.16511467,64.7782801 3.16511467,69.1085597 C3.16511467,71.1174198 3.95164567,72.9330902 5.20661364,74.3246853 C2.17918145,75.4272809 0,78.2905742 0,81.6737523 L0,87.9563487 C0,88.8249176 0.707403129,89.5269978 1.58255734,89.5269978 L18.990688,89.5269978 L18.990688,92.6682959 C18.990688,93.5368649 19.6980912,94.238945 20.5732454,94.238945 L39.5639334,94.238945 C40.4390876,94.238945 41.1464907,93.5368649 41.1464907,92.6682959 L41.1464907,89.5269978 L58.5546215,89.5269978 C59.4297757,89.5269978 60.1371788,88.8249176 60.1371788,87.9563487 L60.1371788,81.6737523 C60.1371788,78.2905742 57.9579973,75.4272809 54.9305652,74.3246853 L54.9305652,74.3246853 Z M11.0779014,64.3966124 C13.6954512,64.3966124 15.8255734,66.5107061 15.8255734,69.1085597 C15.8255734,71.7064133 13.6954512,73.8205069 11.0779014,73.8205069 C8.46035152,73.8205069 6.33022935,71.7064133 6.33022935,69.1085597 C6.33022935,66.5107061 8.46035152,64.3966124 11.0779014,64.3966124 L11.0779014,64.3966124 Z M18.990688,86.3856996 L3.16511467,86.3856996 L3.16511467,81.6737523 C3.16511467,79.0758987 5.29523685,76.9618051 7.91278668,76.9618051 L14.243016,76.9618051 C16.8605659,76.9618051 18.990688,79.0758987 18.990688,81.6737523 L18.990688,86.3856996 L18.990688,86.3856996 Z M30.0685894,69.1085597 C32.6861392,69.1085597 34.8162614,71.2226533 34.8162614,73.8205069 C34.8162614,76.4183605 32.6861392,78.5324542 30.0685894,78.5324542 C27.4510396,78.5324542 25.3209174,76.4183605 25.3209174,73.8205069 C25.3209174,71.2226533 27.4510396,69.1085597 30.0685894,69.1085597 L30.0685894,69.1085597 Z M37.9813761,87.9563487 L37.9813761,91.0976468 L22.1558027,91.0976468 L22.1558027,87.9563487 L22.1558027,86.3856996 C22.1558027,83.787846 24.2859249,81.6737523 26.9034747,81.6737523 L33.2337041,81.6737523 C35.8512539,81.6737523 37.9813761,83.787846 37.9813761,86.3856996 L37.9813761,87.9563487 L37.9813761,87.9563487 Z M49.0592774,64.3966124 C51.6768273,64.3966124 53.8069494,66.5107061 53.8069494,69.1085597 C53.8069494,71.7064133 51.6768273,73.8205069 49.0592774,73.8205069 C46.4417276,73.8205069 44.3116054,71.7064133 44.3116054,69.1085597 C44.3116054,66.5107061 46.4417276,64.3966124 49.0592774,64.3966124 L49.0592774,64.3966124 Z M56.9720641,86.3856996 L41.1464907,86.3856996 L41.1464907,81.6737523 C41.1464907,79.0758987 43.2766129,76.9618051 45.8941628,76.9618051 L52.2243921,76.9618051 C54.8419419,76.9618051 56.9720641,79.0758987 56.9720641,81.6737523 L56.9720641,86.3856996 L56.9720641,86.3856996 Z" id="Shape" fill="#606B77"></path>
                        </g>
                    </g>
                </g>
            </g>
        </g>
    </g>
</svg>
