
<svg width="94px" height="60px" viewBox="0 0 94 60" version="1.1" xmlns="http://www.w3.org/2000/svg" xmlns:xlink="http://www.w3.org/1999/xlink">
    <!-- Generator: Sketch 48.2 (47327) - http://www.bohemiancoding.com/sketch -->
    <desc>Created with Sketch.</desc>
    <defs>
        <linearGradient x1="0%" y1="81.3364253%" x2="78.829137%" y2="9.24919454%" id="linearGradient-1">
            <stop stop-color="#006DF9" offset="0%"></stop>
            <stop stop-color="#00E3EF" offset="100%"></stop>
        </linearGradient>
    </defs>
    <g id="Page-1" stroke="none" stroke-width="1" fill="none" fill-rule="evenodd">
        <g id="HD" transform="translate(-1378.000000, -3261.000000)">
            <g id="Omni-Digital-section-Copy" transform="translate(254.534969, 3040.573595)">
                <g id="Call-routing" transform="translate(934.197020, 156.332148)">
                    <g id="Group-12" transform="translate(91.272123, 64.917587)">
                        <g id="Group-6" transform="translate(97.983308, 0.000000)">
                            <path d="M34.474396,41.1071281 C29.3653163,41.1071281 25.2104256,45.0530119 25.2104256,49.9050854 C25.2104256,54.7571588 29.3653163,58.7030426 34.474396,58.7030426 C39.5834757,58.7030426 43.7383664,54.7571588 43.7383664,49.9050854 C43.7383664,45.0530119 39.5834757,41.1071281 34.474396,41.1071281 L34.474396,41.1071281 Z M34.474396,55.7703902 C31.0683429,55.7703902 28.2984157,53.139801 28.2984157,49.9050854 C28.2984157,46.6703698 31.0683429,44.0397805 34.474396,44.0397805 C37.8804491,44.0397805 40.6503763,46.6703698 40.6503763,49.9050854 C40.6503763,53.139801 37.8804491,55.7703902 34.474396,55.7703902 L34.474396,55.7703902 Z" id="Shape" fill="#606B77"></path>
                            <path d="M34.474396,0.0499942909 C29.3653163,0.0499942909 25.2104256,3.99587812 25.2104256,8.84795154 C25.2104256,13.700025 29.3653163,17.6459088 34.474396,17.6459088 C39.5834757,17.6459088 43.7383664,13.700025 43.7383664,8.84795154 C43.7383664,3.99587812 39.5834757,0.0499942909 34.474396,0.0499942909 L34.474396,0.0499942909 Z M34.474396,14.7132564 C31.0683429,14.7132564 28.2984157,12.0826672 28.2984157,8.84795154 C28.2984157,5.61323592 31.0683429,2.98264671 34.474396,2.98264671 C37.8804491,2.98264671 40.6503763,5.61323592 40.6503763,8.84795154 C40.6503763,12.0826672 37.8804491,14.7132564 34.474396,14.7132564 L34.474396,14.7132564 Z" id="Shape" fill="#606B77"></path>
                            <path d="M9.77047496,41.1071281 C4.66139529,41.1071281 0.506504565,45.0530119 0.506504565,49.9050854 C0.506504565,54.7571588 4.66139529,58.7030426 9.77047496,58.7030426 C14.8795546,58.7030426 19.0344454,54.7571588 19.0344454,49.9050854 C19.0344454,45.0530119 14.8795546,41.1071281 9.77047496,41.1071281 L9.77047496,41.1071281 Z M9.77047496,55.7703902 C6.36442184,55.7703902 3.5944947,53.139801 3.5944947,49.9050854 C3.5944947,46.6703698 6.36442184,44.0397805 9.77047496,44.0397805 C13.1765281,44.0397805 15.9464552,46.6703698 15.9464552,49.9050854 C15.9464552,53.139801 13.1765281,55.7703902 9.77047496,55.7703902 L9.77047496,55.7703902 Z" id="Shape" fill="#606B77"></path>
                            <path d="M9.77047496,0.0499942909 C4.66139529,0.0499942909 0.506504565,3.99587812 0.506504565,8.84795154 C0.506504565,13.700025 4.66139529,17.6459088 9.77047496,17.6459088 C14.8795546,17.6459088 19.0344454,13.700025 19.0344454,8.84795154 C19.0344454,3.99587812 14.8795546,0.0499942909 9.77047496,0.0499942909 L9.77047496,0.0499942909 Z M9.77047496,14.7132564 C6.36442184,14.7132564 3.5944947,12.0826672 3.5944947,8.84795154 C3.5944947,5.61323592 6.36442184,2.98264671 9.77047496,2.98264671 C13.1765281,2.98264671 15.9464552,5.61323592 15.9464552,8.84795154 C15.9464552,12.0826672 13.1765281,14.7132564 9.77047496,14.7132564 L9.77047496,14.7132564 Z" id="Shape" fill="#606B77"></path>
                            <path d="M59.1783171,20.5785612 C54.0692374,20.5785612 49.9143467,24.524445 49.9143467,29.3765185 C49.9143467,34.2285919 54.0692374,38.1744757 59.1783171,38.1744757 C64.2873967,38.1744757 68.4422874,34.2285919 68.4422874,29.3765185 C68.4422874,24.524445 64.2873967,20.5785612 59.1783171,20.5785612 L59.1783171,20.5785612 Z M59.1783171,35.2418233 C55.7722639,35.2418233 53.0023368,32.6112341 53.0023368,29.3765185 C53.0023368,26.1418028 55.7722639,23.5112136 59.1783171,23.5112136 C62.5843702,23.5112136 65.3542973,26.1418028 65.3542973,29.3765185 C65.3542973,32.6112341 62.5843702,35.2418233 59.1783171,35.2418233 L59.1783171,35.2418233 Z" id="Shape" fill="#606B77"></path>
                            <path d="M59.1783171,41.1071281 C54.0692374,41.1071281 49.9143467,45.0530119 49.9143467,49.9050854 C49.9143467,54.7571588 54.0692374,58.7030426 59.1783171,58.7030426 C64.2873967,58.7030426 68.4422874,54.7571588 68.4422874,49.9050854 C68.4422874,45.0530119 64.2873967,41.1071281 59.1783171,41.1071281 L59.1783171,41.1071281 Z M59.1783171,55.7703902 C55.7722639,55.7703902 53.0023368,53.139801 53.0023368,49.9050854 C53.0023368,46.6703698 55.7722639,44.0397805 59.1783171,44.0397805 C62.5843702,44.0397805 65.3542973,46.6703698 65.3542973,49.9050854 C65.3542973,53.139801 62.5843702,55.7703902 59.1783171,55.7703902 L59.1783171,55.7703902 Z" id="Shape" fill="#606B77"></path>
                            <path d="M88.5142233,32.0335015 L88.5142233,13.2469302 L88.5142233,2.98264671 L88.5142233,1.5163205 C88.5142233,1.01923591 88.2502001,0.557343159 87.8117055,0.28607281 C87.3732109,0.0162687881 86.8204607,-0.0247883458 86.3433662,0.176098345 L72.4474106,6.04140318 C71.8884844,6.2774817 71.5302776,6.80096015 71.5302776,7.38162533 C71.5302776,7.96229051 71.8884844,8.48576897 72.4474106,8.72184749 L85.4262332,14.2000422 L85.4262332,30.974814 C84.9228908,30.8941661 84.4087404,30.8428447 83.8822381,30.8428447 C81.9414363,30.8428447 80.1395941,31.4147119 78.6496388,32.3883525 L67.1607715,13.2923863 C67.969825,11.9858896 68.4422874,10.4697083 68.4422874,8.84795154 C68.4422874,3.99587812 64.2873967,0.0499942909 59.1783171,0.0499942909 C54.0692374,0.0499942909 49.9143467,3.99587812 49.9143467,8.84795154 C49.9143467,10.3084124 50.2972574,11.6838264 50.9627193,12.8964782 L39.0199175,21.7178967 C37.6750978,20.9964642 36.1264707,20.5785612 34.474396,20.5785612 C29.8933626,20.5785612 26.0889588,23.7560901 25.3493852,27.9101922 L18.8954858,27.9101922 C18.1574562,23.7560901 14.3530523,20.5785612 9.77047496,20.5785612 C4.66139529,20.5785612 0.506504565,24.524445 0.506504565,29.3765185 C0.506504565,34.2285919 4.66139529,38.1744757 9.77047496,38.1744757 C14.3515083,38.1744757 18.1559122,34.9969468 18.8954858,30.8428447 L25.3509292,30.8428447 C26.0889588,34.9969468 29.8933626,38.1744757 34.47594,38.1744757 C39.5850197,38.1744757 43.7399104,34.2285919 43.7399104,29.3765185 C43.7399104,27.1770291 42.8799051,25.1681622 41.4702376,23.6241207 L52.8278654,15.2352685 C54.4861161,16.7250559 56.7187329,17.6459088 59.1783171,17.6459088 C61.395494,17.6459088 63.4320235,16.9010151 65.0285144,15.6619694 L76.3645261,34.5027949 L76.3845981,34.4910643 C75.2790976,35.9412609 74.6182677,37.7169819 74.6182677,39.6408019 C74.6182677,44.4928753 78.7731584,48.4387592 83.8822381,48.4387592 C88.9913178,48.4387592 93.1462085,44.4928753 93.1462085,39.6408019 C93.1462085,36.3928894 91.2779745,33.5570145 88.5142233,32.0335015 L88.5142233,32.0335015 Z M9.77047496,35.2418233 C6.36442184,35.2418233 3.5944947,32.6112341 3.5944947,29.3765185 C3.5944947,26.1418028 6.36442184,23.5112136 9.77047496,23.5112136 C13.1765281,23.5112136 15.9464552,26.1418028 15.9464552,29.3765185 C15.9464552,32.6112341 13.1765281,35.2418233 9.77047496,35.2418233 L9.77047496,35.2418233 Z M34.474396,35.2418233 C31.0683429,35.2418233 28.2984157,32.6112341 28.2984157,29.3765185 C28.2984157,26.1418028 31.0683429,23.5112136 34.474396,23.5112136 C37.8804491,23.5112136 40.6503763,26.1418028 40.6503763,29.3765185 C40.6503763,32.6112341 37.8804491,35.2418233 34.474396,35.2418233 L34.474396,35.2418233 Z M59.1783171,14.7132564 C55.7722639,14.7132564 53.0023368,12.0826672 53.0023368,8.84795154 C53.0023368,5.61323592 55.7722639,2.98264671 59.1783171,2.98264671 C62.5843702,2.98264671 65.3542973,5.61323592 65.3542973,8.84795154 C65.3542973,12.0826672 62.5843702,14.7132564 59.1783171,14.7132564 L59.1783171,14.7132564 Z M76.8755885,7.38162533 L85.4262332,3.77299653 L85.4262332,10.9902541 L76.8755885,7.38162533 L76.8755885,7.38162533 Z M83.8822381,45.5061067 C80.476185,45.5061067 77.7062578,42.8755175 77.7062578,39.6408019 C77.7062578,36.4060863 80.476185,33.7754971 83.8822381,33.7754971 C84.4180044,33.7754971 84.9290668,33.860544 85.4262332,33.9837154 L85.4262332,39.6408019 L88.5142233,39.6408019 L88.5142233,35.8019599 C89.4637803,36.8327872 90.0582184,38.1656777 90.0582184,39.6408019 C90.0582184,42.8755175 87.2882912,45.5061067 83.8822381,45.5061067 L83.8822381,45.5061067 Z" id="Shape" fill="url(#linearGradient-1)"></path>
                            <rect id="Rectangle-path" fill="#606B77" x="76.1622628" y="51.3714116" width="3.08799013" height="2.93265242"></rect>
                            <rect id="Rectangle-path" fill="#606B77" x="82.338243" y="51.3714116" width="3.08799013" height="2.93265242"></rect>
                            <rect id="Rectangle-path" fill="#606B77" x="88.5142233" y="51.3714116" width="3.08799013" height="2.93265242"></rect>
                        </g>
                    </g>
                </g>
            </g>
        </g>
    </g>
</svg>
