
<svg width="118px" height="92px" viewBox="0 0 118 92" version="1.1" xmlns="http://www.w3.org/2000/svg" xmlns:xlink="http://www.w3.org/1999/xlink">
    <!-- Generator: Sketch 48.2 (47327) - http://www.bohemiancoding.com/sketch -->
    <desc>Created with Sketch.</desc>
    <defs>
        <linearGradient x1="0%" y1="81.3364253%" x2="78.829137%" y2="9.24919454%" id="linearGradient-1">
            <stop stop-color="#006DF9" offset="0%"></stop>
            <stop stop-color="#00E3EF" offset="100%"></stop>
        </linearGradient>
    </defs>
    <g id="Page-1" stroke="none" stroke-width="1" fill="none" fill-rule="evenodd">
        <g id="HD" transform="translate(-888.000000, -3244.000000)">
            <g id="Omni-Digital-section-Copy" transform="translate(254.534969, 3040.573595)">
                <g id="V-Conc" transform="translate(467.098510, 156.332148)">
                    <g id="Group-15" transform="translate(89.929886, 47.694553)">
                        <g id="Group-4" transform="translate(76.165277, 0.000000)">
                            <path d="M106.418625,88.5074959 L102.110879,80.3283283 C99.7423906,75.8281732 94.9807098,73.0333554 89.6832628,73.0333554 L81.8768237,73.0333554 C76.3879212,73.0333554 71.8516637,69.1241297 71.1676739,64.0858329 C76.6751043,60.6839561 80.3328286,54.7966564 80.3328286,48.1058099 L80.3328286,30.5098954 C80.3328286,24.8513425 75.4846841,20.2456119 69.5248632,20.2456119 L34.0129767,20.2456119 C33.1606914,20.2456119 32.4689816,20.9010597 32.4689816,21.7119381 C32.4689816,24.3835845 33.7288816,26.7810278 35.7160032,28.3969193 C35.6140995,28.5904744 35.5569717,28.8118896 35.5569717,29.0435692 C35.5569717,32.2035021 37.344918,35.0950974 40.1889569,36.6552685 L40.1889569,48.1058099 C40.1889569,54.7966564 43.8466812,60.6839561 49.3541116,64.0858329 C48.6701218,69.1241297 44.1338643,73.0333554 38.6449619,73.0333554 L30.8385228,73.0333554 C25.5410757,73.0333554 20.777851,75.8281732 18.4093625,80.3283283 L14.1031603,88.5074959 C13.9966246,88.7098489 13.9410408,88.9356631 13.9410408,89.1629437 L13.9410408,90.6292699 L17.0290309,90.6292699 L17.0290309,89.5089967 L21.1731137,81.6392239 C23.0150998,78.1391033 26.719144,75.9660078 30.8385228,75.9660078 L38.6449619,75.9660078 C45.2980366,75.9660078 50.8687708,71.5010445 52.2213105,65.560957 C54.6855266,66.5888517 57.4014139,67.1680506 60.2608928,67.1680506 C63.1203716,67.1680506 65.836259,66.5888517 68.3004751,65.560957 C69.6530148,71.5010445 75.223749,75.9660078 81.8768237,75.9660078 L89.6832628,75.9660078 C93.8026416,75.9660078 97.5066857,78.1391033 99.3502159,81.6392239 L103.492755,89.5089967 L103.492755,90.6292699 L106.580745,90.6292699 L106.580745,89.1629437 C106.580745,88.9356631 106.525161,88.7098489 106.418625,88.5074959 L106.418625,88.5074959 Z M60.2608928,64.2353982 C50.8965627,64.2353982 43.2769471,56.9990783 43.2769471,48.1058099 L43.2769471,35.7564105 C43.2769471,35.174279 42.9141082,34.6464016 42.352094,34.4132557 C40.5857637,33.6786263 39.3104237,32.225497 38.8425932,30.5098954 L41.732952,30.5098954 C42.5852373,30.5098954 43.2769471,29.8544476 43.2769471,29.0435692 C43.2769471,28.2326908 42.5852373,27.577243 41.732952,27.577243 C38.8611212,27.577243 36.4401369,25.7062107 35.7515151,23.1782643 L69.5248632,23.1782643 C73.7816576,23.1782643 77.2448385,26.467234 77.2448385,30.5098954 L77.2448385,48.1058099 C77.2448385,56.9990783 69.6252229,64.2353982 60.2608928,64.2353982 L60.2608928,64.2353982 Z" id="Shape" fill="#606B77"></path>
                            <path d="M67.8187486,88.5074959 L63.4585066,80.2256855 L66.128074,76.8458035 C66.4801049,76.4015067 66.5356887,75.8076446 66.2747536,75.31056 C66.0138184,74.8134754 65.4780521,74.4996816 64.892878,74.4996816 L55.6289076,74.4996816 C55.0437335,74.4996816 54.5095112,74.8134754 54.247032,75.31056 C53.9845528,75.8076446 54.0432247,76.4015067 54.3937115,76.8458035 L57.063279,80.2256855 L52.7030369,88.5074959 C52.5965013,88.7098489 52.5409175,88.9356631 52.5409175,89.1629437 L52.5409175,90.6292699 L55.6289076,90.6292699 L55.6289076,89.5089967 L59.1553923,82.8122849 C59.4441194,83.1055501 59.8316622,83.2976389 60.2608928,83.2976389 C60.6901234,83.2976389 61.0776662,83.1055501 61.3663932,82.8122849 L64.892878,89.5089967 L64.892878,90.6292699 L67.9808681,90.6292699 L67.9808681,89.1629437 C67.9808681,88.9356631 67.9252843,88.7098489 67.8187486,88.5074959 L67.8187486,88.5074959 Z M60.2608928,79.3869469 L58.7168977,77.432334 L61.8048878,77.432334 L60.2608928,79.3869469 L60.2608928,79.3869469 Z" id="Shape" fill="url(#linearGradient-1)"></path>
                            <path d="M65.3452685,8.94463583 L61.8048878,12.3069218 L61.8048878,2.64969742 L58.7168977,2.64969742 L58.7168977,12.3069218 L55.176517,8.94463583 L52.993308,11.0180211 L59.1692883,16.8833259 C59.4703673,17.1692595 59.86563,17.3129595 60.2608928,17.3129595 C60.6561555,17.3129595 61.0514183,17.1692595 61.3524973,16.8833259 L67.5284776,11.0180211 L65.3452685,8.94463583 L65.3452685,8.94463583 Z" id="Shape" fill="#606B77"></path>
                            <path d="M98.8607694,37.8415264 L88.6920179,37.8415264 L92.2323986,34.4792404 L90.0491896,32.4058552 L83.8732093,38.27116 C83.2695072,38.8444935 83.2695072,39.7712117 83.8732093,40.3445452 L90.0491896,46.2098501 L92.2323986,44.1364648 L88.6920179,40.7741788 L98.8607694,40.7741788 L98.8607694,37.8415264 L98.8607694,37.8415264 Z" id="Shape" fill="#606B77"></path>
                            <path d="M36.6485762,38.27116 L30.472596,32.4058552 L28.289387,34.4792404 L31.8297676,37.8415264 L21.6610161,37.8415264 L21.6610161,40.7741788 L31.8297676,40.7741788 L28.289387,44.1364648 L30.472596,46.2098501 L36.6485762,40.3445452 C37.2522783,39.7712117 37.2522783,38.8444935 36.6485762,38.27116 L36.6485762,38.27116 Z" id="Shape" fill="#606B77"></path>
                            <rect id="Rectangle-path" fill="#606B77" x="101.94876" y="37.8415264" width="3.08799013" height="2.93265242"></rect>
                            <rect id="Rectangle-path" fill="#606B77" x="15.4850359" y="37.8415264" width="3.08799013" height="2.93265242"></rect>
                            <path d="M52.5409175,36.3752002 C49.1348643,36.3752002 46.3649372,39.0057894 46.3649372,42.240505 C46.3649372,45.4752206 49.1348643,48.1058099 52.5409175,48.1058099 C55.9469706,48.1058099 58.7168977,45.4752206 58.7168977,42.240505 C58.7168977,39.0057894 55.9469706,36.3752002 52.5409175,36.3752002 L52.5409175,36.3752002 Z M49.4529273,42.240505 C49.4529273,40.6231472 50.8378909,39.3078526 52.5409175,39.3078526 C54.243944,39.3078526 55.6289076,40.6231472 55.6289076,42.240505 C55.6289076,43.8578628 54.243944,45.1731575 52.5409175,45.1731575 C50.8378909,45.1731575 49.4529273,43.8578628 49.4529273,42.240505 Z" id="Shape" fill="#606B77"></path>
                            <path d="M67.9808681,36.3752002 C64.574815,36.3752002 61.8048878,39.0057894 61.8048878,42.240505 C61.8048878,45.4752206 64.574815,48.1058099 67.9808681,48.1058099 C71.3869212,48.1058099 74.1568484,45.4752206 74.1568484,42.240505 C74.1568484,39.0057894 71.3869212,36.3752002 67.9808681,36.3752002 L67.9808681,36.3752002 Z M67.9808681,45.1731575 C66.2778416,45.1731575 64.892878,43.8578628 64.892878,42.240505 C64.892878,40.6231472 66.2778416,39.3078526 67.9808681,39.3078526 C69.6838947,39.3078526 71.0688582,40.6231472 71.0688582,42.240505 C71.0688582,43.8578628 69.6838947,45.1731575 67.9808681,45.1731575 L67.9808681,45.1731575 Z" id="Shape" fill="#606B77"></path>
                            <path d="M112.686656,0 L94.1587155,0 C91.6049477,0 89.5267303,1.97367508 89.5267303,4.39897862 L89.5267303,13.1969359 C89.5267303,15.6222394 91.6049477,17.5959145 94.1587155,17.5959145 L94.1587155,20.5285669 C94.1587155,21.0564443 94.4582506,21.5432646 94.941521,21.8042707 C95.1777523,21.9318411 95.4402315,21.9948931 95.7027106,21.9948931 C95.9775417,21.9948931 96.2523729,21.9245095 96.4978681,21.7852085 L103.850373,17.5959145 L112.686656,17.5959145 C115.240424,17.5959145 117.318642,15.6222394 117.318642,13.1969359 L117.318642,4.39897862 C117.318642,1.97367508 115.240424,0 112.686656,0 L112.686656,0 Z M114.230651,13.1969359 C114.230651,14.0063479 113.537398,14.6632621 112.686656,14.6632621 L103.422686,14.6632621 C103.143223,14.6632621 102.868392,14.7351121 102.627528,14.8729467 L97.2467057,17.9375685 L97.2467057,16.1295883 C97.2467057,15.3187099 96.5549959,14.6632621 95.7027106,14.6632621 L94.1587155,14.6632621 C93.3079743,14.6632621 92.6147205,14.0063479 92.6147205,13.1969359 L92.6147205,4.39897862 C92.6147205,3.58956656 93.3079743,2.93265242 94.1587155,2.93265242 L112.686656,2.93265242 C113.537398,2.93265242 114.230651,3.58956656 114.230651,4.39897862 L114.230651,13.1969359 L114.230651,13.1969359 Z" id="Shape" fill="#606B77"></path>
                            <rect id="Rectangle-path" fill="#606B77" x="95.7027106" y="7.33163104" width="3.08799013" height="2.93265242"></rect>
                            <rect id="Rectangle-path" fill="#606B77" x="101.878691" y="7.33163104" width="3.08799013" height="2.93265242"></rect>
                            <rect id="Rectangle-path" fill="#606B77" x="108.054671" y="7.33163104" width="3.08799013" height="2.93265242"></rect>
                            <path d="M23.8134288,55.4491715 L24.989953,49.859536 C25.1181046,49.2495443 24.8278335,48.6292883 24.2658193,48.3110955 C23.7038051,47.9914364 22.9920234,48.0456905 22.488681,48.4445312 L13.6539412,55.4374409 L4.94889707,55.4374409 C2.39512923,55.4374409 0.316911869,57.411116 0.316911869,59.8364195 L0.316911869,65.7017244 C0.316911869,68.1270279 2.39512923,70.100703 4.94889707,70.100703 L23.4768379,70.100703 C26.0306057,70.100703 28.108823,68.1270279 28.108823,65.7017244 L28.108823,59.8364195 C28.108823,57.5181578 26.2112531,55.6134001 23.8134288,55.4491715 L23.8134288,55.4491715 Z M25.0208329,65.7017244 C25.0208329,66.5111364 24.3275791,67.1680506 23.4768379,67.1680506 L4.94889707,67.1680506 C4.09815578,67.1680506 3.404902,66.5111364 3.404902,65.7017244 L3.404902,59.8364195 C3.404902,59.0270075 4.09815578,58.3700933 4.94889707,58.3700933 L14.2128675,58.3700933 C14.5741623,58.3700933 14.9231052,58.2498546 15.2010243,58.031372 L21.1052614,53.3581903 L20.4197276,56.6163672 C20.3286319,57.0474671 20.4459755,57.4946966 20.7393346,57.8334179 C21.0326937,58.1721393 21.4696443,58.3700933 21.9328428,58.3700933 L23.4768379,58.3700933 C24.3275791,58.3700933 25.0208329,59.0270075 25.0208329,59.8364195 L25.0208329,65.7017244 L25.0208329,65.7017244 Z" id="Shape" fill="#606B77"></path>
                            <rect id="Rectangle-path" fill="#606B77" x="18.8448527" y="61.3027457" width="3.08799013" height="2.93265242"></rect>
                            <rect id="Rectangle-path" fill="#606B77" x="12.6688724" y="61.3027457" width="3.08799013" height="2.93265242"></rect>
                            <rect id="Rectangle-path" fill="#606B77" x="6.49289213" y="61.3027457" width="3.08799013" height="2.93265242"></rect>
                            <path d="M67.9808681,52.5047885 C67.9808681,54.930092 65.9026508,56.9037671 63.3488829,56.9037671 L63.3488829,59.8364195 C67.6056773,59.8364195 71.0688582,56.5474498 71.0688582,52.5047885 L67.9808681,52.5047885 L67.9808681,52.5047885 Z" id="Shape" fill="#606B77"></path>
                            <path d="M30.9249865,2.64969742 L18.573026,2.64969742 C16.0192582,2.64969742 13.9410408,4.62337249 13.9410408,7.04867604 L13.9410408,12.9139809 C13.9410408,15.3392844 16.0192582,17.3129595 18.573026,17.3129595 L21.2333295,17.3129595 L28.585834,21.5022535 C28.8313292,21.6415545 29.1061603,21.7119381 29.3809915,21.7119381 C29.6434706,21.7119381 29.9059498,21.6488861 30.142181,21.5213157 C30.6254515,21.2603096 30.9249865,20.7734893 30.9249865,20.2456119 L30.9249865,17.3129595 C33.4787544,17.3129595 35.5569717,15.3392844 35.5569717,12.9139809 L35.5569717,7.04867604 C35.5569717,4.62337249 33.4787544,2.64969742 30.9249865,2.64969742 L30.9249865,2.64969742 Z M32.4689816,12.9139809 C32.4689816,13.7233929 31.7757278,14.3803071 30.9249865,14.3803071 L29.3809915,14.3803071 C28.5287062,14.3803071 27.8369964,15.0357549 27.8369964,15.8466333 L27.8369964,17.6546135 L22.4561736,14.5885254 C22.2153104,14.4521571 21.9404792,14.3803071 21.6610161,14.3803071 L18.573026,14.3803071 C17.7222847,14.3803071 17.0290309,13.7233929 17.0290309,12.9139809 L17.0290309,7.04867604 C17.0290309,6.23926397 17.7222847,5.58234983 18.573026,5.58234983 L30.9249865,5.58234983 C31.7757278,5.58234983 32.4689816,6.23926397 32.4689816,7.04867604 L32.4689816,12.9139809 L32.4689816,12.9139809 Z" id="Shape" fill="url(#linearGradient-1)"></path>
                            <rect id="Rectangle-path" fill="url(#linearGradient-1)" x="26.2930013" y="8.51500225" width="3.08799013" height="2.93265242"></rect>
                            <rect id="Rectangle-path" fill="url(#linearGradient-1)" x="20.1170211" y="8.51500225" width="3.08799013" height="2.93265242"></rect>
                            <path d="M97.3167744,55.4374409 L94.6564709,55.4374409 L87.3039664,51.2481469 C86.8268719,50.9754103 86.2324338,50.9680786 85.7491633,51.2290847 C85.2643489,51.4900908 84.9648138,51.9769111 84.9648138,52.5047885 L84.9648138,55.4374409 C82.411046,55.4374409 80.3328286,57.411116 80.3328286,59.8364195 L80.3328286,65.7017244 C80.3328286,68.1270279 82.411046,70.100703 84.9648138,70.100703 L97.3167744,70.100703 C99.8705422,70.100703 101.94876,68.1270279 101.94876,65.7017244 L101.94876,59.8364195 C101.94876,57.411116 99.8705422,55.4374409 97.3167744,55.4374409 L97.3167744,55.4374409 Z M98.8607694,65.7017244 C98.8607694,66.5111364 98.1675156,67.1680506 97.3167744,67.1680506 L84.9648138,67.1680506 C84.1140725,67.1680506 83.4208188,66.5111364 83.4208188,65.7017244 L83.4208188,59.8364195 C83.4208188,59.0270075 84.1140725,58.3700933 84.9648138,58.3700933 L86.5088089,58.3700933 C87.3610942,58.3700933 88.052804,57.7146455 88.052804,56.9037671 L88.052804,55.0957869 L93.4336268,58.161875 C93.67449,58.2982433 93.9493211,58.3700933 94.2287842,58.3700933 L97.3167744,58.3700933 C98.1675156,58.3700933 98.8607694,59.0270075 98.8607694,59.8364195 L98.8607694,65.7017244 L98.8607694,65.7017244 Z" id="Shape" fill="url(#linearGradient-1)"></path>
                            <rect id="Rectangle-path" fill="url(#linearGradient-1)" x="86.5088089" y="61.3027457" width="3.08799013" height="2.93265242"></rect>
                            <rect id="Rectangle-path" fill="url(#linearGradient-1)" x="92.6847892" y="61.3027457" width="3.08799013" height="2.93265242"></rect>
                        </g>
                    </g>
                </g>
            </g>
        </g>
    </g>
</svg>
