
<svg width="196px" height="219px" viewBox="0 0 196 219" version="1.1" xmlns="http://www.w3.org/2000/svg" xmlns:xlink="http://www.w3.org/1999/xlink">
    <!-- Generator: Sketch 48.2 (47327) - http://www.bohemiancoding.com/sketch -->
    <desc>Created with Sketch.</desc>
    <defs>
        <filter x="-53.4%" y="-54.3%" width="206.8%" height="208.7%" filterUnits="objectBoundingBox" id="filter-1">
            <feGaussianBlur stdDeviation="18.7586167" in="SourceGraphic"></feGaussianBlur>
        </filter>
    </defs>
    <g id="Page-1" stroke="none" stroke-width="1" fill="none" fill-rule="evenodd">
        <g id="HD-Platform" transform="translate(-465.000000, -3121.000000)">
            <g id="Platform-section" transform="translate(259.000000, 1078.000000)">
                <g id="Analytics" transform="translate(1.000000, 2043.000000)">
                    <g id="Icon-5" transform="translate(224.000000, 0.000000)">
                        <ellipse id="Oval-13-Copy" fill="#00D4F0" opacity="0.556378265" filter="url(#filter-1)" cx="79.183236" cy="121.392949" rx="52.683236" ry="51.7948764"></ellipse>
                        <ellipse id="Oval-13" fill="#00D4F0" cx="79.2898602" cy="78.171178" rx="79.2898602" ry="77.9528522"></ellipse>
                        <g id="Group-18" transform="translate(41.000000, 34.000000)" fill="#FFFFFF" stroke="#00D4F0" stroke-width="0.3">
                            <path d="M63.5794472,20.3417736 L71.2089809,20.3417736 L71.2089809,73.7389292 L63.5794472,73.7389292 L63.5794472,20.3417736 Z M44.5056131,27.9699387 L52.1351467,27.9699387 L52.1351467,73.7389292 L44.5056131,73.7389292 L44.5056131,27.9699387 Z M24.1601899,35.5981038 L31.7897236,35.5981038 L31.7897236,73.7389292 L24.1601899,73.7389292 L24.1601899,35.5981038 Z M5.08635578,43.2262689 L12.7158894,43.2262689 L12.7158894,73.7389292 L5.08635578,73.7389292 L5.08635578,43.2262689 Z M73.7521588,19.0704127 C73.7521588,18.3686215 73.1837585,17.7990519 72.4805698,17.7990519 L62.3078583,17.7990519 C61.6046696,17.7990519 61.0362693,18.3686215 61.0362693,19.0704127 L61.0362693,73.7389292 L54.6783246,73.7389292 L54.6783246,26.6985778 C54.6783246,25.9967866 54.1099244,25.427217 53.4067357,25.427217 L43.2340241,25.427217 C42.5308354,25.427217 41.9624352,25.9967866 41.9624352,26.6985778 L41.9624352,73.7389292 L34.3329015,73.7389292 L34.3329015,34.3267429 C34.3329015,33.6249517 33.7645012,33.0553821 33.0613126,33.0553821 L22.888601,33.0553821 C22.1854123,33.0553821 21.6170121,33.6249517 21.6170121,34.3267429 L21.6170121,73.7389292 L15.2590673,73.7389292 L15.2590673,41.954908 C15.2590673,41.2531168 14.6906671,40.6835472 13.9874784,40.6835472 L3.81476683,40.6835472 C3.11157815,40.6835472 2.54317789,41.2531168 2.54317789,41.954908 L2.54317789,73.7389292 L0,73.7389292 L0,76.2816509 L76.2953367,76.2816509 L76.2953367,73.7389292 L73.7521588,73.7389292 L73.7521588,19.0704127 L73.7521588,19.0704127 Z" id="Fill-1"></path>
                            <path d="M48.3203799,12.7136085 C47.6184628,12.7136085 47.0487909,12.1427675 47.0487909,11.4422476 C47.0487909,10.7417278 47.6184628,10.1708868 48.3203799,10.1708868 C49.022297,10.1708868 49.5919688,10.7417278 49.5919688,11.4422476 C49.5919688,12.1427675 49.022297,12.7136085 48.3203799,12.7136085 L48.3203799,12.7136085 Z M27.9749568,24.1558561 C27.2730397,24.1558561 26.7033678,23.5850151 26.7033678,22.8844953 C26.7033678,22.1839754 27.2730397,21.6131344 27.9749568,21.6131344 C28.4645185,21.6131344 28.8777849,21.900462 29.0901403,22.3060261 C29.1257448,22.3721369 29.1473618,22.4357049 29.1689788,22.4967302 C29.2083981,22.6213236 29.2465457,22.7471883 29.2465457,22.8844953 C29.2465457,23.5850151 28.6768739,24.1558561 27.9749568,24.1558561 L27.9749568,24.1558561 Z M8.90112261,34.3267429 C8.19920551,34.3267429 7.62953367,33.7559019 7.62953367,33.0553821 C7.62953367,32.3548622 8.19920551,31.7840212 8.90112261,31.7840212 C9.60303971,31.7840212 10.1727116,32.3548622 10.1727116,33.0553821 C10.1727116,33.7559019 9.60303971,34.3267429 8.90112261,34.3267429 L8.90112261,34.3267429 Z M67.3942141,2.5427217 C68.0961312,2.5427217 68.665803,3.11356272 68.665803,3.81408255 C68.665803,4.51460237 68.0961312,5.08544339 67.3942141,5.08544339 C66.692297,5.08544339 66.1226251,4.51460237 66.1226251,3.81408255 C66.1226251,3.11356272 66.692297,2.5427217 67.3942141,2.5427217 L67.3942141,2.5427217 Z M48.3203799,7.62816509 C46.2171718,7.62816509 44.5056131,9.33941679 44.5056131,11.4422476 C44.5056131,11.6647358 44.5348596,11.8795958 44.5717357,12.091913 L30.4698143,20.022662 C29.7996869,19.437836 28.9324633,19.0704127 27.9749568,19.0704127 C25.8717487,19.0704127 24.1601899,20.7816644 24.1601899,22.8844953 C24.1601899,23.0777421 24.1894365,23.2620894 24.2174114,23.4477081 L11.4633743,30.2482173 C10.7843458,29.6290646 9.89041881,29.2412995 8.90112261,29.2412995 C6.7979145,29.2412995 5.08635578,30.9525512 5.08635578,33.0553821 C5.08635578,35.1582129 6.7979145,36.8694646 8.90112261,36.8694646 C11.0043307,36.8694646 12.7158894,35.1582129 12.7158894,33.0553821 C12.7158894,32.8621352 12.6866429,32.6777879 12.6586679,32.4921692 L25.4127051,25.69166 C26.0917336,26.3108128 26.9856606,26.6985778 27.9749568,26.6985778 C30.0781649,26.6985778 31.7897236,24.9873261 31.7897236,22.8844953 C31.7897236,22.6620071 31.7604771,22.4471471 31.723601,22.2348299 L45.8255224,14.3040809 C46.4956498,14.8889069 47.3628734,15.2563302 48.3203799,15.2563302 C50.0637283,15.2563302 51.5222409,14.0739646 51.9749265,12.4745926 L51.9812845,12.475864 C51.9876424,12.4529795 51.9901856,12.4313664 51.9965435,12.4084819 C52.0283333,12.2902453 52.0550366,12.1720088 52.0741105,12.0486868 C52.1109865,11.8414549 52.1351467,11.6380372 52.1351467,11.4422476 C52.1351467,11.3901218 52.1338751,11.3392674 52.131332,11.2871416 L64.5433116,6.32374886 C65.2439572,7.11707803 66.256142,7.62816509 67.3942141,7.62816509 C69.4974222,7.62816509 71.2089809,5.91691339 71.2089809,3.81408255 C71.2089809,1.7112517 69.4974222,0 67.3942141,0 C65.2910059,0 63.5794472,1.7112517 63.5794472,3.81408255 C63.5794472,3.86493698 63.5921631,3.91324869 63.5947063,3.96410313 L51.1712823,8.93258132 C50.4706368,8.13925215 49.458452,7.62816509 48.3203799,7.62816509 L48.3203799,7.62816509 Z" id="Fill-4"></path>
                        </g>
                    </g>
                </g>
            </g>
        </g>
    </g>
</svg>
