
<svg width="196px" height="219px" viewBox="0 0 196 219" version="1.1" xmlns="http://www.w3.org/2000/svg" xmlns:xlink="http://www.w3.org/1999/xlink">
    <!-- Generator: Sketch 48.2 (47327) - http://www.bohemiancoding.com/sketch -->
    <desc>Created with Sketch.</desc>
    <defs>
        <filter x="-53.4%" y="-54.3%" width="206.8%" height="208.7%" filterUnits="objectBoundingBox" id="filter-1">
            <feGaussianBlur stdDeviation="18.7586167" in="SourceGraphic"></feGaussianBlur>
        </filter>
    </defs>
    <g id="Page-1" stroke="none" stroke-width="1" fill="none" fill-rule="evenodd">
        <g id="HD-Platform" transform="translate(-465.000000, -2361.000000)">
            <g id="Platform-section" transform="translate(259.000000, 1078.000000)">
                <g id="Any-device" transform="translate(1.000000, 1283.000000)">
                    <g id="icon-3" transform="translate(224.000000, 0.000000)">
                        <ellipse id="Oval-13-Copy" fill="#00AEF4" opacity="0.556378265" filter="url(#filter-1)" cx="79.183236" cy="121.174623" rx="52.683236" ry="51.7948764"></ellipse>
                        <ellipse id="Oval-13" fill="#00AEF4" cx="79.2898602" cy="77.9528522" rx="79.2898602" ry="77.9528522"></ellipse>
                        <g id="Group-39" transform="translate(39.000000, 41.000000)" fill="#FFFFFF" stroke="#00C1F2" stroke-width="0.3">
                            <path d="M76.0887148,35.0967959 L76.0887148,6.60071967 C76.0887148,3.02964321 73.1163392,0.124338712 69.4628219,0.124338712 L11.1549651,0.124338712 C7.50144777,0.124338712 4.52907225,3.02964321 4.52907225,6.60071967 L4.52907225,26.0298625 C2.33722691,26.0298625 0.553536557,27.7733043 0.553536557,29.9156911 L0.553536557,68.7739769 C0.553536557,70.9163637 2.33722691,72.6598055 4.52907225,72.6598055 L33.6830007,72.6598055 C35.874846,72.6598055 37.6585364,70.9163637 37.6585364,68.7739769 L48.7648579,68.7739769 C50.0145013,68.7739769 51.1660815,68.2170081 51.9240836,67.2468463 C52.6820858,66.2766844 52.928569,65.0435814 52.5999247,63.8661754 L49.9946236,54.5259388 L57.5362149,54.5259388 L57.5362149,68.7739769 C57.5362149,70.9163637 59.3199052,72.6598055 61.5117506,72.6598055 L76.0887148,72.6598055 C78.2805601,72.6598055 80.0642505,70.9163637 80.0642505,68.7739769 L80.0642505,38.9826245 C80.0642505,36.8402376 78.2805601,35.0967959 76.0887148,35.0967959 L76.0887148,35.0967959 Z M35.0081793,68.7739769 C35.0081793,69.4876741 34.4131741,70.0692531 33.6830007,70.0692531 L4.52907225,70.0692531 C3.79889886,70.0692531 3.20389369,69.4876741 3.20389369,68.7739769 L3.20389369,66.1834245 L35.0081793,66.1834245 L35.0081793,68.7739769 L35.0081793,68.7739769 Z M35.0081793,63.5928721 L3.20389369,63.5928721 L3.20389369,35.0967959 L35.0081793,35.0967959 L35.0081793,63.5928721 L35.0081793,63.5928721 Z M35.0081793,32.5062435 L3.20389369,32.5062435 L3.20389369,29.9156911 C3.20389369,29.2019939 3.79889886,28.6204149 4.52907225,28.6204149 L33.6830007,28.6204149 C34.4131741,28.6204149 35.0081793,29.2019939 35.0081793,29.9156911 L35.0081793,32.5062435 L35.0081793,32.5062435 Z M50.0436552,64.5474907 C50.1536451,64.9399594 50.071484,65.3505619 49.8183749,65.674381 C49.5652658,65.9982 49.1822892,66.1834245 48.7648579,66.1834245 L37.6585364,66.1834245 L37.6585364,63.5928721 L49.7772944,63.5928721 L50.0436552,64.5474907 L50.0436552,64.5474907 Z M37.6585364,61.0023197 L37.6585364,54.5259388 L47.2475285,54.5259388 L49.055072,61.0023197 L37.6585364,61.0023197 L37.6585364,61.0023197 Z M57.5362149,51.9353864 L37.6585364,51.9353864 L37.6585364,44.1637292 L57.5362149,44.1637292 L57.5362149,51.9353864 L57.5362149,51.9353864 Z M57.5362149,38.9826245 L57.5362149,41.5731769 L37.6585364,41.5731769 L37.6585364,29.9156911 C37.6585364,27.7733043 35.874846,26.0298625 33.6830007,26.0298625 L7.17942938,26.0298625 L7.17942938,6.60071967 C7.17942938,4.45833285 8.96311973,2.7148911 11.1549651,2.7148911 L69.4628219,2.7148911 C71.6546673,2.7148911 73.4383576,4.45833285 73.4383576,6.60071967 L73.4383576,35.0967959 L61.5117506,35.0967959 C59.3199052,35.0967959 57.5362149,36.8402376 57.5362149,38.9826245 L57.5362149,38.9826245 Z M77.4138933,68.7739769 C77.4138933,69.4876741 76.8188882,70.0692531 76.0887148,70.0692531 L61.5117506,70.0692531 C60.7815772,70.0692531 60.186572,69.4876741 60.186572,68.7739769 L60.186572,66.1834245 L77.4138933,66.1834245 L77.4138933,68.7739769 L77.4138933,68.7739769 Z M77.4138933,63.5928721 L60.186572,63.5928721 L60.186572,44.1637292 L77.4138933,44.1637292 L77.4138933,63.5928721 L77.4138933,63.5928721 Z M77.4138933,41.5731769 L60.186572,41.5731769 L60.186572,38.9826245 C60.186572,38.2689273 60.7815772,37.6873483 61.5117506,37.6873483 L76.0887148,37.6873483 C76.8188882,37.6873483 77.4138933,38.2689273 77.4138933,38.9826245 L77.4138933,41.5731769 L77.4138933,41.5731769 Z" id="Shape"></path>
                            <polygon id="Rectangle-path" points="10.5737285 57.4948664 26.4760114 41.9514152 28.3500789 43.7831948 12.447796 59.326646"></polygon>
                            <polygon id="Rectangle-path" points="63.2222682 53.6108021 69.8469798 47.1355757 71.7210473 48.9673553 65.0963358 55.4425817"></polygon>
                            <polygon id="Rectangle-path" points="65.8721152 58.7974219 72.4968268 52.3221955 74.3708943 54.1539751 67.7461827 60.6292015"></polygon>
                            <polygon id="Rectangle-path" points="31.1345804 19.8601622 39.0851947 12.0889518 40.9592622 13.9207314 33.0086479 21.6919418"></polygon>
                            <polygon id="Rectangle-path" points="38.9123012 19.9330789 46.8629156 12.1618684 48.7369831 13.993648 40.7863688 21.7648584"></polygon>
                        </g>
                    </g>
                </g>
            </g>
        </g>
    </g>
</svg>
