
<svg width="197px" height="219px" viewBox="0 0 197 219" version="1.1" xmlns="http://www.w3.org/2000/svg" xmlns:xlink="http://www.w3.org/1999/xlink">
    <!-- Generator: Sketch 48.2 (47327) - http://www.bohemiancoding.com/sketch -->
    <desc>Created with Sketch.</desc>
    <defs>
        <filter x="-53.4%" y="-54.3%" width="206.8%" height="208.7%" filterUnits="objectBoundingBox" id="filter-1">
            <feGaussianBlur stdDeviation="18.7586167" in="SourceGraphic"></feGaussianBlur>
        </filter>
    </defs>
    <g id="Page-1" stroke="none" stroke-width="1" fill="none" fill-rule="evenodd">
        <g id="HD-Platform" transform="translate(-1259.000000, -2361.000000)">
            <g id="Platform-section" transform="translate(259.000000, 1078.000000)">
                <g id="Cloud" transform="translate(795.000000, 1283.000000)">
                    <g id="Icon-4" transform="translate(224.000000, 0.000000)">
                        <ellipse id="Oval-13-Copy-6" fill="#00C7F1" opacity="0.556378265" filter="url(#filter-1)" cx="79.683236" cy="121.794876" rx="52.683236" ry="51.7948764"></ellipse>
                        <ellipse id="Oval-13-Copy-2" fill="#00C7F1" cx="79.2898602" cy="77.9528522" rx="79.2898602" ry="77.9528522"></ellipse>
                        <g id="Group-40" transform="translate(36.000000, 44.000000)" fill="#FFFFFF" stroke="#00C1F2" stroke-width="0.3">
                            <path d="M39.375,25.2174593 C35.6983333,25.2174593 32.7083333,28.1918337 32.7083333,31.8492862 C32.7083333,35.5067387 35.6983333,38.481113 39.375,38.481113 C43.0516667,38.481113 46.0416667,35.5067387 46.0416667,31.8492862 C46.0416667,28.1918337 43.0516667,25.2174593 39.375,25.2174593 L39.375,25.2174593 Z M39.375,35.1651996 C37.5366667,35.1651996 36.0416667,33.6780124 36.0416667,31.8492862 C36.0416667,30.0205599 37.5366667,28.5333728 39.375,28.5333728 C41.2133333,28.5333728 42.7083333,30.0205599 42.7083333,31.8492862 C42.7083333,33.6780124 41.2133333,35.1651996 39.375,35.1651996 L39.375,35.1651996 Z" id="Shape"></path>
                            <path d="M52.7083333,26.8754161 L51.735,26.8754161 C51.7066667,26.8074398 51.68,26.7394636 51.65,26.6731453 L52.3383333,25.9884092 C52.6516667,25.6767134 52.8266667,25.2572503 52.8266667,24.8162338 C52.8266667,24.3768753 52.6516667,23.9540963 52.3383333,23.6440584 L47.6233333,18.9536989 C46.9983333,18.3303072 45.8916667,18.3336231 45.2666667,18.9536989 L44.5783333,19.638435 C44.5116667,19.6085918 44.4433333,19.5820645 44.375,19.5538792 L44.375,18.5856325 C44.375,17.6687824 43.63,16.9276758 42.7083333,16.9276758 L36.0416667,16.9276758 C35.12,16.9276758 34.375,17.6687824 34.375,18.5856325 L34.375,19.5538792 C34.3066667,19.5820645 34.2383333,19.6085918 34.1716667,19.638435 L33.4833333,18.9536989 C33.17,18.642003 32.7483333,18.4679176 32.305,18.4679176 C31.8616667,18.4679176 31.4383333,18.642003 31.1266667,18.9536989 L26.4116667,23.6440584 C26.0983333,23.9557543 25.9233333,24.3768753 25.9233333,24.8162338 C25.9233333,25.2572503 26.0983333,25.6783713 26.4116667,25.9884092 L27.1,26.6731453 C27.07,26.7394636 27.0433333,26.8074398 27.015,26.8754161 L26.0416667,26.8754161 C25.12,26.8754161 24.375,27.6165227 24.375,28.5333728 L24.375,35.1651996 C24.375,36.0820497 25.12,36.8231563 26.0416667,36.8231563 L27.015,36.8231563 C27.0433333,36.8911326 27.07,36.9591088 27.1,37.025427 L26.4116667,37.7101632 C26.0983333,38.021859 25.9233333,38.4413221 25.9233333,38.8823386 C25.9233333,39.3216971 26.0983333,39.7444761 26.4116667,40.054514 L31.1266667,44.7448735 C31.7516667,45.3666073 32.8583333,45.3666073 33.4833333,44.7448735 L34.1716667,44.0601374 C34.2383333,44.0899806 34.3066667,44.1165079 34.375,44.1446932 L34.375,45.1129399 C34.375,46.02979 35.12,46.7708966 36.0416667,46.7708966 L42.7083333,46.7708966 C43.63,46.7708966 44.375,46.02979 44.375,45.1129399 L44.375,44.1446932 C44.4433333,44.1165079 44.5116667,44.0899806 44.5783333,44.0601374 L45.2666667,44.7448735 C45.58,45.0565694 46.0016667,45.2306548 46.445,45.2306548 C46.8883333,45.2306548 47.3116667,45.0565694 47.6233333,44.7448735 L52.3383333,40.054514 C52.6516667,39.7428181 52.8266667,39.3216971 52.8266667,38.8823386 C52.8266667,38.4413221 52.6516667,38.0202011 52.3383333,37.7101632 L51.65,37.025427 C51.68,36.9591088 51.7066667,36.8911326 51.735,36.8231563 L52.7083333,36.8231563 C53.63,36.8231563 54.375,36.0820497 54.375,35.1651996 L54.375,28.5333728 C54.375,27.6165227 53.63,26.8754161 52.7083333,26.8754161 L52.7083333,26.8754161 Z M51.0416667,33.5072429 L50.5516667,33.5072429 C49.815,33.5072429 49.165,33.9880504 48.955,34.691024 C48.7516667,35.3658124 48.49,36.0008098 48.1733333,36.5794367 C47.8216667,37.2260398 47.9366667,38.0251749 48.46,38.5441154 L48.8016667,38.8839965 L46.445,41.2283473 L46.1033333,40.8884662 C45.5816667,40.3695257 44.7783333,40.2567847 44.1283333,40.6032976 C43.5466667,40.9166515 42.91,41.1786086 42.23,41.3808793 C41.525,41.5881239 41.0416667,42.234727 41.0416667,42.9675439 L41.0416667,43.4549832 L37.7083333,43.4549832 L37.7083333,42.9675439 C37.7083333,42.234727 37.225,41.5881239 36.5183333,41.3792214 C35.84,41.1769507 35.2016667,40.9166515 34.62,40.6016397 C33.9716667,40.2534688 33.1683333,40.3662098 32.645,40.8868082 L32.3033333,41.2266894 L29.9466667,38.8823386 L30.2883333,38.5424574 C30.81,38.0251749 30.9266667,37.2243819 30.575,36.5777787 C30.26,35.9991518 29.9966667,35.3658124 29.7933333,34.689366 C29.585,33.9880504 28.935,33.5072429 28.1983333,33.5072429 L27.7083333,33.5072429 L27.7083333,30.1913295 L28.1983333,30.1913295 C28.935,30.1913295 29.585,29.710522 29.795,29.0075484 C29.9983333,28.33276 30.26,27.6977626 30.5766667,27.1191357 C30.9283333,26.4725326 30.8133333,25.6733974 30.29,25.154457 L29.9483333,24.8145759 L32.305,22.4702251 L32.6466667,22.8101062 C33.1683333,23.3307046 33.975,23.4451036 34.6216667,23.0952748 C35.2033333,22.7819209 35.84,22.5199638 36.52,22.3176931 C37.225,22.1104485 37.7083333,21.4638454 37.7083333,20.7310285 L37.7083333,20.2435892 L41.0416667,20.2435892 L41.0416667,20.7310285 C41.0416667,21.4638454 41.525,22.1104485 42.2316667,22.319351 C42.91,22.5216217 43.5483333,22.7819209 44.13,23.0969327 C44.7783333,23.4451036 45.5816667,23.3323626 46.105,22.8117642 L46.4466667,22.471883 L48.8033333,24.8162338 L48.4616667,25.1561149 C47.94,25.6733974 47.8233333,26.4741905 48.175,27.1207937 C48.49,27.6994205 48.7533333,28.33276 48.9566667,29.0092063 C49.165,29.710522 49.815,30.1913295 50.5516667,30.1913295 L51.0416667,30.1913295 L51.0416667,33.5072429 L51.0416667,33.5072429 Z" id="Shape"></path>
                            <path d="M75,26.2300119 C75,20.7536302 71.0325,16.13607 65.634375,15.264236 C63.38625,14.8199539 61.063125,15.1731489 59.026875,16.1323522 C56.229375,6.75781277 47.5725,0.205115678 37.5,0.205115678 C25.093125,0.205115678 15,10.2116883 15,22.5121696 C15,23.7576468 15.106875,25.0012651 15.31875,26.2337298 C6.939375,26.0720036 0,32.7957215 0,41.1013812 C0,49.3010825 6.729375,55.9727505 15,55.9727505 L76.875,55.9727505 C77.191875,55.9727505 77.49375,55.8705099 77.761875,55.703207 C84.78375,54.4038211 90,48.2396385 90,41.1013812 C90,32.90168 83.270625,26.2300119 75,26.2300119 L75,26.2300119 Z M76.584375,52.1303605 C76.438125,52.1508086 76.2975,52.1935638 76.1625,52.2549082 L15,52.2549082 C8.795625,52.2549082 3.75,47.2525514 3.75,41.1013812 C3.75,34.9502111 8.795625,29.9478543 15,29.9478543 C15.778125,29.9478543 16.57125,30.0315057 17.356875,30.1988086 C18.0075,30.3363688 18.676875,30.1244518 19.125,29.6392734 C19.573125,29.1578128 19.7325,28.4755887 19.543125,27.8472734 C19.018125,26.1017464 18.75,24.3060285 18.75,22.5121696 C18.75,12.2620783 27.16125,3.922958 37.5,3.922958 C46.665,3.922958 54.421875,10.4384767 55.948125,19.413348 C56.060625,20.0695472 56.51625,20.6142111 57.144375,20.8465763 C57.774375,21.0789414 58.479375,20.9599705 58.995,20.5342775 C60.37875,19.3966178 62.023125,18.7943273 63.75,18.7943273 C64.130625,18.7943273 64.513125,18.8333646 64.96125,18.9207339 C68.604375,19.5118709 71.25,22.5846675 71.25,26.2300119 C71.25,26.7412153 71.184375,27.2821613 71.0475,27.8807339 C70.910625,28.4867422 71.086875,29.1206344 71.51625,29.5704933 C71.945625,30.0184933 72.568125,30.2285514 73.194375,30.1225929 C73.89375,30.0036219 74.469375,29.9478543 75,29.9478543 C81.204375,29.9478543 86.25,34.9502111 86.25,41.1013812 C86.25,46.6186592 82.093125,51.3589082 76.584375,52.1303605 L76.584375,52.1303605 Z" id="Shape"></path>
                        </g>
                    </g>
                </g>
            </g>
        </g>
    </g>
</svg>
