
<svg width="197px" height="219px" viewBox="0 0 197 219" version="1.1" xmlns="http://www.w3.org/2000/svg" xmlns:xlink="http://www.w3.org/1999/xlink">
    <!-- Generator: Sketch 48.2 (47327) - http://www.bohemiancoding.com/sketch -->
    <desc>Created with Sketch.</desc>
    <defs>
        <filter x="-53.4%" y="-54.3%" width="206.8%" height="208.7%" filterUnits="objectBoundingBox" id="filter-1">
            <feGaussianBlur stdDeviation="18.7586167" in="SourceGraphic"></feGaussianBlur>
        </filter>
    </defs>
    <g id="Page-1" stroke="none" stroke-width="1" fill="none" fill-rule="evenodd">
        <g id="HD-Platform" transform="translate(-1259.000000, -3121.000000)">
            <g id="Platform-section" transform="translate(259.000000, 1078.000000)">
                <g id="Integration" transform="translate(795.000000, 2043.000000)">
                    <g id="Icon-6" transform="translate(224.000000, 0.000000)">
                        <ellipse id="Oval-13-Copy-7" fill="#00E3EF" opacity="0.556378265" filter="url(#filter-1)" cx="79.683236" cy="122.013202" rx="52.683236" ry="51.7948764"></ellipse>
                        <ellipse id="Oval-13-Copy-3" fill="#00E3EF" cx="79.2898602" cy="78.171178" rx="79.2898602" ry="77.9528522"></ellipse>
                        <g id="Group-19" transform="translate(40.000000, 43.000000)" fill="#FFFFFF" stroke="#00E3EF" stroke-width="0.3">
                            <path d="M78.5773205,0.5 L1.80967222,0.5 C1.07905598,0.5 0.486092074,1.0915342 0.486092074,1.82334272 L0.486092074,42.8469671 C0.486092074,43.5787756 1.07905598,44.1703098 1.80967222,44.1703098 L26.9576949,44.1703098 C27.6883112,44.1703098 28.2812751,43.5787756 28.2812751,42.8469671 L28.2812751,34.9069107 C28.2812751,34.1751022 27.6883112,33.583568 26.9576949,33.583568 L25.9279496,33.583568 C25.5533764,33.583568 25.1960098,33.7423691 24.9445295,34.0202711 C24.4296569,34.5932785 23.7334537,34.9069107 22.9869545,34.9069107 C21.5270456,34.9069107 20.3397942,33.7198723 20.3397942,32.2602253 C20.3397942,30.8005783 21.5270456,29.6135399 22.9869545,29.6135399 C23.7334537,29.6135399 24.4296569,29.9271721 24.9445295,30.5001795 C25.1946862,30.7780814 25.5520528,30.9368826 25.9279496,30.9368826 L26.9576949,30.9368826 C27.6883112,30.9368826 28.2812751,30.3453484 28.2812751,29.6135399 L28.2812751,22.9968263 L37.5463361,22.9968263 C38.2769523,22.9968263 38.8699162,22.4052921 38.8699162,21.6734835 L38.8699162,20.6439229 C38.8699162,20.2694169 38.7110866,19.9121144 38.4331348,19.6620026 C37.8613481,19.1458989 37.5463361,18.4498207 37.5463361,17.7034554 C37.5463361,16.2438083 38.7335875,15.0567699 40.1934963,15.0567699 C41.6534052,15.0567699 42.8406566,16.2438083 42.8406566,17.7034554 C42.8406566,18.4498207 42.5256446,19.1458989 41.9538579,19.6606793 C41.6759061,19.9121144 41.5170765,20.2680936 41.5170765,20.6439229 L41.5170765,21.6734835 C41.5170765,22.4052921 42.1100404,22.9968263 42.8406566,22.9968263 L52.1057176,22.9968263 L52.1057176,29.6135399 C52.1057176,30.3453484 52.6986815,30.9368826 53.4292978,30.9368826 L54.4590431,30.9368826 C54.8336163,30.9368826 55.1909829,30.7780814 55.4424632,30.5001795 C55.9573358,29.9271721 56.653539,29.6135399 57.4000382,29.6135399 C58.8599471,29.6135399 60.0471985,30.8005783 60.0471985,32.2602253 C60.0471985,33.7198723 58.8599471,34.9069107 57.4000382,34.9069107 C56.653539,34.9069107 55.9573358,34.5932785 55.4424632,34.0202711 C55.1923065,33.7423691 54.8349399,33.583568 54.4590431,33.583568 L53.4292978,33.583568 C52.6986815,33.583568 52.1057176,34.1751022 52.1057176,34.9069107 L52.1057176,42.8469671 C52.1057176,43.5787756 52.6986815,44.1703098 53.4292978,44.1703098 L78.5773205,44.1703098 C79.3079367,44.1703098 79.9009006,43.5787756 79.9009006,42.8469671 L79.9009006,1.82334272 C79.9009006,1.0915342 79.3079367,0.5 78.5773205,0.5 L78.5773205,0.5 Z M54.7528779,41.5236243 L54.7528779,36.8323744 C55.5523203,37.2995144 56.4655906,37.5535962 57.4000382,37.5535962 C60.319856,37.5535962 62.6943588,35.1795193 62.6943588,32.2602253 C62.6943588,29.3409313 60.319856,26.9668544 57.4000382,26.9668544 C56.4655906,26.9668544 55.5523203,27.2209362 54.7528779,27.6880762 L54.7528779,21.6734835 C54.7528779,20.941675 54.159914,20.3501408 53.4292978,20.3501408 L44.7664657,20.3501408 C45.2336895,19.5508418 45.4878169,18.6377353 45.4878169,17.7034554 C45.4878169,14.7841613 43.1133141,12.4100845 40.1934963,12.4100845 C37.2736786,12.4100845 34.8991758,14.7841613 34.8991758,17.7034554 C34.8991758,18.6377353 35.1533032,19.5508418 35.620527,20.3501408 L26.9576949,20.3501408 C26.2270787,20.3501408 25.6341148,20.941675 25.6341148,21.6734835 L25.6341148,27.6880762 C24.8346724,27.2209362 23.9214021,26.9668544 22.9869545,26.9668544 C20.0671367,26.9668544 17.6926339,29.3409313 17.6926339,32.2602253 C17.6926339,35.1795193 20.0671367,37.5535962 22.9869545,37.5535962 C23.9214021,37.5535962 24.8346724,37.2995144 25.6341148,36.8323744 L25.6341148,41.5236243 L3.13325236,41.5236243 L3.13325236,3.14668544 L77.2537403,3.14668544 L77.2537403,41.5236243 L54.7528779,41.5236243 Z" id="Shape"></path>
                            <path d="M57.4000382,58.6494615 C56.4655906,58.6494615 55.5523203,58.9035434 54.7528779,59.3706833 L54.7528779,53.3560907 C54.7528779,52.6242821 54.159914,52.0327479 53.4292978,52.0327479 L44.7664657,52.0327479 C45.2336895,51.2334489 45.4878169,50.3203425 45.4878169,49.3860625 C45.4878169,46.4667685 43.1133141,44.0926916 40.1934963,44.0926916 C37.2736786,44.0926916 34.8991758,46.4667685 34.8991758,49.3860625 C34.8991758,50.3203425 35.1533032,51.2334489 35.620527,52.0327479 L26.9576949,52.0327479 C26.2270787,52.0327479 25.6341148,52.6242821 25.6341148,53.3560907 L25.6341148,59.3706833 C24.8346724,58.9035434 23.9214021,58.6494615 22.9869545,58.6494615 C20.0671367,58.6494615 17.6926339,61.0235384 17.6926339,63.9428324 C17.6926339,66.8621265 20.0671367,69.2362033 22.9869545,69.2362033 C23.9214021,69.2362033 24.8346724,68.9821215 25.6341148,68.5149815 L25.6341148,74.5295742 C25.6341148,75.2613827 26.2270787,75.8529169 26.9576949,75.8529169 L53.4292978,75.8529169 C54.159914,75.8529169 54.7528779,75.2613827 54.7528779,74.5295742 L54.7528779,68.5149815 C55.5523203,68.9821215 56.4655906,69.2362033 57.4000382,69.2362033 C60.319856,69.2362033 62.6943588,66.8621265 62.6943588,63.9428324 C62.6943588,61.0235384 60.319856,58.6494615 57.4000382,58.6494615 L57.4000382,58.6494615 Z M57.4000382,66.5895179 C56.653539,66.5895179 55.9573358,66.2758856 55.4424632,65.7028782 C55.1923065,65.4249763 54.8349399,65.2661752 54.4590431,65.2661752 L53.4292978,65.2661752 C52.6986815,65.2661752 52.1057176,65.8577093 52.1057176,66.5895179 L52.1057176,73.2062315 L28.2812751,73.2062315 L28.2812751,66.5895179 C28.2812751,65.8577093 27.6883112,65.2661752 26.9576949,65.2661752 L25.9279496,65.2661752 C25.5533764,65.2661752 25.1960098,65.4249763 24.9445295,65.7028782 C24.4296569,66.2758856 23.7334537,66.5895179 22.9869545,66.5895179 C21.5270456,66.5895179 20.3397942,65.4024795 20.3397942,63.9428324 C20.3397942,62.4831854 21.5270456,61.296147 22.9869545,61.296147 C23.7334537,61.296147 24.4296569,61.6097792 24.9445295,62.1827866 C25.1946862,62.4606886 25.5520528,62.6194897 25.9279496,62.6194897 L26.9576949,62.6194897 C27.6883112,62.6194897 28.2812751,62.0279555 28.2812751,61.296147 L28.2812751,54.6794334 L37.5463361,54.6794334 C38.2769523,54.6794334 38.8699162,54.0878992 38.8699162,53.3560907 L38.8699162,52.32653 C38.8699162,51.952024 38.7110866,51.5947215 38.4331348,51.3446097 C37.8613481,50.8285061 37.5463361,50.1324278 37.5463361,49.3860625 C37.5463361,47.9264155 38.7335875,46.7393771 40.1934963,46.7393771 C41.6534052,46.7393771 42.8406566,47.9264155 42.8406566,49.3860625 C42.8406566,50.1324278 42.5256446,50.8285061 41.9538579,51.3432864 C41.6759061,51.5947215 41.5170765,51.9507007 41.5170765,52.32653 L41.5170765,53.3560907 C41.5170765,54.0878992 42.1100404,54.6794334 42.8406566,54.6794334 L52.1057176,54.6794334 L52.1057176,61.296147 C52.1057176,62.0279555 52.6986815,62.6194897 53.4292978,62.6194897 L54.4590431,62.6194897 C54.8336163,62.6194897 55.1909829,62.4606886 55.4424632,62.1827866 C55.9573358,61.6097792 56.653539,61.296147 57.4000382,61.296147 C58.8599471,61.296147 60.0471985,62.4831854 60.0471985,63.9428324 C60.0471985,65.4024795 58.8599471,66.5895179 57.4000382,66.5895179 L57.4000382,66.5895179 Z" id="Shape"></path>
                        </g>
                    </g>
                </g>
            </g>
        </g>
    </g>
</svg>
