
<svg width="197px" height="218px" viewBox="0 0 197 218" version="1.1" xmlns="http://www.w3.org/2000/svg" xmlns:xlink="http://www.w3.org/1999/xlink">
    <!-- Generator: Sketch 48.2 (47327) - http://www.bohemiancoding.com/sketch -->
    <desc>Created with Sketch.</desc>
    <defs>
        <filter x="-53.6%" y="-54.1%" width="207.2%" height="208.2%" filterUnits="objectBoundingBox" id="filter-1">
            <feGaussianBlur stdDeviation="18.7586167" in="SourceGraphic"></feGaussianBlur>
        </filter>
    </defs>
    <g id="Page-1" stroke="none" stroke-width="1" fill="none" fill-rule="evenodd">
        <g id="HD-Platform" transform="translate(-1258.000000, -1600.000000)">
            <g id="Platform-section" transform="translate(259.000000, 1078.000000)">
                <g id="AI" transform="translate(794.000000, 522.000000)">
                    <g id="Icon-2" transform="translate(224.000000, 0.000000)">
                        <ellipse id="Oval-13-Copy" fill="#0092F6" opacity="0.556378265" filter="url(#filter-1)" cx="79.5" cy="121" rx="52.5" ry="52"></ellipse>
                        <ellipse id="Oval-13" fill="#0092F6" cx="79.5" cy="78" rx="79.5" ry="78"></ellipse>
                        <g id="Group-38" transform="translate(51.000000, 33.000000)" fill="#FFFFFF" stroke="#00C1F2" stroke-width="0.3">
                            <path d="M40.6691908,19.28685 L38.7810913,19.28685 C38.6508348,18.9289121 38.4994891,18.577 38.333257,18.2347294 L39.6680763,16.9367525 C39.9012975,16.7101791 40.031554,16.4040638 40.031554,16.0846916 C40.031554,15.7653194 39.9012975,15.4579989 39.6680763,15.2326306 L36.1598337,11.8231816 C35.6747832,11.3519569 34.8907629,11.3519569 34.4057124,11.8231816 L33.0696525,13.1199533 C32.7160991,12.9584594 32.3551024,12.8126328 31.985422,12.684884 L31.985422,10.8506028 C31.985422,10.1853444 31.4309013,9.64542462 30.7448836,9.64542462 L25.78273,9.64542462 C25.0967122,9.64542462 24.5421916,10.1853444 24.5421916,10.8506028 L24.5421916,12.684884 C24.1725111,12.8114277 23.8115144,12.9572542 23.4592015,13.1199533 L22.1231417,11.8243867 C21.6380912,11.3531621 20.8540709,11.3531621 20.3690204,11.8243867 L16.8607778,15.2338358 C16.6275566,15.4604093 16.4973,15.7665245 16.4973,16.0858968 C16.4973,16.405269 16.6275566,16.7125894 16.8607778,16.9379577 L18.1955971,18.2359346 C18.0281244,18.5782052 17.8780193,18.9301172 17.7477627,19.2880552 L15.8584228,19.2880552 C15.172405,19.2880552 14.6178844,19.827975 14.6178844,20.4932333 L14.6178844,25.313946 C14.6178844,25.9779992 15.172405,26.517919 15.8584228,26.517919 L17.7465222,26.517919 C17.8767787,26.8758569 18.0281244,27.2277689 18.1943566,27.5700395 L16.8595373,28.8680164 C16.626316,29.0945899 16.4960595,29.4007052 16.4960595,29.7200774 C16.4960595,30.0394496 16.626316,30.3467701 16.8595373,30.5721384 L20.3677798,33.9815874 C20.8528304,34.4528121 21.6368506,34.4528121 22.1219011,33.9815874 L23.457961,32.6848157 C23.8102739,32.8475148 24.1712706,32.9933413 24.540951,33.119885 L24.540951,34.9541662 C24.540951,35.6194245 25.0954717,36.1593444 25.7814894,36.1593444 L30.743643,36.1593444 C31.4296608,36.1593444 31.9841814,35.6194245 31.9841814,34.9541662 L31.9841814,33.119885 C32.3538619,32.9933413 32.7148585,32.8475148 33.0671714,32.6848157 L34.4032313,33.9815874 C34.8882818,34.4528121 35.6723021,34.4528121 36.1573526,33.9815874 L39.6655952,30.5721384 C39.8988164,30.3455649 40.0290729,30.0394496 40.0290729,29.7200774 C40.0290729,29.4007052 39.8988164,29.0933848 39.6655952,28.8680164 L38.3307759,27.5700395 C38.4982486,27.2277689 38.6483537,26.8758569 38.7786102,26.517919 L40.6691908,26.517919 C41.3552085,26.517919 41.9097292,25.9779992 41.9097292,25.3127408 L41.9097292,20.4920282 C41.9097292,19.8267698 41.3552085,19.28685 40.6691908,19.28685 L40.6691908,19.28685 Z M39.4286524,24.1075627 L37.8630929,24.1075627 C37.2974074,24.1075627 36.8036731,24.4787575 36.6622517,25.0114463 C36.4588034,25.7755293 36.1474283,26.5058672 35.7368101,27.180767 C35.4502457,27.654402 35.5283996,28.2569911 35.927853,28.6450585 L37.0356538,29.7200774 L35.2815325,31.4254045 L34.1737317,30.3503856 C33.7742783,29.961113 33.1527686,29.8851868 32.665237,30.1647881 C31.971776,30.5624969 31.2212503,30.8637915 30.4335084,31.0614407 C29.8876715,31.1976258 29.5043452,31.6784919 29.5043452,32.2280532 L29.5043452,33.748988 L27.0232684,33.748988 L27.0232684,32.2280532 C27.0232684,31.6784919 26.639942,31.198831 26.0928646,31.0614407 C25.3051227,30.8637915 24.5545969,30.5624969 23.861136,30.1647881 C23.3748449,29.8851868 22.7520947,29.9599079 22.3526413,30.3503856 L21.2448405,31.4254045 L19.4907192,29.7200774 L20.59852,28.6450585 C20.9979734,28.2569911 21.0773678,27.654402 20.7895629,27.180767 C20.3789447,26.5058672 20.0675696,25.7755293 19.8641213,25.0114463 C19.7226999,24.4787575 19.2302061,24.1075627 18.6645206,24.1075627 L17.0989612,24.1075627 L17.0989612,21.6972063 L18.6645206,21.6972063 C19.2302061,21.6972063 19.7239404,21.3260114 19.8653618,20.7933227 C20.0688101,20.0292397 20.3801852,19.2989018 20.7908034,18.624002 C21.0773678,18.150367 20.9992139,17.5477779 20.5997605,17.1597105 L19.4919597,16.0846916 L21.246081,14.3793645 L22.3538818,15.4543834 C22.7533352,15.8436559 23.3760855,15.9207873 23.8623765,15.6399808 C24.5558375,15.242272 25.3063632,14.9409775 26.0941051,14.7433283 C26.639942,14.6071431 27.0232684,14.1262771 27.0232684,13.5767158 L27.0232684,12.055781 L29.5043452,12.055781 L29.5043452,13.5767158 C29.5043452,14.1262771 29.8876715,14.605938 30.434749,14.7433283 C31.2224908,14.9409775 31.9730166,15.242272 32.6664775,15.6399808 C33.1515281,15.918377 33.7755189,15.8448611 34.1749722,15.4543834 L35.282773,14.3793645 L37.0368943,16.0846916 L35.9290935,17.1597105 C35.5296402,17.5477779 35.4502457,18.150367 35.7380506,18.624002 C36.1486688,19.2989018 36.460044,20.0292397 36.6634923,20.7933227 C36.8049136,21.3248063 37.2986479,21.6972063 37.8643334,21.6972063 L39.4286524,21.6972063 L39.4286524,24.1075627 L39.4286524,24.1075627 Z" id="Shape"></path>
                            <path d="M28.2121177,16.8262779 C24.7919533,16.8262779 22.0094257,19.5294925 22.0094257,22.8521687 C22.0094257,26.174845 24.7919533,28.8780596 28.2121177,28.8780596 C31.632282,28.8780596 34.4148097,26.174845 34.4148097,22.8521687 C34.4148097,19.5294925 31.632282,16.8262779 28.2121177,16.8262779 L28.2121177,16.8262779 Z M28.2121177,26.4677032 C26.1602671,26.4677032 24.4905025,24.8455334 24.4905025,22.8521687 C24.4905025,20.858804 26.1602671,19.2366342 28.2121177,19.2366342 C30.2639682,19.2366342 31.9337329,20.858804 31.9337329,22.8521687 C31.9337329,24.8455334 30.2639682,26.4677032 28.2121177,26.4677032 L28.2121177,26.4677032 Z" id="Shape"></path>
                            <path d="M52.2563751,23.1695796 L52.2563751,59.9683235 L55.0569559,59.9683235 L55.0569559,62.6941564 L51.7788761,62.6941564 L30.4398504,62.6941564 L21.0784804,62.6941564 C11.0411987,62.6941564 2.87470498,70.6426851 2.87470498,80.4120702 L2.87470498,81.7749867 L0.0741241458,81.7749867 L0.0741241458,80.4120702 C0.0741241458,69.1393883 9.49667835,59.9683235 21.0784804,59.9683235 L29.8517285,59.9683235 L29.8517285,51.7908249 L15.8488243,51.7908249 C11.9882237,51.7908249 8.84737225,48.7338033 8.84737225,44.9762427 L8.84737225,43.6133262 C8.84737225,42.8609963 9.47470236,42.2504098 10.2476627,42.2504098 C12.0736414,42.2504098 13.6307643,41.1110116 14.2090843,39.5245769 L10.2476627,39.5245769 C9.47470236,39.5245769 8.84737225,38.9139903 8.84737225,38.1616604 L8.84737225,35.4358276 L5.50382167,35.4358276 C4.73086136,35.4358276 4.10353126,34.825241 4.10353126,34.0729111 L4.10353126,23.8510378 C4.10353126,10.700257 14.2398906,0 27.7512929,0 L28.4472372,0 C41.5763601,0 52.2563751,10.3936008 52.2563751,23.1695796 Z M32.6523093,59.9683235 L49.4557943,59.9683235 L49.4557943,23.1695796 C49.4557943,11.8968976 40.0318398,2.72583289 28.4472372,2.72583289 L27.7512929,2.72583289 C15.7830107,2.72583289 6.90411209,12.2021909 6.90411209,23.8510378 L6.90411209,32.7099947 L10.2476627,32.7099947 C11.020623,32.7099947 11.6479531,33.3205812 11.6479531,34.0729111 L11.6479531,36.798744 L15.8488243,36.798744 C16.6217846,36.798744 17.2491147,37.4093306 17.2491147,38.1616604 C17.2491147,41.4517407 14.8392149,44.2061949 11.6479531,44.9762427 C11.6479531,47.2305065 13.532744,49.064992 15.8488243,49.064992 L31.2520189,49.064992 C32.0249792,49.064992 32.6523093,49.6755786 32.6523093,50.4279084 L32.6523093,59.9683235 Z" id="Shape"></path>
                            <polygon id="Rectangle-path" points="46.1300481 40.8874933 45.9174787 60.0458647 43.1252514 60.0588335 43.3378209 40.9004621 46.1300481 40.8874933"></polygon>
                            <polygon id="Rectangle-path" points="46.1906893 33.4972481 46.1623464 37.3713366 43.3701192 37.3910048 43.3984621 33.5169163 46.1906893 33.4972481"></polygon>
                        </g>
                    </g>
                </g>
            </g>
        </g>
    </g>
</svg>
