
<svg width="196px" height="219px" viewBox="0 0 196 219" version="1.1" xmlns="http://www.w3.org/2000/svg" xmlns:xlink="http://www.w3.org/1999/xlink">
    <!-- Generator: Sketch 48.2 (47327) - http://www.bohemiancoding.com/sketch -->
    <desc>Created with Sketch.</desc>
    <defs>
        <filter x="-53.4%" y="-54.3%" width="206.8%" height="208.7%" filterUnits="objectBoundingBox" id="filter-1">
            <feGaussianBlur stdDeviation="18.7586167" in="SourceGraphic"></feGaussianBlur>
        </filter>
    </defs>
    <g id="Page-1" stroke="none" stroke-width="1" fill="none" fill-rule="evenodd">
        <g id="HD-Platform" transform="translate(-464.000000, -1600.000000)">
            <g id="Platform-section" transform="translate(259.000000, 1078.000000)">
                <g id="Natural-lang" transform="translate(0.000000, 522.000000)">
                    <g id="Icon-1" transform="translate(224.000000, 0.000000)">
                        <ellipse id="Oval-13-Copy" fill="#006FF9" opacity="0.556378265" filter="url(#filter-1)" cx="79.183236" cy="121.174623" rx="52.683236" ry="51.7948764"></ellipse>
                        <ellipse id="Oval-13" fill="#006FF9" cx="79.2898602" cy="77.9528522" rx="79.2898602" ry="77.9528522"></ellipse>
                        <path d="M82.1550152,34 L73.2216507,34 C70.1429899,34 67.6382979,36.4782569 67.6382979,39.5244247 L67.6382979,43.9439645 C67.6382979,46.7890432 69.9230058,49.4683892 71.6940454,49.4683892 L74.6096722,49.4683892 L79.1668048,53.5973442 C79.3778555,53.7884893 79.6480898,53.8879289 79.9216741,53.8879289 C80.0746579,53.8879289 80.2265251,53.8569922 80.3716923,53.7940137 C80.7770437,53.6172321 81.0383446,53.2205784 81.0383446,52.783044 L81.0383446,49.4683892 L82.1550152,49.4683892 C85.2336759,49.4683892 87.738368,46.9901322 87.738368,43.9439645 L87.738368,39.5244247 C87.738368,36.4782569 85.2336759,34 82.1550152,34 L82.1550152,34 Z M85.5050269,43.9439645 C85.5050269,45.7714442 84.0019883,47.2586193 82.1550152,47.2586193 L79.9216741,47.2586193 C79.3041552,47.2586193 78.8050035,47.7536077 78.8050035,48.3635042 L78.8050035,50.2738503 L75.7989264,47.549204 C75.5923423,47.3624785 75.3232247,47.2586193 75.044057,47.2586193 L71.7576956,47.2641437 C71.302094,47.1514455 69.871639,45.7548709 69.871639,43.9439645 L69.871639,39.5244247 C69.871639,37.696945 71.3746776,36.2097699 73.2216507,36.2097699 L82.1550152,36.2097699 C84.0019883,36.2097699 85.5050269,37.696945 85.5050269,39.5244247 L85.5050269,43.9439645 L85.5050269,43.9439645 Z" id="Shape" stroke="#00C1F2" stroke-width="0.3" fill="#FFFFFF"></path>
                        <path d="M52.5167173,40.5832728 L43.5833528,40.5832728 C40.5046921,40.5832728 38,43.0615297 38,46.1076975 L38,50.5272372 C38,53.573405 40.5046921,56.0516619 43.5833528,56.0516619 L44.2377218,56.0516619 L49.4938901,61.2523554 C49.7071742,61.4633884 49.9930419,61.5760866 50.2833762,61.5760866 C50.4274267,61.5760866 50.5725939,61.5484645 50.711061,61.4921154 C51.1286958,61.3208582 51.4000468,60.9175752 51.4000468,60.4712017 L51.4000468,56.0516619 L52.5167173,56.0516619 C55.5953781,56.0516619 58.1000701,53.573405 58.1000701,50.5272372 L58.1000701,46.1076975 C58.1000701,43.0615297 55.5953781,40.5832728 52.5167173,40.5832728 L52.5167173,40.5832728 Z M55.866729,50.5272372 C55.866729,52.3547169 54.3636904,53.8418921 52.5167173,53.8418921 L50.2833762,53.8418921 C49.6658574,53.8418921 49.1667056,54.3368805 49.1667056,54.946777 L49.1667056,57.8040095 L45.4895095,54.1656233 C45.2806921,53.957905 44.9970578,53.8418921 44.7000234,53.8418921 L43.5833528,53.8418921 C41.7363797,53.8418921 40.2333411,52.3547169 40.2333411,50.5272372 L40.2333411,46.1076975 C40.2333411,44.2802178 41.7363797,42.7930427 43.5833528,42.7930427 L52.5167173,42.7930427 C54.3636904,42.7930427 55.866729,44.2802178 55.866729,46.1076975 L55.866729,50.5272372 L55.866729,50.5272372 Z" id="Shape" stroke="#00C1F2" stroke-width="0.3" fill="#FFFFFF"></path>
                        <path d="M112.398176,44.1741488 L103.464812,44.1741488 C100.386151,44.1741488 97.881459,46.6524058 97.881459,49.6985735 L97.881459,54.1181133 C97.881459,57.1642811 100.386151,59.642538 103.464812,59.642538 L104.7836,59.642538 L105.720486,64.2786352 C105.805353,64.6995964 106.129188,65.0343765 106.551289,65.134921 C106.63839,65.1570187 106.727723,65.1669627 106.814823,65.1669627 C107.149825,65.1669627 107.472542,65.0178032 107.686943,64.7526309 L111.817508,59.642538 L112.398176,59.642538 C115.476837,59.642538 117.981529,57.1642811 117.981529,54.1181133 L117.981529,49.6985735 C117.981529,46.6524058 115.476837,44.1741488 112.398176,44.1741488 L112.398176,44.1741488 Z M115.748188,54.1181133 C115.748188,55.945593 114.245149,57.4327681 112.398176,57.4327681 L111.281506,57.4327681 C110.942038,57.4327681 110.621553,57.5852422 110.409386,57.8471 L107.440159,61.5208424 L106.793607,58.3210956 C106.68864,57.8040095 106.230805,57.4327681 105.698153,57.4327681 L103.464812,57.4327681 C101.617839,57.4327681 100.1148,55.945593 100.1148,54.1181133 L100.1148,49.6985735 C100.1148,47.8710938 101.617839,46.3839187 103.464812,46.3839187 L112.398176,46.3839187 C114.245149,46.3839187 115.748188,47.8710938 115.748188,49.6985735 L115.748188,54.1181133 L115.748188,54.1181133 Z" id="Shape" stroke="#00C1F2" stroke-width="0.3" fill="#FFFFFF"></path>
                        <path d="M48.0035071,45.3711075 C46.156534,45.3711075 44.6534954,46.8582826 44.6534954,48.6857623 C44.6534954,50.513242 46.156534,52.0004172 48.0035071,52.0004172 C49.8504802,52.0004172 51.3535188,50.513242 51.3535188,48.6857623 C51.3535188,46.8582826 49.8504802,45.3711075 48.0035071,45.3711075 L48.0035071,45.3711075 Z M48.0035071,49.7906473 C47.387105,49.7906473 46.8868366,49.2945539 46.8868366,48.6857623 C46.8868366,48.0769707 47.387105,47.5808774 48.0035071,47.5808774 C48.6199093,47.5808774 49.1201777,48.0769707 49.1201777,48.6857623 C49.1201777,49.2945539 48.6199093,49.7906473 48.0035071,49.7906473 L48.0035071,49.7906473 Z" id="Shape" stroke="#00C1F2" stroke-width="0.3" fill="#FFFFFF"></path>
                        <path d="M79.8751461,38.7878347 L75.4084639,38.7878347 C74.7909451,38.7878347 74.2917933,39.2828232 74.2917933,39.8927197 L74.2917933,44.3122594 C74.2917933,44.9221559 74.7909451,45.4171444 75.4084639,45.4171444 L79.8751461,45.4171444 C80.492665,45.4171444 80.9918167,44.9221559 80.9918167,44.3122594 L80.9918167,39.8927197 C80.9918167,39.2828232 80.492665,38.7878347 79.8751461,38.7878347 L79.8751461,38.7878347 Z M78.7584756,43.2073745 L76.5251344,43.2073745 L76.5251344,40.9976046 L78.7584756,40.9976046 L78.7584756,43.2073745 L78.7584756,43.2073745 Z" id="Shape" stroke="#00C1F2" stroke-width="0.3" fill="#FFFFFF"></path>
                        <path d="M112.640591,53.7991698 L109.290579,49.3796301 C108.869594,48.8227681 107.924891,48.8227681 107.503906,49.3796301 L104.153895,53.7991698 C103.899294,54.13395 103.859094,54.5814284 104.047811,54.9559844 C104.237645,55.3305404 104.624013,55.5669857 105.047231,55.5669857 L111.747254,55.5669857 C112.170473,55.5669857 112.556841,55.3305404 112.746675,54.9559844 C112.935392,54.5814284 112.895192,54.13395 112.640591,53.7991698 L112.640591,53.7991698 Z M107.280572,53.3572159 L108.397243,51.8844042 L109.513913,53.3572159 L107.280572,53.3572159 L107.280572,53.3572159 Z" id="Shape" stroke="#00C1F2" stroke-width="0.3" fill="#FFFFFF"></path>
                        <path d="M70.3331326,79.6502752 C68.9613893,79.6502752 67.8024663,80.5295902 67.3662899,81.7463777 L56.4429142,81.7463777 C56.0067377,80.5295902 54.8478147,79.6502752 53.4760714,79.6502752 C51.7334727,79.6502752 50.3153724,81.0609522 50.3153724,82.794429 C50.3153724,84.5279058 51.7334727,85.9385829 53.4760714,85.9385829 C54.8478147,85.9385829 56.0067377,85.0592678 56.4429142,83.8424803 L67.3673434,83.8424803 C67.8035199,85.0592678 68.9624429,85.9385829 70.3341862,85.9385829 C72.0767849,85.9385829 73.4948852,84.5279058 73.4948852,82.794429 C73.4948852,81.0609522 72.0757314,79.6502752 70.3331326,79.6502752 L70.3331326,79.6502752 Z M53.4760714,83.8424803 C52.8955563,83.8424803 52.422505,83.3729533 52.422505,82.794429 C52.422505,82.2159047 52.8955563,81.7463777 53.4760714,81.7463777 C54.0565864,81.7463777 54.5296377,82.2159047 54.5296377,82.794429 C54.5296377,83.3729533 54.0565864,83.8424803 53.4760714,83.8424803 L53.4760714,83.8424803 Z M70.3331326,83.8424803 C69.7526176,83.8424803 69.2795663,83.3729533 69.2795663,82.794429 C69.2795663,82.2159047 69.7526176,81.7463777 70.3331326,81.7463777 C70.9136477,81.7463777 71.386699,82.2159047 71.386699,82.794429 C71.386699,83.3729533 70.9136477,83.8424803 70.3331326,83.8424803 L70.3331326,83.8424803 Z" id="Shape" stroke="#00C1F2" stroke-width="0.3" fill="#FFFFFF"></path>
                        <path d="M78.7616633,86.1314243 L78.7616633,79.6502752 C78.7616633,79.3714935 78.6510388,79.1052885 78.4529684,78.9093029 L74.238703,74.7170978 C74.0416861,74.5200642 73.7730267,74.4100188 73.4938316,74.4100188 L70.1392764,74.4100188 C69.7031,73.1932313 68.544177,72.3139162 67.1724337,72.3139162 C65.4298349,72.3139162 64.0117347,73.7245933 64.0117347,75.4580701 C64.0117347,77.1915469 65.4298349,78.6022239 67.1724337,78.6022239 C68.544177,78.6022239 69.7031,77.7229089 70.1392764,76.5061214 L73.0576552,76.5061214 L76.6545306,80.0841684 L76.6545306,86.1314243 C75.4313401,86.5653175 74.547398,87.7181739 74.547398,89.0827367 C74.547398,90.8162135 75.9654982,92.2268905 77.708097,92.2268905 C79.4506957,92.2268905 80.8687959,90.8162135 80.8687959,89.0827367 C80.8687959,87.7181739 79.9848538,86.5653175 78.7616633,86.1314243 L78.7616633,86.1314243 Z M67.1724337,76.5061214 C66.5919186,76.5061214 66.1188673,76.0365944 66.1188673,75.4580701 C66.1188673,74.8795458 66.5919186,74.4100188 67.1724337,74.4100188 C67.7529487,74.4100188 68.226,74.8795458 68.226,75.4580701 C68.226,76.0365944 67.7529487,76.5061214 67.1724337,76.5061214 L67.1724337,76.5061214 Z M77.708097,90.130788 C77.1275819,90.130788 76.6545306,89.661261 76.6545306,89.0827367 C76.6545306,88.5042124 77.1275819,88.0346854 77.708097,88.0346854 C78.288612,88.0346854 78.7616633,88.5042124 78.7616633,89.0827367 C78.7616633,89.661261 78.288612,90.130788 77.708097,90.130788 L77.708097,90.130788 Z" id="Shape" stroke="#00C1F2" stroke-width="0.3" fill="#FFFFFF"></path>
                        <path d="M97.7258572,90.130788 C97.2391096,90.130788 96.7839689,90.2492178 96.3720245,90.4462514 L94.5651582,88.6488435 L94.5651582,78.6022239 C94.5651582,78.3234423 94.4545338,78.0572372 94.2564633,77.8612517 L83.7123715,67.3723545 C83.9104419,66.9625664 84.0294949,66.5098083 84.0294949,66.0256086 C84.0294949,64.2921318 82.6113947,62.8814547 80.8687959,62.8814547 C79.1261972,62.8814547 77.708097,64.2921318 77.708097,66.0256086 C77.708097,67.7590854 79.1261972,69.1697624 80.8687959,69.1697624 C81.3555436,69.1697624 81.8106842,69.0513326 82.2226287,68.854299 L92.4580256,79.0361171 L92.4580256,89.0827367 C92.4580256,89.3615183 92.56865,89.6277234 92.7667205,89.8237089 L94.8822817,91.9281959 C94.6842112,92.337984 94.5651582,92.7907421 94.5651582,93.2749418 C94.5651582,95.0084186 95.9832585,96.4190956 97.7258572,96.4190956 C99.4684559,96.4190956 100.886556,95.0084186 100.886556,93.2749418 C100.886556,91.541465 99.4684559,90.130788 97.7258572,90.130788 L97.7258572,90.130788 Z M80.8687959,67.0736599 C80.2882809,67.0736599 79.8152296,66.6041329 79.8152296,66.0256086 C79.8152296,65.4470843 80.2882809,64.9775573 80.8687959,64.9775573 C81.449311,64.9775573 81.9223623,65.4470843 81.9223623,66.0256086 C81.9223623,66.6041329 81.449311,67.0736599 80.8687959,67.0736599 L80.8687959,67.0736599 Z M97.7258572,94.3229931 C97.1453422,94.3229931 96.6722909,93.8534661 96.6722909,93.2749418 C96.6722909,92.6964175 97.1453422,92.2268905 97.7258572,92.2268905 C98.3063723,92.2268905 98.7794236,92.6964175 98.7794236,93.2749418 C98.7794236,93.8534661 98.3063723,94.3229931 97.7258572,94.3229931 L97.7258572,94.3229931 Z" id="Shape" stroke="#00C1F2" stroke-width="0.3" fill="#FFFFFF"></path>
                        <path d="M107.207954,77.7470141 L107.207954,73.3619675 C107.207954,73.0831859 107.09733,72.8169809 106.899259,72.6209953 L99.524295,65.2846363 C99.3272781,65.0876027 99.0586186,64.9775573 98.7794236,64.9775573 L93.3177357,64.9775573 C92.8815592,63.7607698 91.7226363,62.8814547 90.3508929,62.8814547 C88.6082942,62.8814547 87.1901939,64.2921318 87.1901939,66.0256086 C87.1901939,67.7590854 88.6082942,69.1697624 90.3508929,69.1697624 C91.7226363,69.1697624 92.8815592,68.2904474 93.3177357,67.0736599 L98.3432471,67.0736599 L105.100822,73.7958607 L105.100822,77.7470141 C103.877631,78.1809073 102.993689,79.3337637 102.993689,80.6983265 C102.993689,82.4318033 104.411789,83.8424803 106.154388,83.8424803 C107.896987,83.8424803 109.315087,82.4318033 109.315087,80.6983265 C109.315087,79.3337637 108.431145,78.1809073 107.207954,77.7470141 L107.207954,77.7470141 Z M90.3508929,67.0736599 C89.7703779,67.0736599 89.2973266,66.6041329 89.2973266,66.0256086 C89.2973266,65.4470843 89.7703779,64.9775573 90.3508929,64.9775573 C90.931408,64.9775573 91.4044593,65.4470843 91.4044593,66.0256086 C91.4044593,66.6041329 90.931408,67.0736599 90.3508929,67.0736599 L90.3508929,67.0736599 Z M106.154388,81.7463777 C105.573873,81.7463777 105.100822,81.2768508 105.100822,80.6983265 C105.100822,80.1198022 105.573873,79.6502752 106.154388,79.6502752 C106.734903,79.6502752 107.207954,80.1198022 107.207954,80.6983265 C107.207954,81.2768508 106.734903,81.7463777 106.154388,81.7463777 L106.154388,81.7463777 Z" id="Shape" stroke="#00C1F2" stroke-width="0.3" fill="#FFFFFF"></path>
                        <path d="M92.4590791,119.670113 L92.4590791,104.610664 C93.6812161,104.176771 94.5651582,103.023915 94.5651582,101.659352 C94.5651582,99.9258752 93.147058,98.5151982 91.4044593,98.5151982 C90.0327159,98.5151982 88.8737929,99.3945132 88.4376165,100.611301 L77.5142408,100.611301 C77.0780643,99.3945132 75.9191413,98.5151982 74.547398,98.5151982 C73.1756546,98.5151982 72.0167316,99.3945132 71.5805552,100.611301 L65.5014775,100.611301 L61.5874785,96.7177902 C61.785549,96.3080022 61.904602,95.855244 61.904602,95.3710444 C61.904602,93.6375675 60.4865017,92.2268905 58.743903,92.2268905 C57.0013043,92.2268905 55.583204,93.6375675 55.583204,95.3710444 C55.583204,97.1045212 57.0013043,98.5151982 58.743903,98.5151982 C59.2306507,98.5151982 59.6857913,98.3967684 60.0977358,98.1997348 L64.3204296,102.400324 C64.5174465,102.597358 64.7861059,102.707403 65.065301,102.707403 L71.5805552,102.707403 C72.0167316,103.924191 73.1756546,104.803506 74.547398,104.803506 C75.9191413,104.803506 77.0780643,103.924191 77.5142408,102.707403 L88.43867,102.707403 C88.7568471,103.595103 89.4595758,104.294153 90.3519465,104.610664 L90.3519465,119.670113 C89.128756,120.104006 88.2448138,121.256863 88.2448138,122.621426 C88.2448138,124.354902 89.6629141,125.765579 91.4055128,125.765579 C93.1481115,125.765579 94.5662118,124.354902 94.5662118,122.621426 C94.5662118,121.256863 93.6822697,120.104006 92.4590791,119.670113 L92.4590791,119.670113 Z M58.743903,96.4190956 C58.163388,96.4190956 57.6903367,95.9495687 57.6903367,95.3710444 C57.6903367,94.79252 58.163388,94.3229931 58.743903,94.3229931 C59.3244181,94.3229931 59.7974693,94.79252 59.7974693,95.3710444 C59.7974693,95.9495687 59.3244181,96.4190956 58.743903,96.4190956 L58.743903,96.4190956 Z M74.547398,102.707403 C73.9668829,102.707403 73.4938316,102.237876 73.4938316,101.659352 C73.4938316,101.080828 73.9668829,100.611301 74.547398,100.611301 C75.127913,100.611301 75.6009643,101.080828 75.6009643,101.659352 C75.6009643,102.237876 75.127913,102.707403 74.547398,102.707403 L74.547398,102.707403 Z M91.4044593,123.668429 C90.8239442,123.668429 90.3508929,123.198902 90.3508929,122.620378 C90.3508929,122.041853 90.8239442,121.572326 91.4044593,121.572326 C91.9849743,121.572326 92.4580256,122.041853 92.4580256,122.620378 C92.4580256,123.198902 91.9849743,123.668429 91.4044593,123.668429 L91.4044593,123.668429 Z M91.4044593,102.707403 C90.8239442,102.707403 90.3508929,102.237876 90.3508929,101.659352 C90.3508929,101.080828 90.8239442,100.611301 91.4044593,100.611301 C91.9849743,100.611301 92.4580256,101.080828 92.4580256,101.659352 C92.4580256,102.237876 91.9849743,102.707403 91.4044593,102.707403 L91.4044593,102.707403 Z" id="Shape" stroke="#00C1F2" stroke-width="0.3" fill="#FFFFFF"></path>
                        <path d="M87.1901939,84.0353217 L87.1901939,80.6983265 C87.1901939,80.4195448 87.0795695,80.1533398 86.881499,79.9573542 L74.2302745,67.3723545 C74.428345,66.9625664 74.547398,66.5098083 74.547398,66.0256086 C74.547398,64.2921318 73.1292977,62.8814547 71.386699,62.8814547 C70.0149556,62.8814547 68.8560327,63.7607698 68.4198562,64.9775573 L64.0117347,64.9775573 C63.4301661,64.9775573 62.9581683,65.4460362 62.9581683,66.0256086 L62.9581683,68.7358692 L59.0441694,72.6293797 C58.632225,72.432346 58.1770843,72.3139162 57.6903367,72.3139162 C55.947738,72.3139162 54.5296377,73.7245933 54.5296377,75.4580701 C54.5296377,77.1915469 55.947738,78.6022239 57.6903367,78.6022239 C59.4329354,78.6022239 60.8510357,77.1915469 60.8510357,75.4580701 C60.8510357,74.9738704 60.7319827,74.5211122 60.5339122,74.1113242 L64.7566061,69.9107347 C64.9546765,69.7147491 65.065301,69.448544 65.065301,69.1697624 L65.065301,67.0736599 L68.4198562,67.0736599 C68.8560327,68.2904474 70.0149556,69.1697624 71.386699,69.1697624 C71.8734466,69.1697624 72.3285873,69.0513326 72.7405317,68.854299 L85.0830613,81.1322197 L85.0830613,84.0353217 C83.8598708,84.469215 82.9759286,85.6220714 82.9759286,86.9866341 C82.9759286,88.7201109 84.3940289,90.130788 86.1366276,90.130788 C87.8792263,90.130788 89.2973266,88.7201109 89.2973266,86.9866341 C89.2973266,85.6220714 88.4133844,84.469215 87.1901939,84.0353217 L87.1901939,84.0353217 Z M57.6903367,76.5061214 C57.1098216,76.5061214 56.6367704,76.0365944 56.6367704,75.4580701 C56.6367704,74.8795458 57.1098216,74.4100188 57.6903367,74.4100188 C58.2708517,74.4100188 58.743903,74.8795458 58.743903,75.4580701 C58.743903,76.0365944 58.2708517,76.5061214 57.6903367,76.5061214 L57.6903367,76.5061214 Z M71.386699,67.0736599 C70.8061839,67.0736599 70.3331326,66.6041329 70.3331326,66.0256086 C70.3331326,65.4470843 70.8061839,64.9775573 71.386699,64.9775573 C71.967214,64.9775573 72.4402653,65.4470843 72.4402653,66.0256086 C72.4402653,66.6041329 71.967214,67.0736599 71.386699,67.0736599 L71.386699,67.0736599 Z M86.1366276,88.0346854 C85.5561126,88.0346854 85.0830613,87.5651584 85.0830613,86.9866341 C85.0830613,86.4081098 85.5561126,85.9385829 86.1366276,85.9385829 C86.7171426,85.9385829 87.1901939,86.4081098 87.1901939,86.9866341 C87.1901939,87.5651584 86.7171426,88.0346854 86.1366276,88.0346854 L86.1366276,88.0346854 Z" id="Shape" stroke="#00C1F2" stroke-width="0.3" fill="#FFFFFF"></path>
                        <path d="M84.0294949,92.2268905 C82.6577516,92.2268905 81.4988286,93.1062055 81.0626522,94.3229931 L68.6621764,94.3229931 L62.6494734,88.3417644 C62.4524565,88.1447308 62.1837971,88.0346854 61.904602,88.0346854 L50.7515488,88.0346854 L48.2082397,85.5046896 L48.2082397,76.9400146 L56.336504,68.854299 C56.7484484,69.0513326 57.203589,69.1697624 57.6903367,69.1697624 C59.4329354,69.1697624 60.8510357,67.7590854 60.8510357,66.0256086 C60.8510357,64.2921318 59.4329354,62.8814547 57.6903367,62.8814547 C55.947738,62.8814547 54.5296377,64.2921318 54.5296377,66.0256086 C54.5296377,66.5098083 54.6486907,66.9625664 54.8467612,67.3723545 L46.409802,75.7651491 C46.2117315,75.9611347 46.1011071,76.2273397 46.1011071,76.5061214 L46.1011071,85.9385829 C46.1011071,86.2173645 46.2117315,86.4835695 46.409802,86.6795551 L49.570501,89.8237089 C49.7675179,90.0207426 50.0361773,90.130788 50.3153724,90.130788 L61.4684255,90.130788 L67.4811286,96.1120166 C67.6781455,96.3090502 67.9468049,96.4190956 68.226,96.4190956 L81.0626522,96.4190956 C81.4988286,97.6358832 82.6577516,98.5151982 84.0294949,98.5151982 C85.7720936,98.5151982 87.1901939,97.1045212 87.1901939,95.3710444 C87.1901939,93.6375675 85.7720936,92.2268905 84.0294949,92.2268905 L84.0294949,92.2268905 Z M57.6903367,64.9775573 C58.2708517,64.9775573 58.743903,65.4470843 58.743903,66.0256086 C58.743903,66.6041329 58.2708517,67.0736599 57.6903367,67.0736599 C57.1098216,67.0736599 56.6367704,66.6041329 56.6367704,66.0256086 C56.6367704,65.4470843 57.1098216,64.9775573 57.6903367,64.9775573 L57.6903367,64.9775573 Z M84.0294949,96.4190956 C83.4489799,96.4190956 82.9759286,95.9495687 82.9759286,95.3710444 C82.9759286,94.79252 83.4489799,94.3229931 84.0294949,94.3229931 C84.61001,94.3229931 85.0830613,94.79252 85.0830613,95.3710444 C85.0830613,95.9495687 84.61001,96.4190956 84.0294949,96.4190956 L84.0294949,96.4190956 Z" id="Shape" stroke="#00C1F2" stroke-width="0.3" fill="#FFFFFF"></path>
                        <path d="M106.154388,88.0346854 C105.66764,88.0346854 105.2125,88.1531152 104.800555,88.3501488 L100.886556,84.4566383 L100.886556,78.4093825 C102.109747,77.9754892 102.993689,76.8226328 102.993689,75.4580701 C102.993689,73.7245933 101.575589,72.3139162 99.8329899,72.3139162 C98.0903912,72.3139162 96.6722909,73.7245933 96.6722909,75.4580701 C96.6722909,76.8226328 97.5562331,77.9754892 98.7794236,78.4093825 L98.7794236,84.8905316 C98.7794236,85.1693132 98.890048,85.4355182 99.0881185,85.6315038 L103.310812,89.8320934 C103.112742,90.2418814 102.993689,90.6946396 102.993689,91.1788392 C102.993689,92.543402 103.877631,93.6962584 105.100822,94.1301516 L105.100822,94.9371511 L96.9809858,103.014482 C96.7829154,103.210468 96.6722909,103.476673 96.6722909,103.755455 L96.6722909,104.996347 C95.4491004,105.430241 94.5651582,106.583097 94.5651582,107.94766 C94.5651582,109.312222 95.4491004,110.465079 96.6722909,110.898972 L96.6722909,113.381806 C95.4491004,113.815699 94.5651582,114.968555 94.5651582,116.333118 C94.5651582,118.066595 95.9832585,119.477272 97.7258572,119.477272 C99.4684559,119.477272 100.886556,118.066595 100.886556,116.333118 C100.886556,114.968555 100.002614,113.815699 98.7794236,113.381806 L98.7794236,110.898972 C100.002614,110.465079 100.886556,109.312222 100.886556,107.94766 C100.886556,106.583097 100.002614,105.430241 98.7794236,104.996347 L98.7794236,104.189348 L106.899259,96.1120166 C107.09733,95.916031 107.207954,95.649826 107.207954,95.3710444 L107.207954,94.1301516 C108.431145,93.6962584 109.315087,92.543402 109.315087,91.1788392 C109.315087,89.4453624 107.896987,88.0346854 106.154388,88.0346854 L106.154388,88.0346854 Z M99.8329899,76.5061214 C99.2524748,76.5061214 98.7794236,76.0365944 98.7794236,75.4580701 C98.7794236,74.8795458 99.2524748,74.4100188 99.8329899,74.4100188 C100.413505,74.4100188 100.886556,74.8795458 100.886556,75.4580701 C100.886556,76.0365944 100.413505,76.5061214 99.8329899,76.5061214 L99.8329899,76.5061214 Z M97.7258572,117.380121 C97.1453422,117.380121 96.6722909,116.910594 96.6722909,116.33207 C96.6722909,115.753546 97.1453422,115.284019 97.7258572,115.284019 C98.3063723,115.284019 98.7794236,115.753546 98.7794236,116.33207 C98.7794236,116.910594 98.3063723,117.380121 97.7258572,117.380121 L97.7258572,117.380121 Z M97.7258572,108.995711 C97.1453422,108.995711 96.6722909,108.526184 96.6722909,107.94766 C96.6722909,107.369135 97.1453422,106.899608 97.7258572,106.899608 C98.3063723,106.899608 98.7794236,107.369135 98.7794236,107.94766 C98.7794236,108.526184 98.3063723,108.995711 97.7258572,108.995711 L97.7258572,108.995711 Z M106.154388,92.2268905 C105.573873,92.2268905 105.100822,91.7573635 105.100822,91.1788392 C105.100822,90.6003149 105.573873,90.130788 106.154388,90.130788 C106.734903,90.130788 107.207954,90.6003149 107.207954,91.1788392 C107.207954,91.7573635 106.734903,92.2268905 106.154388,92.2268905 L106.154388,92.2268905 Z" id="Shape" stroke="#00C1F2" stroke-width="0.3" fill="#FFFFFF"></path>
                    </g>
                </g>
            </g>
        </g>
    </g>
</svg>
