
<svg width="65px" height="60px" viewBox="0 0 65 60" version="1.1" xmlns="http://www.w3.org/2000/svg" xmlns:xlink="http://www.w3.org/1999/xlink">
    <!-- Generator: Sketch 43.1 (39012) - http://www.bohemiancoding.com/sketch -->
    <desc>Created with Sketch.</desc>
    <defs></defs>
    <g id="Page-1" stroke="none" stroke-width="1" fill="none" fill-rule="evenodd">
        <g id="iPhone-6-Plus" transform="translate(-105.000000, -1630.000000)" fill="#007FF8">
            <g id="Group-13" transform="translate(105.000000, 1626.000000)">
                <g id="Embed-Copy">
                    <g id="Group-21" transform="translate(0.000000, 4.825172)">
                        <path d="M61.3078543,28.3798304 L61.3078543,5.25552415 C61.3078543,2.35762813 58.8953364,0 55.9299723,0 L8.60461112,0 C5.63924702,0 3.22672917,2.35762813 3.22672917,5.25552415 L3.22672917,21.0220966 C1.44772582,21.0220966 0,22.4368837 0,24.1754111 L0,55.708556 C0,57.4470833 1.44772582,58.8618704 3.22672917,58.8618704 L26.8894098,58.8618704 C28.6684131,58.8618704 30.1161389,57.4470833 30.1161389,55.708556 L39.1305447,55.708556 C40.1448132,55.708556 41.0794891,55.2565809 41.6947188,54.4693034 C42.3099485,53.6820258 42.5100057,52.681374 42.2432627,51.7259198 L40.1286796,44.1464028 L46.2497848,44.1464028 L46.2497848,55.708556 C46.2497848,57.4470833 47.6975106,58.8618704 49.476514,58.8618704 L61.3078543,58.8618704 C63.0868576,58.8618704 64.5345834,57.4470833 64.5345834,55.708556 L64.5345834,31.5331449 C64.5345834,29.7946175 63.0868576,28.3798304 61.3078543,28.3798304 L61.3078543,28.3798304 Z M27.9649862,55.708556 C27.9649862,56.2877147 27.4820524,56.7596608 26.8894098,56.7596608 L3.22672917,56.7596608 C2.63408658,56.7596608 2.15115278,56.2877147 2.15115278,55.708556 L2.15115278,53.6063463 L27.9649862,53.6063463 L27.9649862,55.708556 L27.9649862,55.708556 Z M27.9649862,51.5041366 L2.15115278,51.5041366 L2.15115278,28.3798304 L27.9649862,28.3798304 L27.9649862,51.5041366 L27.9649862,51.5041366 Z M27.9649862,26.2776207 L2.15115278,26.2776207 L2.15115278,24.1754111 C2.15115278,23.5962523 2.63408658,23.1243062 3.22672917,23.1243062 L26.8894098,23.1243062 C27.4820524,23.1243062 27.9649862,23.5962523 27.9649862,24.1754111 L27.9649862,26.2776207 L27.9649862,26.2776207 Z M40.1684759,52.2788009 C40.2577487,52.5972857 40.191063,52.9304859 39.9856279,53.1932621 C39.7801928,53.4560383 39.4693512,53.6063463 39.1305447,53.6063463 L30.1161389,53.6063463 L30.1161389,51.5041366 L39.952285,51.5041366 L40.1684759,52.2788009 L40.1684759,52.2788009 Z M30.1161389,49.401927 L30.1161389,44.1464028 L37.8990097,44.1464028 L39.3660959,49.401927 L30.1161389,49.401927 L30.1161389,49.401927 Z M46.2497848,42.0441932 L30.1161389,42.0441932 L30.1161389,35.7375642 L46.2497848,35.7375642 L46.2497848,42.0441932 L46.2497848,42.0441932 Z M46.2497848,31.5331449 L46.2497848,33.6353545 L30.1161389,33.6353545 L30.1161389,24.1754111 C30.1161389,22.4368837 28.6684131,21.0220966 26.8894098,21.0220966 L5.37788195,21.0220966 L5.37788195,5.25552415 C5.37788195,3.51699676 6.82560777,2.10220966 8.60461112,2.10220966 L55.9299723,2.10220966 C57.7089757,2.10220966 59.1567015,3.51699676 59.1567015,5.25552415 L59.1567015,28.3798304 L49.476514,28.3798304 C47.6975106,28.3798304 46.2497848,29.7946175 46.2497848,31.5331449 L46.2497848,31.5331449 Z M62.3834307,55.708556 C62.3834307,56.2877147 61.9004969,56.7596608 61.3078543,56.7596608 L49.476514,56.7596608 C48.8838714,56.7596608 48.4009376,56.2877147 48.4009376,55.708556 L48.4009376,53.6063463 L62.3834307,53.6063463 L62.3834307,55.708556 L62.3834307,55.708556 Z M62.3834307,51.5041366 L48.4009376,51.5041366 L48.4009376,35.7375642 L62.3834307,35.7375642 L62.3834307,51.5041366 L62.3834307,51.5041366 Z M62.3834307,33.6353545 L48.4009376,33.6353545 L48.4009376,31.5331449 C48.4009376,30.9539861 48.8838714,30.4820401 49.476514,30.4820401 L61.3078543,30.4820401 C61.9004969,30.4820401 62.3834307,30.9539861 62.3834307,31.5331449 L62.3834307,33.6353545 L62.3834307,33.6353545 Z" id="Shape"></path>
                        <polygon id="Rectangle-path" points="8.13285257 46.5556606 21.039883 33.9422915 22.5609631 35.428764 9.6539327 48.042133"></polygon>
                        <polygon id="Rectangle-path" points="50.8648495 43.4037777 56.2417727 38.1491905 57.7628528 39.635663 52.3859296 44.8902502"></polygon>
                        <polygon id="Rectangle-path" points="53.0155882 47.6126725 58.3925114 42.3580853 59.9135915 43.8445577 54.5366683 49.0991449"></polygon>
                        <polygon id="Rectangle-path" points="24.8209936 16.015441 31.274081 9.70917451 32.7951612 11.195647 26.3420738 17.5019134"></polygon>
                        <polygon id="Rectangle-path" points="31.1337527 16.0746122 37.58684 9.7683457 39.1079202 11.2548182 32.6548328 17.5610846"></polygon>
                    </g>
                </g>
            </g>
        </g>
    </g>
</svg>