<svg width="60px" height="60px" viewBox="0 0 60 60" version="1.1" xmlns="http://www.w3.org/2000/svg" xmlns:xlink="http://www.w3.org/1999/xlink">
    <!-- Generator: Sketch 43.1 (39012) - http://www.bohemiancoding.com/sketch -->
    <desc>Created with Sketch.</desc>
    <defs></defs>
    <g id="Page-1" stroke="none" stroke-width="1" fill="none" fill-rule="evenodd">
        <g id="iPhone-6-Plus" transform="translate(-30.000000, -1776.000000)" fill="#007FF8">
            <g id="Multi-Copy" transform="translate(30.000000, 1772.000000)">
                <g id="Group-25" transform="translate(0.000000, 4.148598)">
                    <path d="M22.8960464,11.7723741 L20.9050858,11.7723741 L20.9050858,2.94309352 C20.9050858,1.32046796 19.5651694,0 17.918645,0 L5.97288166,0 C4.32635728,0 2.98644083,1.32046796 2.98644083,2.94309352 L2.98644083,11.7723741 L0.995480276,11.7723741 C0.445975164,11.7723741 0,12.2118761 0,12.7534053 C0,15.4581082 2.23286226,17.6585611 4.97740138,17.6585611 L18.9141253,17.6585611 C21.6586644,17.6585611 23.8915266,15.4581082 23.8915266,12.7534053 C23.8915266,12.2118761 23.4455515,11.7723741 22.8960464,11.7723741 L22.8960464,11.7723741 Z M4.97740138,2.94309352 C4.97740138,2.40254535 5.42437203,1.96206235 5.97288166,1.96206235 L17.918645,1.96206235 C18.4671546,1.96206235 18.9141253,2.40254535 18.9141253,2.94309352 L18.9141253,11.7723741 L4.97740138,11.7723741 L4.97740138,2.94309352 L4.97740138,2.94309352 Z M18.9141253,15.6964988 L4.97740138,15.6964988 C3.6792951,15.6964988 2.57232103,14.8763567 2.16118768,13.7344364 L3.98192111,13.7344364 L19.9096055,13.7344364 L21.730339,13.7344364 C21.3192056,14.8763567 20.2122315,15.6964988 18.9141253,15.6964988 L18.9141253,15.6964988 Z" id="Shape"></path>
                    <path d="M58.7333363,11.7723741 L56.7423758,11.7723741 L56.7423758,2.94309352 C56.7423758,1.32046796 55.4024593,0 53.7559349,0 L41.8101716,0 C40.1636472,0 38.8237308,1.32046796 38.8237308,2.94309352 L38.8237308,11.7723741 L36.8327702,11.7723741 C36.2832651,11.7723741 35.83729,12.2118761 35.83729,12.7534053 C35.83729,15.4581082 38.0701522,17.6585611 40.8146913,17.6585611 L54.7514152,17.6585611 C57.4959543,17.6585611 59.7288166,15.4581082 59.7288166,12.7534053 C59.7288166,12.2118761 59.2828414,11.7723741 58.7333363,11.7723741 L58.7333363,11.7723741 Z M40.8146913,2.94309352 C40.8146913,2.40254535 41.261662,1.96206235 41.8101716,1.96206235 L53.7559349,1.96206235 C54.3044446,1.96206235 54.7514152,2.40254535 54.7514152,2.94309352 L54.7514152,11.7723741 L40.8146913,11.7723741 L40.8146913,2.94309352 L40.8146913,2.94309352 Z M54.7514152,15.6964988 L40.8146913,15.6964988 C39.5165851,15.6964988 38.409611,14.8763567 37.9984776,13.7344364 L39.8192111,13.7344364 L55.7468955,13.7344364 L57.5676289,13.7344364 C57.1564955,14.8763567 56.0495215,15.6964988 54.7514152,15.6964988 L54.7514152,15.6964988 Z" id="Shape"></path>
                    <path d="M22.8960464,52.9756834 L20.9050858,52.9756834 L20.9050858,44.1464028 C20.9050858,42.5237773 19.5651694,41.2033093 17.918645,41.2033093 L5.97288166,41.2033093 C4.32635728,41.2033093 2.98644083,42.5237773 2.98644083,44.1464028 L2.98644083,52.9756834 L0.995480276,52.9756834 C0.445975164,52.9756834 0,53.4151854 0,53.9567146 C0,56.6614175 2.23286226,58.8618704 4.97740138,58.8618704 L18.9141253,58.8618704 C21.6586644,58.8618704 23.8915266,56.6614175 23.8915266,53.9567146 C23.8915266,53.4151854 23.4455515,52.9756834 22.8960464,52.9756834 L22.8960464,52.9756834 Z M4.97740138,44.1464028 C4.97740138,43.6058547 5.42437203,43.1653717 5.97288166,43.1653717 L17.918645,43.1653717 C18.4671546,43.1653717 18.9141253,43.6058547 18.9141253,44.1464028 L18.9141253,52.9756834 L4.97740138,52.9756834 L4.97740138,44.1464028 L4.97740138,44.1464028 Z M18.9141253,56.8998081 L4.97740138,56.8998081 C3.6792951,56.8998081 2.57232103,56.079666 2.16118768,54.9377458 L3.98192111,54.9377458 L19.9096055,54.9377458 L21.730339,54.9377458 C21.3192056,56.079666 20.2122315,56.8998081 18.9141253,56.8998081 L18.9141253,56.8998081 Z" id="Shape"></path>
                    <path d="M58.7333363,52.9756834 L56.7423758,52.9756834 L56.7423758,44.1464028 C56.7423758,42.5237773 55.4024593,41.2033093 53.7559349,41.2033093 L41.8101716,41.2033093 C40.1636472,41.2033093 38.8237308,42.5237773 38.8237308,44.1464028 L38.8237308,52.9756834 L36.8327702,52.9756834 C36.2832651,52.9756834 35.83729,53.4151854 35.83729,53.9567146 C35.83729,56.6614175 38.0701522,58.8618704 40.8146913,58.8618704 L54.7514152,58.8618704 C57.4959543,58.8618704 59.7288166,56.6614175 59.7288166,53.9567146 C59.7288166,53.4151854 59.2828414,52.9756834 58.7333363,52.9756834 L58.7333363,52.9756834 Z M40.8146913,44.1464028 C40.8146913,43.6058547 41.261662,43.1653717 41.8101716,43.1653717 L53.7559349,43.1653717 C54.3044446,43.1653717 54.7514152,43.6058547 54.7514152,44.1464028 L54.7514152,52.9756834 L40.8146913,52.9756834 L40.8146913,44.1464028 L40.8146913,44.1464028 Z M54.7514152,56.8998081 L40.8146913,56.8998081 C39.5165851,56.8998081 38.409611,56.079666 37.9984776,54.9377458 L39.8192111,54.9377458 L55.7468955,54.9377458 L57.5676289,54.9377458 C57.1564955,56.079666 56.0495215,56.8998081 54.7514152,56.8998081 L54.7514152,56.8998081 Z" id="Shape"></path>
                    <rect id="Rectangle-path" x="22.8960464" y="5.88618704" width="1.99096055" height="1.96206235"></rect>
                    <rect id="Rectangle-path" x="26.8779675" y="5.88618704" width="1.99096055" height="1.96206235"></rect>
                    <rect id="Rectangle-path" x="30.8598886" y="5.88618704" width="1.99096055" height="1.96206235"></rect>
                    <rect id="Rectangle-path" x="34.8418097" y="5.88618704" width="1.99096055" height="1.96206235"></rect>
                    <rect id="Rectangle-path" x="47.7830533" y="20.6016547" width="1.99096055" height="1.96206235"></rect>
                    <rect id="Rectangle-path" x="47.7830533" y="24.5257794" width="1.99096055" height="1.96206235"></rect>
                    <rect id="Rectangle-path" x="47.7830533" y="28.449904" width="1.99096055" height="1.96206235"></rect>
                    <rect id="Rectangle-path" x="47.7830533" y="32.3740287" width="1.99096055" height="1.96206235"></rect>
                    <rect id="Rectangle-path" x="47.7830533" y="36.2981534" width="1.99096055" height="1.96206235"></rect>
                    <rect id="Rectangle-path" x="9.95480276" y="20.6016547" width="1.99096055" height="1.96206235"></rect>
                    <rect id="Rectangle-path" x="9.95480276" y="24.5257794" width="1.99096055" height="1.96206235"></rect>
                    <rect id="Rectangle-path" x="9.95480276" y="28.449904" width="1.99096055" height="1.96206235"></rect>
                    <rect id="Rectangle-path" x="9.95480276" y="32.3740287" width="1.99096055" height="1.96206235"></rect>
                    <rect id="Rectangle-path" x="9.95480276" y="36.2981534" width="1.99096055" height="1.96206235"></rect>
                    <rect id="Rectangle-path" x="22.8960464" y="47.0894964" width="1.99096055" height="1.96206235"></rect>
                    <rect id="Rectangle-path" x="26.8779675" y="47.0894964" width="1.99096055" height="1.96206235"></rect>
                    <rect id="Rectangle-path" x="30.8598886" y="47.0894964" width="1.99096055" height="1.96206235"></rect>
                    <rect id="Rectangle-path" x="34.8418097" y="47.0894964" width="1.99096055" height="1.96206235"></rect>
                    <path d="M42.4572133,28.6016099 C42.0431756,22.3916219 37.0074,17.4272805 30.7059483,17.0192524 L30.7059483,16.9910554 L29.8644083,16.9910554 L29.0228683,16.9910554 L29.0228683,17.0192524 C22.7214165,17.4272805 17.6839579,22.3916219 17.2699202,28.6016099 L17.2413079,28.6016099 L17.2413079,29.4309352 L17.2413079,30.2602605 L17.2699202,30.2602605 C17.6839579,36.4702486 22.7214165,41.4329313 29.0228683,41.8409593 L29.0228683,41.8708151 L29.8644083,41.8708151 L30.7059483,41.8708151 L30.7059483,41.8409593 C37.0074,41.4329313 42.0431756,36.4702486 42.4572133,30.2602605 L42.4875087,30.2602605 L42.4875087,29.4309352 L42.4875087,28.6016099 L42.4572133,28.6016099 L42.4572133,28.6016099 Z M25.1433687,19.7029492 C24.3304411,20.7678029 23.655526,22.1030167 23.1640666,23.625658 L20.6428127,23.625658 C21.7401809,21.9388103 23.298713,20.5737408 25.1433687,19.7029492 L25.1433687,19.7029492 Z M19.7625618,25.2843086 L22.7214165,25.2843086 C22.4958838,26.3325758 22.352822,27.4455304 22.3073788,28.6016099 L18.9563665,28.6016099 C19.0455697,27.4339198 19.324961,26.317648 19.7625618,25.2843086 L19.7625618,25.2843086 Z M18.9563665,30.2602605 L22.3073788,30.2602605 C22.352822,31.41634 22.4958838,32.5292946 22.7214165,33.5775618 L19.7625618,33.5775618 C19.324961,32.5442225 19.0455697,31.4279506 18.9563665,30.2602605 L18.9563665,30.2602605 Z M20.6428127,35.2362125 L23.1623835,35.2362125 C23.6538429,36.7588538 24.328758,38.0940675 25.1433687,39.1589213 C23.298713,38.2881297 21.7401809,36.9247188 20.6428127,35.2362125 L20.6428127,35.2362125 Z M29.0228683,40.1060108 C27.292662,39.6498818 25.8031361,37.8187315 24.8993221,35.2362125 L29.0228683,35.2362125 L29.0228683,40.1060108 L29.0228683,40.1060108 Z M29.0228683,33.5775618 L24.4263766,33.5775618 C24.1890623,32.5442225 24.0392682,31.4279506 23.9904589,30.2602605 L29.0228683,30.2602605 L29.0228683,33.5775618 L29.0228683,33.5775618 Z M29.0228683,28.6016099 L23.9904589,28.6016099 C24.0392682,27.4339198 24.1890623,26.317648 24.4263766,25.2843086 L29.0228683,25.2843086 L29.0228683,28.6016099 L29.0228683,28.6016099 Z M29.0228683,23.625658 L24.8993221,23.625658 C25.8031361,21.0431389 27.292662,19.2119886 29.0228683,18.7575183 L29.0228683,23.625658 L29.0228683,23.625658 Z M39.0860039,23.625658 L36.5681162,23.625658 C36.0749737,22.1030167 35.4017417,20.7678029 34.5854478,19.7029492 C36.4284205,20.5737408 37.9886357,21.9388103 39.0860039,23.625658 L39.0860039,23.625658 Z M30.7059483,18.7575183 C32.4344715,19.2119886 33.9256805,21.0431389 34.8294945,23.625658 L30.7059483,23.625658 L30.7059483,18.7575183 L30.7059483,18.7575183 Z M30.7059483,25.2843086 L35.3007569,25.2843086 C35.5397542,26.317648 35.6861822,27.4339198 35.7383577,28.6016099 L30.7059483,28.6016099 L30.7059483,25.2843086 L30.7059483,25.2843086 Z M30.7059483,30.2602605 L35.7383577,30.2602605 C35.6895484,31.4279506 35.5397542,32.5442225 35.3007569,33.5775618 L30.7059483,33.5775618 L30.7059483,30.2602605 L30.7059483,30.2602605 Z M30.7059483,40.1060108 L30.7059483,35.2362125 L34.8294945,35.2362125 C33.9256805,37.8187315 32.4344715,39.6498818 30.7059483,40.1060108 L30.7059483,40.1060108 Z M34.5854478,39.1589213 C35.3983755,38.0924089 36.0749737,36.7588538 36.5681162,35.2362125 L39.0860039,35.2362125 C37.9886357,36.9247188 36.4284205,38.2881297 34.5854478,39.1589213 L34.5854478,39.1589213 Z M39.9662548,33.5775618 L37.0074,33.5775618 C37.2329328,32.5292946 37.3759946,31.41634 37.4214377,30.2602605 L40.770767,30.2602605 C40.6832469,31.4279506 40.4038556,32.5442225 39.9662548,33.5775618 L39.9662548,33.5775618 Z M37.4214377,28.6016099 C37.3759946,27.4455304 37.2329328,26.3325758 37.0074,25.2843086 L39.9662548,25.2843086 C40.4038556,26.317648 40.6832469,27.4339198 40.7724501,28.6016099 L37.4214377,28.6016099 L37.4214377,28.6016099 Z" id="Shape"></path>
                </g>
            </g>
        </g>
    </g>
</svg>