<svg width="61px" height="62px" viewBox="0 0 61 62" version="1.1" xmlns="http://www.w3.org/2000/svg" xmlns:xlink="http://www.w3.org/1999/xlink">
    <!-- Generator: Sketch 43.1 (39012) - http://www.bohemiancoding.com/sketch -->
    <desc>Created with Sketch.</desc>
    <defs></defs>
    <g id="Page-1" stroke="none" stroke-width="1" fill="none" fill-rule="evenodd">
        <g id="iPhone-6-Plus" transform="translate(-30.000000, -1953.000000)" fill="#00C6F1">
            <g id="Secure-Copy" transform="translate(30.000000, 1952.000000)">
                <g id="Group-20" transform="translate(0.000000, 2.000000)">
                    <g id="Group-19">
                        <path d="M26.6907447,6.06401935 L28.1008936,7.47416826 C26.8997871,8.67527471 26.8713752,10.6017471 28.0375684,11.7679402 L26.5852026,13.2203059 C24.6413124,11.2764157 24.6886585,8.0661055 26.6907447,6.06401935 L26.6907447,6.06401935 Z" id="Shape-Copy-5"></path>
                        <path d="M24.0829754,2.65101808 L25.4931243,4.06116699 C22.6907846,6.86350666 22.6237781,11.3583808 25.3453655,14.0799682 L23.8929997,15.5323339 C20.3944203,12.0337545 20.4789298,6.25506362 24.0829754,2.65101808 L24.0829754,2.65101808 Z" id="Shape-Copy-6"></path>
                        <path d="M21.4752061,-0.087826291 L22.885355,1.32232262 C18.481056,5.72662167 18.376886,12.7898765 22.6531626,17.0661531 L21.2007968,18.5185188 C16.1468231,13.4645451 16.2699274,5.11745246 21.4752061,-0.087826291 L21.4752061,-0.087826291 Z" id="Shape-Copy-7"></path>
                        <path d="M60.5610523,10.1502863 C60.5610523,5.22453388 56.4744123,1.2178318 51.4503859,1.2178318 C48.9571002,1.2178318 46.5792162,2.23315413 44.8704601,3.98292271 C43.161704,2.23315413 40.7838201,1.2178318 38.2905344,1.2178318 C33.266508,1.2178318 29.179868,5.22453388 29.179868,10.1502863 C29.179868,13.2210656 30.7560133,16.0258563 33.403168,17.6793529 L34.8345549,19.0827407 L17.0323128,36.5367568 L13.6988212,33.2684709 C13.3030133,32.8804054 12.6632421,32.8804054 12.2674343,33.2684709 L8.21824918,37.2384507 C7.82244134,37.6265162 7.82244134,38.253773 8.21824918,38.6418385 L11.5517408,41.9101244 L9.94623891,43.4842214 L6.6127473,40.2159355 C6.21693946,39.82787 5.57716822,39.82787 5.18136038,40.2159355 L1.00563827,44.3099771 C0.609830433,44.6980427 0.609830433,45.3252995 1.00563827,45.713365 L4.33912988,48.9816508 L0.542006584,52.7044994 C0.146198743,53.0925649 0.146198743,53.7198217 0.542006584,54.1078872 L7.12193232,60.5591043 C7.3193301,60.7526408 7.57847794,60.8499053 7.83762578,60.8499053 C8.09677363,60.8499053 8.35592147,60.7526408 8.55331925,60.5591043 L15.0077202,54.2309566 L18.3412119,57.4992424 C18.7370197,57.8873079 19.3767909,57.8873079 19.7725988,57.4992424 L24.8340801,52.5367677 C25.229888,52.1487022 25.229888,51.5214454 24.8340801,51.1333799 L21.5005885,47.865094 L42.8458676,26.9373457 L43.7711064,27.8444861 C45.457592,30.4398603 48.3183412,31.985175 51.4503859,31.985175 C56.4744123,31.985175 60.5610523,27.9784729 60.5610523,23.0527205 C60.5610523,20.6082055 59.5254732,18.2768348 57.7407949,16.6015034 C59.5254732,14.9261719 60.5610523,12.5948013 60.5610523,10.1502863 L60.5610523,10.1502863 Z M58.5364598,23.0527205 C58.5364598,26.8827585 55.3568372,30.0001851 51.4503859,30.0001851 C48.9844322,30.0001851 46.7340976,28.7665139 45.4292477,26.7001394 C45.3877435,26.6356272 45.3391533,26.575085 45.283477,26.5204978 L43.5615611,24.8322639 C43.1657532,24.4441984 42.525982,24.4441984 42.1301741,24.8322639 L19.3535081,47.1634001 C18.9577003,47.5514656 18.9577003,48.1787224 19.3535081,48.5667879 L22.6869997,51.8350738 L19.0569053,55.3941606 L15.7234137,52.1258748 C15.3276059,51.7378093 14.6878346,51.7378093 14.2920268,52.1258748 L7.83762578,58.4540225 L2.68908697,53.4061933 L6.48621027,49.6833448 C6.88201811,49.2952792 6.88201811,48.6680224 6.48621027,48.2799569 L3.15271866,45.0116711 L5.89705384,42.3210173 L9.23054545,45.5893031 C9.62635329,45.9773686 10.2661245,45.9773686 10.6619324,45.5893031 L13.6988212,42.6118183 C14.094629,42.2237528 14.094629,41.596496 13.6988212,41.2084305 L10.3653296,37.9401446 L12.9831277,35.3735527 L16.3166193,38.6418385 C16.7124272,39.0299041 17.3521984,39.0299041 17.7480062,38.6418385 L36.9816353,19.7844347 C37.3774432,19.3963691 37.3774432,18.7691123 36.9816353,18.3810468 L34.7535712,16.1965654 C34.6978949,16.1419782 34.6371572,16.0943385 34.5703456,16.0536462 C32.4627448,14.7743202 31.2044605,12.5680039 31.2044605,10.1502863 C31.2044605,6.32024829 34.3840831,3.20282168 38.2905344,3.20282168 C40.5631395,3.20282168 42.7152814,4.29059614 44.0484756,6.11281685 C44.4280867,6.6318917 45.3138459,6.6318917 45.693457,6.11281685 C47.0256389,4.29059614 49.1777808,3.20282168 51.4503859,3.20282168 C55.3568372,3.20282168 58.5364598,6.32024829 58.5364598,10.1502863 C58.5364598,12.3784374 57.426983,14.4884817 55.5684071,15.7955975 C55.3031855,15.9821865 55.1462796,16.28192 55.1462796,16.6015034 C55.1462796,16.9210868 55.3031855,17.2218127 55.5684071,17.4074093 C57.426983,18.7145251 58.5364598,20.8245694 58.5364598,23.0527205 L58.5364598,23.0527205 Z" id="Shape"></path>
                        <polygon id="Rectangle-path" points="24.413904 37.2382405 39.5957305 22.3533828 41.0273199 23.7569691 25.8454934 38.6418268"></polygon>
                        <polygon id="Rectangle-path" points="20.3651039 41.2058989 22.3893713 39.2212278 23.8209607 40.6248141 21.7966933 42.6094852"></polygon>
                        <path d="M51.4503859,6.18030651 C49.2172603,6.18030651 47.4012008,7.96084243 47.4012008,10.1502863 C47.4012008,12.3397301 49.2172603,14.120266 51.4503859,14.120266 C53.6835114,14.120266 55.499571,12.3397301 55.499571,10.1502863 C55.499571,7.96084243 53.6835114,6.18030651 51.4503859,6.18030651 L51.4503859,6.18030651 Z M51.4503859,12.1352762 C50.3338231,12.1352762 49.4257933,11.2450082 49.4257933,10.1502863 C49.4257933,9.05556435 50.3338231,8.16529639 51.4503859,8.16529639 C52.5669487,8.16529639 53.4749784,9.05556435 53.4749784,10.1502863 C53.4749784,11.2450082 52.5669487,12.1352762 51.4503859,12.1352762 L51.4503859,12.1352762 Z" id="Shape"></path>
                    </g>
                </g>
            </g>
        </g>
    </g>
</svg>