<svg width="52px" height="62px" viewBox="0 0 52 62" version="1.1" xmlns="http://www.w3.org/2000/svg" xmlns:xlink="http://www.w3.org/1999/xlink">
    <!-- Generator: Sketch 43.1 (39012) - http://www.bohemiancoding.com/sketch -->
    <desc>Created with Sketch.</desc>
    <defs></defs>
    <g id="Page-1" stroke="none" stroke-width="1" fill="none" fill-rule="evenodd">
        <g id="iPhone-6-Plus" transform="translate(-110.000000, -2078.000000)" fill="#00E2EF">
            <g id="Group-13" transform="translate(105.000000, 1626.000000)">
                <g id="Digital-voice-Copy" transform="translate(0.000000, 451.000000)">
                    <g id="Group-26" transform="translate(0.000000, 1.000000)">
                        <path d="M54.4986005,17.4443129 L54.4986005,45.1499864 L56.5996481,45.1499864 L56.5996481,47.2022586 L54.1403719,47.2022586 L38.1314402,47.2022586 L31.1083672,47.2022586 C23.5782128,47.2022586 17.4515582,53.186684 17.4515582,60.5420273 L17.4515582,61.5681633 L15.3505106,61.5681633 L15.3505106,60.5420273 C15.3505106,52.054856 22.4194851,45.1499864 31.1083672,45.1499864 L37.6902202,45.1499864 L37.6902202,38.9931701 L27.1849825,38.9931701 C24.2886885,38.9931701 21.9323636,36.6915469 21.9323636,33.8624898 L21.9323636,32.8363538 C21.9323636,32.2699267 22.4029983,31.8102177 22.9828874,31.8102177 C24.3527704,31.8102177 25.5209528,30.952368 25.9548192,29.7579456 L22.9828874,29.7579456 C22.4029983,29.7579456 21.9323636,29.2982367 21.9323636,28.7318096 L21.9323636,26.6795374 L19.4239701,26.6795374 C18.844081,26.6795374 18.3734464,26.2198285 18.3734464,25.6534014 L18.3734464,17.957381 C18.3734464,8.05619417 25.9779307,0 36.1144345,0 L36.6365449,0 C46.4862557,0 54.4986005,7.82531356 54.4986005,17.4443129 Z M39.7912677,45.1499864 L52.397553,45.1499864 L52.397553,17.4443129 C52.397553,8.95714163 45.327528,2.05227211 36.6365449,2.05227211 L36.1144345,2.05227211 C27.1356079,2.05227211 20.4744939,9.18699611 20.4744939,17.957381 L20.4744939,24.6272653 L22.9828874,24.6272653 C23.5627765,24.6272653 24.0334112,25.0869743 24.0334112,25.6534014 L24.0334112,27.7056735 L27.1849825,27.7056735 C27.7648716,27.7056735 28.2355063,28.1653825 28.2355063,28.7318096 C28.2355063,31.208902 26.4275549,33.282723 24.0334112,33.8624898 C24.0334112,35.5597189 25.4474162,36.940898 27.1849825,36.940898 L38.740744,36.940898 C39.3206331,36.940898 39.7912677,37.400607 39.7912677,37.9670341 L39.7912677,45.1499864 Z" id="Shape"></path>
                        <ellipse id="Oval-13" cx="27.6566462" cy="17.5909038" rx="2.57271128" ry="2.51298626"></ellipse>
                        <path d="M14.2634759,27.6062945 L15.5979704,28.9204117 C14.4853666,30.0160265 14.4780613,31.792022 15.5816883,32.878797 L14.236339,34.2036033 C12.3967383,32.3920926 12.4089119,29.4325399 14.2634759,27.6062945 L14.2634759,27.6062945 L14.2634759,27.6062945 Z" id="Shape-Copy-2"></path>
                        <path d="M11.583632,24.9673709 L12.9181266,26.2814882 C10.3222751,28.8377019 10.3045605,32.9814742 12.880135,35.5177205 L11.5347857,36.8425268 C8.22390468,33.5822019 8.24514773,28.2548777 11.583632,24.9673709 L11.583632,24.9673709 L11.583632,24.9673709 Z" id="Shape-Copy-3"></path>
                        <path d="M8.90378816,22.3284474 L10.2382827,23.6425647 C6.15851096,27.6600397 6.13172689,34.1715835 10.1785816,38.1566441 L8.83323234,39.4814503 C4.05040384,34.771654 4.08205626,27.076553 8.90378816,22.3284474 L8.90378816,22.3284474 L8.90378816,22.3284474 Z" id="Shape-Copy-4"></path>
                        <polygon id="Rectangle-path" points="49.9025167 25.3621278 49.7430432 47.2377996 47.6482626 47.2526078 47.8077362 25.376936 49.9025167 25.3621278"></polygon>
                        <polygon id="Rectangle-path" points="49.9480109 19.8919721 49.9267475 22.8087627 47.831967 22.8235709 47.8532303 19.9067803 49.9480109 19.8919721"></polygon>
                    </g>
                </g>
            </g>
        </g>
    </g>
</svg>