<svg xmlns="http://www.w3.org/2000/svg" xmlns:xlink="http://www.w3.org/1999/xlink" viewBox="0 0 383.8 307.14"><defs><style>.cls-1{fill:url(#linear-gradient);}.cls-2{fill:url(#linear-gradient-2);}.cls-3{fill:url(#linear-gradient-3);}</style><linearGradient id="linear-gradient" x1="-2" y1="180.6" x2="381.8" y2="180.6" gradientTransform="translate(2)" gradientUnits="userSpaceOnUse"><stop offset="0" stop-color="#005bfa"/><stop offset="0.11" stop-color="#0070f8"/><stop offset="0.41" stop-color="#00a5f4"/><stop offset="0.66" stop-color="#00ccf1"/><stop offset="0.87" stop-color="#00e3ef"/><stop offset="1" stop-color="#00ecee"/></linearGradient><linearGradient id="linear-gradient-2" x1="65.47" y1="50.51" x2="106.48" y2="50.51" gradientUnits="userSpaceOnUse"><stop offset="0.11" stop-color="#0071f8"/><stop offset="1" stop-color="#007ef7"/></linearGradient><linearGradient id="linear-gradient-3" x1="204.39" y1="20.5" x2="245.39" y2="20.5" gradientUnits="userSpaceOnUse"><stop offset="0" stop-color="#00b7f2"/><stop offset="0.4" stop-color="#00c4f1"/><stop offset="1" stop-color="#00d5f0"/></linearGradient></defs><title>Asset 1</title><g id="Layer_2" data-name="Layer 2"><g id="Layer_1-2" data-name="Layer 1"><path class="cls-1" d="M85.89,91.24c-9.38,0-17,12.79-17,22.16V240.34c0,9.37,7.6,25.89,17,25.89s17-16.52,17-25.89V113.41C102.87,104,95.27,91.24,85.89,91.24ZM17,140.95c-9.38,0-17,12.42-17,21.8v17.07c0,9.37,7.6,21.8,17,21.8s17-12.42,17-21.8V162.74C33.95,153.37,26.35,140.95,17,140.95Zm137.84-24c-9.38,0-17,16.52-17,25.89V203.5c0,9.37,7.6,25.89,17,25.89s17-16.52,17-25.89V142.79C171.79,133.41,164.19,116.9,154.82,116.9Zm139-13.43c-9.38,0-17,16.52-17,25.89v80.11c0,9.37,7.6,25.89,17,25.89s17-16.52,17-25.89V129.36C310.79,120,303.19,103.47,293.81,103.47Zm73,34.43c-9.38,0-17,16.52-17,25.89V175c0,9.37,7.6,25.89,17,25.89s17-16.52,17-25.89V163.79C383.8,154.41,376.2,137.9,366.82,137.9ZM224.89,54.06c-9.38,0-17,12.79-17,22.16v205c0,9.37,7.6,25.89,17,25.89s17-16.52,17-25.89v-205C241.86,66.84,234.27,54.06,224.89,54.06Z"/><circle class="cls-2" cx="85.97" cy="50.51" r="20.5"/><circle class="cls-3" cx="224.89" cy="20.5" r="20.5"/></g></g></svg>