<svg width="59px" height="45px" viewBox="0 0 59 45" version="1.1" xmlns="http://www.w3.org/2000/svg" xmlns:xlink="http://www.w3.org/1999/xlink">
    <!-- Generator: Sketch 43.1 (39012) - http://www.bohemiancoding.com/sketch -->
    <desc>Created with Sketch.</desc>
    <defs></defs>
    <g id="Page-1" stroke="none" stroke-width="1" fill="none" fill-rule="evenodd">
        <g id="Layer_2" fill="#FFFFFF">
            <path d="M13.1922936,12.5939395 C11.7681515,12.5939395 10.6112257,14.4993256 10.6112257,15.8952184 L10.6112257,34.8060642 C10.6112257,36.2019569 11.7651149,38.6630186 13.1922936,38.6630186 C14.6194724,38.6630186 15.7733616,36.2019569 15.7733616,34.8060642 L15.7733616,15.8952184 C15.770325,14.4978359 14.6164358,12.5939395 13.1922936,12.5939395 L13.1922936,12.5939395 Z M2.72834062,19.997981 C1.30419844,19.997981 0.147272699,21.8482466 0.147272699,23.245629 L0.147272699,25.7886268 C0.147272699,27.1845196 1.30116189,29.0362748 2.72834062,29.0362748 C4.15551935,29.0362748 5.30940854,27.1860093 5.30940854,25.7886268 L5.30940854,23.245629 C5.30637199,21.8452671 4.1524828,19.997981 2.72834062,19.997981 L2.72834062,19.997981 Z M23.6562466,16.4225887 C22.2321045,16.4225887 21.0751787,18.8836504 21.0751787,20.2795432 L21.0751787,29.323796 C21.0751787,30.7196887 22.2290679,33.1807504 23.6562466,33.1807504 C25.0834254,33.1807504 26.2373146,30.7196887 26.2373146,29.323796 L26.2373146,20.2720944 C26.234278,18.874712 25.0803888,16.41514 23.6562466,16.41514 L23.6562466,16.4225887 Z M55.8436819,19.551057 C54.4195397,19.551057 53.262614,22.0121187 53.262614,23.4080114 L53.262614,25.0780176 C53.262614,26.4739103 54.4165032,28.934972 55.8436819,28.934972 C57.2708606,28.934972 58.4247498,26.4739103 58.4247498,25.0780176 L58.4247498,23.4005627 C58.4232316,22.00467 57.2693424,19.5436083 55.8452002,19.5436083 L55.8436819,19.551057 Z M44.7602726,14.4218588 C43.3361304,14.4218588 42.1792047,16.8829205 42.1792047,18.2788132 L42.1792047,30.2131748 C42.1792047,31.6090675 43.3330939,34.0701292 44.7602726,34.0701292 C46.1874513,34.0701292 47.3413405,31.6090675 47.3413405,30.2131748 L47.3413405,18.2698748 C47.338304,16.8754718 46.1844148,14.4144101 44.7602726,14.4144101 L44.7602726,14.4218588 Z M34.2963196,7.06101989 C32.8721774,7.06101989 31.7152517,8.96640604 31.7152517,10.3622988 L31.7152517,40.902108 C31.7152517,42.2980008 32.8691409,44.7590625 34.2963196,44.7590625 C35.7234983,44.7590625 36.8773875,42.2980008 36.8773875,40.902108 L36.8773875,10.3622988 C36.8728327,8.95895731 35.7204618,7.05357116 34.2963196,7.05357116 L34.2963196,7.06101989 Z" id="Shape"></path>
            <ellipse id="Oval" cx="13.2044398" cy="6.52471105" rx="3.11246426" ry="3.05398092"></ellipse>
            <ellipse id="Oval" cx="34.2963196" cy="3.05398092" rx="3.11246426" ry="3.05398092"></ellipse>
        </g>
    </g>
</svg>