<svg width="405px" height="405px" viewBox="0 0 405 405" version="1.1" xmlns="http://www.w3.org/2000/svg" xmlns:xlink="http://www.w3.org/1999/xlink">
    <!-- Generator: Sketch 43.1 (39012) - http://www.bohemiancoding.com/sketch -->
    <desc>Created with Sketch.</desc>
    <defs>
        <linearGradient x1="0%" y1="81.3364253%" x2="86.0183602%" y2="25.6828466%" id="linearGradient-1">
            <stop stop-color="#006DF9" offset="0%"></stop>
            <stop stop-color="#00E3EF" offset="100%"></stop>
        </linearGradient>
        <linearGradient x1="0%" y1="81.3364253%" x2="78.829137%" y2="9.24919454%" id="linearGradient-2">
            <stop stop-color="#006DF9" offset="0%"></stop>
            <stop stop-color="#00E3EF" offset="100%"></stop>
        </linearGradient>
    </defs>
    <g id="Page-1" stroke="none" stroke-width="1" fill="none" fill-rule="evenodd">
        <g id="HD" transform="translate(-755.000000, -2309.000000)">
            <ellipse id="Oval-13-Copy-3" fill="url(#linearGradient-1)" opacity="0.128789646" cx="957.486735" cy="2511.36751" rx="202.297329" ry="202.110402"></ellipse>
            <ellipse id="Oval-13-Copy-4" fill="url(#linearGradient-1)" opacity="0.168668377" cx="957.021104" cy="2511.64582" rx="153.511161" ry="153.369314"></ellipse>
            <ellipse id="Oval-13-Copy-5" fill="url(#linearGradient-2)" cx="957.324953" cy="2511.28117" rx="108.178949" ry="106.634954"></ellipse>
            <g id="Group-22-Copy" transform="translate(900.151013, 2465.589256)" fill="#FFFFFF">
                <g id="Layer_2">
                    <path d="M25.7488141,26.6905397 C22.9691631,26.6905397 20.7110671,30.4316028 20.7110671,33.172319 L20.7110671,70.3021504 C20.7110671,73.0428666 22.9632363,77.8749512 25.7488141,77.8749512 C28.5343918,77.8749512 30.7865611,73.0428666 30.7865611,70.3021504 L30.7865611,33.172319 C30.7806343,30.4286778 28.5284651,26.6905397 25.7488141,26.6905397 L25.7488141,26.6905397 Z M5.32519495,41.2277433 C2.54554394,41.2277433 0.287447919,44.8605816 0.287447919,47.6042229 L0.287447919,52.5971819 C0.287447919,55.3378982 2.53961718,58.9736616 5.32519495,58.9736616 C8.11077272,58.9736616 10.362942,55.3408232 10.362942,52.5971819 L10.362942,47.6042229 C10.3570152,44.8547317 8.10484596,41.2277433 5.32519495,41.2277433 L5.32519495,41.2277433 Z M46.1724332,34.2077657 C43.3927822,34.2077657 41.1346862,39.0398502 41.1346862,41.7805665 L41.1346862,59.5381847 C41.1346862,62.278901 43.3868554,67.1109855 46.1724332,67.1109855 C48.958011,67.1109855 51.2101802,62.278901 51.2101802,59.5381847 L51.2101802,41.7659415 C51.2042535,39.0223003 48.9520842,34.1931407 46.1724332,34.1931407 L46.1724332,34.2077657 Z M108.996102,40.3502461 C106.216451,40.3502461 103.958355,45.1823306 103.958355,47.9230469 L103.958355,51.2019614 C103.958355,53.9426776 106.210524,58.7747622 108.996102,58.7747622 C111.78168,58.7747622 114.033849,53.9426776 114.033849,51.2019614 L114.033849,47.9084219 C114.030886,45.1677057 111.778716,40.3356211 108.999065,40.3356211 L108.996102,40.3502461 Z M87.3634236,30.2795032 C84.5837726,30.2795032 82.3256766,35.1115878 82.3256766,37.852304 L82.3256766,61.2844042 C82.3256766,64.0251204 84.5778459,68.857205 87.3634236,68.857205 C90.1490014,68.857205 92.4011707,64.0251204 92.4011707,61.2844042 L92.4011707,37.8347541 C92.3952439,35.0969628 90.1430746,30.2648783 87.3634236,30.2648783 L87.3634236,30.2795032 Z M66.9398045,15.8271244 C64.1601535,15.8271244 61.9020575,19.5681875 61.9020575,22.3089037 L61.9020575,82.2712121 C61.9020575,85.0119283 64.1542267,89.8440129 66.9398045,89.8440129 C69.7253823,89.8440129 71.9775515,85.0119283 71.9775515,82.2712121 L71.9775515,22.3089037 C71.9686614,19.5535625 69.7194555,15.8124995 66.9398045,15.8124995 L66.9398045,15.8271244 Z" id="Shape"></path>
                    <ellipse id="Oval" cx="25.7725211" cy="14.7741278" rx="6.07493024" ry="5.99623084"></ellipse>
                    <ellipse id="Oval" cx="66.9398045" cy="5.99623084" rx="6.07493024" ry="5.99623084"></ellipse>
                </g>
            </g>
        </g>
    </g>
</svg>